<?xml version="1.0" standalone="no"?>
<!DOCTYPE svg PUBLIC "-//W3C//DTD SVG 1.1//EN" "http://www.w3.org/Graphics/SVG/1.1/DTD/svg11.dtd" >
<svg>
<metadata>
Created by FontForge 20090914 at Fri Oct 14 16:15:41 2016
 By www-data
Copyright (c) 2010 by Kimberly Geswein. All rights reserved.
</metadata>
<defs>
<font id="AirplanesintheNightSky" horiz-adv-x="500" >
  <font-face 
    font-family="Airplanes in the Night Sky"
    font-weight="400"
    font-stretch="normal"
    units-per-em="1000"
    panose-1="0 0 0 0 0 0 0 0 0 0"
    ascent="800"
    descent="-200"
    x-height="453.009"
    cap-height="1045"
    bbox="-232 -584.002 1697.66 1461"
    underline-thickness="50"
    underline-position="-50"
    unicode-range="U+0020-U+FB02"
  />
<missing-glyph 
 />
    <glyph glyph-name=".notdef" 
 />
    <glyph glyph-name="space" unicode=" " 
 />
    <glyph glyph-name="space" unicode="&#xa0;" 
 />
    <glyph glyph-name="exclam" unicode="!" horiz-adv-x="178" 
d="M83 59l-0.000976562 17c0 6 1 11.667 3 17s5 10 9 14s10 7 18 9c11.333 2 20 2.33301 26 1s10.5 -4 13.5 -8s4.83301 -9 5.5 -15s1 -12.333 1 -19c0 -15.333 -3.16699 -29.5 -9.5 -42.5s-18.166 -19.5 -35.499 -19.5c-15.333 0 -24.333 4.33301 -27 13s-4 19.667 -4 33z
M102.999 299c-0.666992 14 -0.99707 31.6709 -0.99707 53.0039s0.166992 44.5 0.5 69.5s0.5 50.833 0.5 77.5v77.5v69.5c0 21.333 -0.333008 39 -1 53v44v29c8.66699 12 16.167 15.667 22.5 11s11.166 -13.834 14.499 -27.501s5.66602 -29.834 6.99902 -48.501
s1.33301 -35.667 0 -51l-4 -357c-4 0 -8.33301 -0.666992 -13 -2s-8.83398 -2.33301 -12.501 -3s-6.66699 -0.833984 -9 -0.500977s-3.83301 2.16602 -4.5 5.49902z" />
    <glyph glyph-name="quotedbl" unicode="&#x22;" horiz-adv-x="297" 
d="M54 814c0.666992 0 1.83203 0.166992 3.49902 0.5s3.16699 0.5 4.5 0.5c7.33301 0 12.5 -2.16699 15.5 -6.5s5 -9.5 6 -15.5s1.33301 -12.167 1 -18.5s-0.5 -11.5 -0.5 -15.5v-32.5c0 -15.667 -0.5 -33.5 -1.5 -53.5s-2.66699 -40.833 -5 -62.5
s-5.83301 -41.5 -10.5 -59.5s-10.5 -32.833 -17.5 -44.5s-15.5 -17.5 -25.5 -17.5c0 23.333 -0.166992 49.5 -0.5 78.5s0.333984 58.167 2.00098 87.5s4.5 57.833 8.5 85.5s10.667 52.167 20 73.5zM213.998 744c0 13.333 4.16797 26.5039 12.501 39.5039
s20.166 19.5 35.499 19.5c0 -6.66699 -0.166992 -18.334 -0.5 -35.001s-0.833008 -34.5 -1.5 -53.5s-1.16699 -37 -1.5 -54s-0.833008 -28.833 -1.5 -35.5c0 -7.33301 -0.666992 -16.833 -2 -28.5s-2.83301 -22.834 -4.5 -33.501s-3.16699 -19.834 -4.5 -27.501
s-2.33301 -11.5 -3 -11.5h-15c-0.666992 7.33301 -1.66699 20.666 -3 39.999l-4 61l-4 61c-1.33301 19.333 -2.33301 33 -3 41v17z" />
    <glyph glyph-name="numbersign" unicode="#" horiz-adv-x="681" 
d="M369 33c0 36 2.16992 71.5 6.50293 106.5s6.5 70.5 6.5 106.5h-129l-2.5 -44.5c-1 -18.333 -2.5 -37.833 -4.5 -58.5s-4.66699 -41.167 -8 -61.5s-8 -37.833 -14 -52.5l-21 14v211h-182l-14 21l14 15c1.33301 0.666992 9.66602 2 24.999 4s33.333 4 54 6
s41.334 3.33301 62.001 4s36.667 0.666992 48 0c3.33301 22 6 41.167 8 57.5s3.5 32 4.5 47s1.66699 30.333 2 46s0.5 33.167 0.5 52.5v14.5c0 7 -0.166992 14.333 -0.5 22s-0.5 15 -0.5 22v14.5c-6 0 -16.5 0.666992 -31.5 2s-31 2.66602 -48 3.99902s-33 2.83301 -48 4.5
l-31.5 3.5c-2.66699 0.666992 -7.66699 2.83398 -15 6.50098s-12 6.5 -14 8.5l14 29h189c4 1.33301 8 10 12 26s7.66699 35.5 11 58.5s6 48 8 75s3.33301 52 4 75s0.5 42.5 -0.5 58.5s-2.83301 24.667 -5.5 26c0 14 5 23.667 15 29s20.667 8 32 8
c0 -60.667 -2.5 -120.167 -7.5 -178.5s-7.5 -117.5 -7.5 -177.5l116 3c9.33301 12 15.833 27 19.5 45s6 37 7 57s1.33301 39.833 1 59.5s0 37.667 1 54s3.33301 29.666 7 39.999s10.167 15.833 19.5 16.5c4.66699 -1.33301 8.16699 -3.5 10.5 -6.5s3.83301 -6.66699 4.5 -11
s0.833984 -8.66602 0.500977 -12.999s-0.5 -7.83301 -0.5 -10.5c0 -40 -2 -79.5 -6 -118.5s-6 -78.5 -6 -118.5c10 0 25.5 -0.5 46.5 -1.5s42 -4 63 -9s39.5 -12.5 55.5 -22.5s24 -23.667 24 -41c-14 0 -27.167 1 -39.5 3s-24.5 4.33301 -36.5 7s-24 5 -36 7
s-24.667 3 -38 3c-1.33301 0 -4.83301 0.333008 -10.5 1s-11.834 0.666992 -18.501 0s-12.834 -2.16699 -18.501 -4.5s-8.83398 -6.5 -9.50098 -12.5c-3.33301 -20.667 -6 -38.667 -8 -54s-3.5 -30 -4.5 -44s-1.66699 -28 -2 -42s-0.5 -30 -0.5 -48v-11.5
c0 -5.66699 0.166992 -11.5 0.5 -17.5s0.5 -11.833 0.5 -17.5v-11.5c8 -1.33301 19.5 -2 34.5 -2s30 -1.16699 45 -3.5s28 -7 39 -14s16.5 -17.833 16.5 -32.5c-9.33301 0 -20.333 0.666992 -33 2s-25.5 2 -38.5 2s-25.5 -1.16699 -37.5 -3.5s-22 -6.83301 -30 -13.5
c-0.666992 -14 -1.83398 -32.167 -3.50098 -54.5s-4.5 -45.833 -8.5 -70.5s-9.33301 -48.5 -16 -71.5s-15.334 -42.167 -26.001 -57.5c-9.33301 2 -14.166 6.5 -14.499 13.5s-0.5 13.5 -0.5 19.5zM297.003 580c-6.66699 0 -12.5 -5.83398 -17.5 -17.501
s-9.16699 -26.5 -12.5 -44.5s-6 -37.667 -8 -59s-3.5 -41.666 -4.5 -60.999s-1.66699 -36.333 -2 -51s-0.5 -24 -0.5 -28h117c8 0 14.5 5.83301 19.5 17.5s9 26.667 12 45s5.16699 38.333 6.5 60s2.5 42.5 3.5 62.5s1.83301 37.5 2.5 52.5s1.66699 25.167 3 30.5z" />
    <glyph glyph-name="dollar" unicode="$" horiz-adv-x="464" 
d="M20 135c0 9.33301 4.99902 16.999 14.999 22.999c6.66699 -10 16.167 -18.167 28.5 -24.5s25.5 -11.666 39.5 -15.999s27.833 -7.83301 41.5 -10.5l35.5 -7l15 319c-18.667 4.66699 -38 11 -58 19s-38.5 19 -55.5 33s-31 31.5 -42 52.5s-16.833 46.5 -17.5 76.5
c10.667 44 25.834 79.833 45.501 107.5s39.167 49 58.5 64s35.833 25.167 49.5 30.5s20.167 8 19.5 8v159l31 -2l-1 -13c-0.666992 -8.66699 -1 -20.167 -1 -34.5s0.833008 -31 2.5 -50s5.16699 -38.833 10.5 -59.5c20.667 2.66699 43 2.33398 67 -0.999023
s45.833 -12.166 65.5 -26.499s35 -35.166 46 -62.499s13.5 -63.333 7.5 -108c0 -11.333 -3 -18 -9 -20s-16.333 -3 -31 -3v120c0 16 -5.5 27.667 -16.5 35s-23.833 12.166 -38.5 14.499s-29.167 3.33301 -43.5 3s-24.833 -0.5 -31.5 -0.5v-328c24 -10 46.667 -23 68 -39
s39.833 -34.333 55.5 -55s28.167 -43.334 37.5 -68.001s14 -50.667 14 -78c0 -24 -3 -42.333 -9 -55s-13.833 -22.334 -23.5 -29.001s-20.834 -11.5 -33.501 -14.5s-25.5 -7.16699 -38.5 -12.5s-25.667 -12.833 -38 -22.5s-23.333 -24.5 -33 -44.5s-17.5 -46.333 -23.5 -79
s-9 -74.667 -9 -126h-32v246c0 4.66699 -7.66699 10 -23 16s-32.666 12.167 -51.999 18.5s-38 12.833 -56 19.5s-30 13 -36 19c-0.666992 1.33301 -1 2.33301 -1 3v3zM253.999 378.999c0 -48 -3.16602 -95.5 -9.49902 -142.5s-9.5 -94.5 -9.5 -142.5
c21.333 0 44.166 3 68.499 9s46.166 14.667 65.499 26c10.667 5.33301 18.334 14.833 23.001 28.5s7 25.834 7 36.501c0 14 -4.33301 31.667 -13 53s-20 41.666 -34 60.999s-29.667 36 -47 50s-34.333 21 -51 21zM63 614.999c0 -18.667 4 -36.498 12 -53.498
s18.833 -32.167 32.5 -45.5s29.167 -24 46.5 -32s35.666 -12 54.999 -12v266c0 2 -1.83301 4.83301 -5.5 8.5s-6.5 5.5 -8.5 5.5c-12.667 0 -26.667 -5 -42 -15s-29.666 -22.333 -42.999 -37s-24.5 -29.834 -33.5 -45.501s-13.5 -28.834 -13.5 -39.501z" />
    <glyph glyph-name="percent" unicode="%" horiz-adv-x="877" 
d="M732 0c-11.333 0.666992 -20.998 3.5 -28.998 8.5s-14.833 11.5 -20.5 19.5s-10.167 17.167 -13.5 27.5s-6.33301 20.833 -9 31.5c-2 18.667 -0.5 34.5 4.5 47.5s12.667 23.5 23 31.5s22.5 13.833 36.5 17.5s29 5.5 45 5.5c10 0 20 -0.833008 30 -2.5
s19.5 -4.66699 28.5 -9s16.667 -10.333 23 -18s10.5 -17.5 12.5 -29.5c3.33301 -20 1.66602 -38 -5.00098 -54s-16.334 -29.667 -29.001 -41s-27.5 -20 -44.5 -26s-34.5 -9 -52.5 -9zM663.002 773c0 -27.333 -8.00098 -61 -24.001 -101s-36.5 -83.333 -61.5 -130
s-53 -95 -84 -145l-92 -145.5l-85 -132.5c-26.333 -41.333 -47.166 -76.333 -62.499 -105h-32c0 10 5.5 28.5 16.5 55.5s25.5 59.333 43.5 97s38.833 78.667 62.5 123l74 134l77 130.5c25.667 42 49.5 79.167 71.5 111.5s41.5 58.333 58.5 78s29.5 29.5 37.5 29.5z
M732.001 145c-8 -2.66699 -14.502 -9.50098 -19.502 -20.501s-6.16699 -22.167 -3.5 -33.5s10 -20.666 22 -27.999s31.667 -9 59 -5c1.33301 0 3.83301 3.66699 7.5 11s6.16699 13.333 7.5 18v11.5c0 5.66699 -2.16699 11.5 -6.5 17.5s-11.666 11.833 -21.999 17.5
s-25.166 9.5 -44.499 11.5zM20.999 711.999c0 9.33301 4.00195 19.167 12.002 29.5s17.667 19.666 29 27.999s23.166 15.333 35.499 21s22.833 8.5 31.5 8.5c10 0 19.833 -1.5 29.5 -4.5s18.5 -7.33301 26.5 -13s14.5 -12.5 19.5 -20.5s7.5 -17.333 7.5 -28
c0 -8.66699 -1 -19.167 -3 -31.5s-5 -24.333 -9 -36s-8.83301 -21.667 -14.5 -30s-11.834 -12.5 -18.501 -12.5c-22.667 -5.33301 -42.167 -6.16602 -58.5 -2.49902s-30.333 10 -42 19s-21.167 20 -28.5 33s-13 26.167 -17 39.5zM80.001 681
c0 -5.33301 2.00195 -9 6.00195 -11s8.5 -3.5 13.5 -4.5s9.83301 -1.33301 14.5 -1s7.66699 0.5 9 0.5c19.333 0 31.666 2.66699 36.999 8s8 17.666 8 36.999c0 16.667 -1.83301 28.334 -5.5 35.001s-14.167 10 -31.5 10c-20.667 0 -34.334 -7 -41.001 -21
s-10 -31.667 -10 -53z" />
    <glyph glyph-name="ampersand" unicode="&#x26;" horiz-adv-x="522" 
d="M239 179c0 35.333 1.83496 69.335 5.50195 102.002s5.5 67 5.5 103h-199c-6.66699 0 -13.334 3 -20.001 9s-10 12.667 -10 20s3.16699 12.666 9.5 15.999s13.166 5 20.499 5h210v174c0 1.33301 2.83301 3.83301 8.5 7.5s10.167 6.16699 13.5 7.5h7
c4.66699 0 9.5 -0.833008 14.5 -2.5s7.5 -5.83398 7.5 -12.501v-176c8.66699 0 23.334 0.5 44.001 1.5s41.667 1.5 63 1.5s40.166 -1 56.499 -3s24.5 -6 24.5 -12v-36h-210v-211c0 -1.33301 -1.5 -4 -4.5 -8s-6.5 -8.33301 -10.5 -13s-8 -9 -12 -13l-9 -9
c-8 8.66699 -12.5 16.5 -13.5 23.5s-1.5 15.5 -1.5 25.5z" />
    <glyph glyph-name="quotesingle" unicode="'" horiz-adv-x="138" 
d="M83 612c-12 12 -22.3359 23.335 -31.0029 34.002s-13 23.667 -13 39v7c0 3.33301 0.333008 5.66602 1 6.99902c10 -4 20 -8.5 30 -13.5s19.333 -10.833 28 -17.5s15.667 -14.5 21 -23.5s8 -19.833 8 -32.5c0 -10 -3 -23.833 -9 -41.5s-14 -35.334 -24 -53.001
s-21 -33 -33 -46s-24 -19.5 -36 -19.5c-1.33301 0 -3.66602 0.166992 -6.99902 0.5s-5.66602 0.5 -6.99902 0.5c0.666992 2 3.83398 9.83301 9.50098 23.5l19.5 46.5l22.5 51.5c7.66699 17 14.5 29.5 20.5 37.5z" />
    <glyph glyph-name="parenleft" unicode="(" horiz-adv-x="377" 
d="M54 199c0 16.667 2.49902 40.333 7.49902 71s11.833 65.667 20.5 105s19.334 81.5 32.001 126.5s26.834 89.667 42.501 134s32.5 87 50.5 128s36.833 77 56.5 108s40 55.833 61 74.5s42.167 28 63.5 28h19c0 -22 -6.66699 -42.333 -20 -61s-29 -36.5 -47 -53.5
l-54.5 -50.5c-18.333 -16.667 -32.5 -34 -42.5 -52c-49.333 -89.333 -86 -182 -110 -278s-36 -194.667 -36 -296c0 -29.333 4 -55 12 -77s17.167 -42.5 27.5 -61.5l29.5 -55c9.33301 -17.667 15.666 -37.167 18.999 -58.5c-1.33301 -0.666992 -4.83301 -1.16699 -10.5 -1.5
s-9.16699 -0.5 -10.5 -0.5c-18 0 -33.333 5.33301 -46 16s-23 24.167 -31 40.5s-14.333 34.833 -19 55.5s-8 41 -10 61s-3.16699 38.667 -3.5 56s-0.5 31 -0.5 41z" />
    <glyph glyph-name="parenright" unicode=")" horiz-adv-x="275" 
d="M211 421c0 35.333 -4.66504 70.666 -13.998 105.999s-21 69.5 -35 102.5s-29.333 64.167 -46 93.5l-46 79l-35 60c-9.33301 16.667 -14 29 -14 37v14h29c24 0 45.667 -9.16699 65 -27.5s36.666 -41.666 51.999 -69.999s28.5 -60 39.5 -95s20.167 -69.333 27.5 -103
s12.666 -64.667 15.999 -93s5 -49.833 5 -64.5c0 -16.667 -1.5 -43 -4.5 -79s-7.83301 -76 -14.5 -120s-15.5 -89.5 -26.5 -136.5s-24.667 -90 -41 -129s-35.5 -71.667 -57.5 -98s-47 -40.5 -75 -42.5c0 1.33301 -0.166992 3.83301 -0.5 7.5s-0.5 6.16699 -0.5 7.5
c0 20.667 4.33301 43.167 13 67.5s19.5 50.333 32.5 78l42.5 87.5c15.333 30.667 29.5 63 42.5 97s23.833 69.5 32.5 106.5s13 75.167 13 114.5z" />
    <glyph glyph-name="asterisk" unicode="*" horiz-adv-x="587" 
d="M79 145c-1.33301 -0.666992 -2.33496 -1.00195 -3.00195 -1.00195h-4c-9.33301 0 -16.666 5 -21.999 15c4.66699 6 12.667 12.167 24 18.5l34.5 19c11.667 6.33301 22 13 31 20s13.5 14.5 13.5 22.5c0 13.333 -6.16699 22 -18.5 26s-26.666 7 -42.999 9
s-32.5 4.5 -48.5 7.5s-28 10.5 -36 22.5l14 15h145c-6 5.33301 -14.833 12.666 -26.5 21.999s-23 19.833 -34 31.5s-20.667 24 -29 37s-12.5 26.167 -12.5 39.5c0 1.33301 0.166992 3.83301 0.5 7.5s0.5 6.16699 0.5 7.5c12.667 -9.33301 26.667 -21.333 42 -36
s31.166 -28.667 47.499 -42s32.833 -24.833 49.5 -34.5s33 -14.5 49 -14.5v185l15 14c12.667 -30 21.5 -63.333 26.5 -100s5.83301 -71 2.5 -103l130 87h39c0 -6 -3.5 -13.167 -10.5 -21.5s-15.833 -17.333 -26.5 -27s-22.334 -19.5 -35.001 -29.5l-36.5 -28.5l-30.5 -24
c-8.66699 -7 -14 -12.167 -16 -15.5c2.66699 0 8.33398 -0.333008 17.001 -1s19.334 -1.66699 32.001 -3l42 -4.5c15.333 -1.66699 31 -3.5 47 -5.5l123 -14v-43l-189 9c-18 7.33301 -30.5 10.333 -37.5 9s-10.5 -5.33301 -10.5 -12s2.5 -15.167 7.5 -25.5
s10.667 -20.833 17 -31.5s12 -20.667 17 -30s7.83301 -16.333 8.5 -21v-7c0 -3.33301 -0.333008 -5.66602 -1 -6.99902c-15.333 8.66699 -29 20.834 -41 36.501s-22.833 28.834 -32.5 39.501s-18.5 16 -26.5 16s-15.667 -11.333 -23 -34v-131l-22 -14
c-5.33301 8 -9.5 19 -12.5 33s-5 28.833 -6 44.5s-1.5 31.5 -1.5 47.5s0.5 30.667 1.5 44l2.5 33c0.666992 8.66699 1 13.667 1 15z" />
    <glyph glyph-name="plus" unicode="+" horiz-adv-x="522" 
d="M239 179c0 35.333 1.83496 69.335 5.50195 102.002s5.5 67 5.5 103h-199c-6.66699 0 -13.334 3 -20.001 9s-10 12.667 -10 20s3.16699 12.666 9.5 15.999s13.166 5 20.499 5h210v174c0 1.33301 2.83301 3.83301 8.5 7.5s10.167 6.16699 13.5 7.5h7
c4.66699 0 9.5 -0.833008 14.5 -2.5s7.5 -5.83398 7.5 -12.501v-176c8.66699 0 23.334 0.5 44.001 1.5s41.667 1.5 63 1.5s40.166 -1 56.499 -3s24.5 -6 24.5 -12v-36h-210v-211c0 -1.33301 -1.5 -4 -4.5 -8s-6.5 -8.33301 -10.5 -13s-8 -9 -12 -13l-9 -9
c-8 8.66699 -12.5 16.5 -13.5 23.5s-1.5 15.5 -1.5 25.5z" />
    <glyph glyph-name="comma" unicode="," horiz-adv-x="364" 
d="M188 -48c0 1.33301 2.83203 4.49902 8.49902 9.49902s12.167 10.167 19.5 15.5s14 10.5 20 15.5s9.66699 8.16699 11 9.5c-8 2.66699 -18.667 5.33398 -32 8.00098s-26.166 6.5 -38.499 11.5s-23 11.667 -32 20s-13.5 19.5 -13.5 33.5c0 12 2.83301 24.833 8.5 38.5
s13.334 26.334 23.001 38.001s20.5 21.334 32.5 29.001s24.333 11.5 37 11.5c17.333 0 30.166 -3.83301 38.499 -11.5s14.166 -17.334 17.499 -29.001s4.83301 -24.334 4.5 -38.001s-0.5 -26.5 -0.5 -38.5v-14.5c0 -7 -0.166992 -14.333 -0.5 -22l-1 -22
c-0.333008 -7 -0.5 -11.833 -0.5 -14.5l-15 -25c-5.33301 -8.66699 -11.5 -16.5 -18.5 -23.5s-14.833 -12.667 -23.5 -17s-18.667 -6.5 -30 -6.5c-5.33301 0 -9.16602 2.66699 -11.499 8s-3.5 10 -3.5 14z" />
    <glyph glyph-name="hyphen" unicode="-" horiz-adv-x="587" 
d="M42 344l508 0.00195312l14 -15l-29 -29c-42 -1.33301 -81.667 -3.33301 -119 -6s-75.166 -4.33398 -113.499 -5.00098s-78.5 0.666016 -120.5 3.99902s-88.667 10.666 -140 21.999c-1.33301 0.666992 -3.83301 2.83398 -7.5 6.50098s-5.83398 6.16699 -6.50098 7.5z" />
    <glyph glyph-name="period" unicode="." horiz-adv-x="200" 
d="M62 73c0 14.667 4.99902 25.667 14.999 33s21.667 11 35 11c2 0 5.83301 -0.166992 11.5 -0.5s11.5 -1 17.5 -2s11.333 -2.5 16 -4.5s7 -5 7 -9c0 -18 -1.16699 -32.5 -3.5 -43.5s-5 -19.5 -8 -25.5s-6.16699 -10.333 -9.5 -13s-6 -4.33398 -8 -5.00098
c-11.333 -9.33301 -21.5 -13.333 -30.5 -12s-16.667 5.83301 -23 13.5s-11.166 16.834 -14.499 27.501s-5 20.667 -5 30z" />
    <glyph glyph-name="slash" unicode="/" horiz-adv-x="601" 
d="M6 29c0 1.33301 0.167969 3.66602 0.500977 6.99902s0.5 5.66602 0.5 6.99902l38 48.5l70 90.5l90.5 117.5l100.5 129.5l99 126.5l86 109l62 76.5c16 19.333 25 29 27 29c7.33301 0 12.666 -2.83301 15.999 -8.5s5 -13.167 5 -22.5c0 -14 -5.33301 -30.667 -16 -50
s-24.5 -39.666 -41.5 -60.999s-36 -43.333 -57 -66l-62 -65.5l-57 -59c-17.667 -18.333 -31.5 -33.833 -41.5 -46.5c-22 -27.333 -45.333 -59 -70 -95l-76 -109c-26 -36.667 -52.333 -71.667 -79 -105s-53.334 -60.666 -80.001 -81.999
c-7.33301 2.66699 -11.666 6.66699 -12.999 12s-2 11 -2 17z" />
    <glyph glyph-name="zero" unicode="0" horiz-adv-x="609" 
d="M232 -1c-52 4.66699 -93.667 19.667 -125 45s-55 57 -71 95s-25.833 80.833 -29.5 128.5s-4.5 96.334 -2.5 146.001s5.5 98.667 10.5 147s8.5 92.166 10.5 131.499c12.667 38.667 28 71.334 46 98.001s38.167 48.167 60.5 64.5s46.333 28 72 35s52.5 10.167 80.5 9.5
c24.667 0 49.834 -5 75.501 -15s50.167 -22.833 73.5 -38.5s45.166 -32.834 65.499 -51.501s37.833 -37 52.5 -55c19.333 -38 32 -82 38 -132s5.66699 -101.667 -1 -155s-19.667 -106 -39 -158s-44 -99 -74 -141s-65.5 -77 -106.5 -105s-86.5 -44.333 -136.5 -49zM115 115
c0 -15.333 3.33398 -27.833 10.001 -37.5s15 -17.167 25 -22.5s21.167 -9 33.5 -11s24.166 -3 35.499 -3c38 0 74 9.83301 108 29.5s64.667 44.667 92 75s51 63.5 71 99.5s35.333 70.333 46 103c5.33301 24.667 9.83301 52.667 13.5 84s5.33398 63.5 5.00098 96.5
s-3.5 65.5 -9.5 97.5s-16 60.667 -30 86c-1.33301 0 -2.83301 -0.166992 -4.5 -0.5s-2.83398 -0.833008 -3.50098 -1.5c-5.33301 -4 -14.833 -13.833 -28.5 -29.5l-49.5 -59l-63.5 -81l-69.5 -94l-67.5 -98c-21.667 -33 -41 -64.333 -58 -94s-30.5 -56.5 -40.5 -80.5
s-15 -43.667 -15 -59zM57.001 398c0 -2.66699 -0.335938 -10.166 -1.00293 -22.499s-1 -26.833 -1 -43.5s0.5 -34.334 1.5 -53.001s2.83301 -36 5.5 -52s6.5 -29.167 11.5 -39.5s11.833 -15.5 20.5 -15.5c1.33301 0 2.83301 0.166992 4.5 0.5s2.5 0.833008 2.5 1.5
c2 9.33301 8.83301 24.333 20.5 45s26.334 45.167 44.001 73.5l59.5 92l67.5 100l67.5 98l59 85.5l42 63c10.667 16.667 16.667 26.667 18 30c0 18 -8.83301 33 -26.5 45s-38.5 21.833 -62.5 29.5s-48.167 13.167 -72.5 16.5s-43.166 5 -56.499 5
c-35.333 0 -64.833 -7.66699 -88.5 -23s-43 -35.5 -58 -60.5s-26.5 -53.667 -34.5 -86s-13.667 -65.5 -17 -99.5s-5.16602 -67.5 -5.49902 -100.5s-0.5 -62.833 -0.5 -89.5z" />
    <glyph glyph-name="one" unicode="1" horiz-adv-x="464" 
d="M0 29c36 2.66699 65.5029 7.5 88.5029 14.5s41.667 16.167 56 27.5s25.333 25.166 33 41.499s13.667 35.5 18 57.5s8 46.833 11 74.5s7.5 58.834 13.5 93.501c2.66699 42.667 6.5 83.334 11.5 122.001s10.5 77.5 16.5 116.5s12.5 79.167 19.5 120.5
s14.167 86.666 21.5 135.999c-22 2 -39.833 -0.5 -53.5 -7.5s-26.5 -15.167 -38.5 -24.5l-37.5 -28c-13 -9.33301 -29.833 -16 -50.5 -20c0 22.667 8 41.834 24 57.501s35.667 28.334 59 38.001s48 16.667 74 21s49 6.5 69 6.5c0 -53.333 -2.16699 -102.5 -6.5 -147.5
s-9.5 -87.833 -15.5 -128.5s-12.833 -80.334 -20.5 -119.001s-14.5 -78.334 -20.5 -119.001s-11.167 -83.334 -15.5 -128.001s-6.5 -93.667 -6.5 -147h185v-29c0 -8 -6.66699 -13 -20 -15s-29 -2.66699 -47 -2s-35.833 1.5 -53.5 2.5s-30.834 0.833008 -39.501 -0.5l-24 -5
l-41 -9l-41 -9.5c-12.667 -3 -20.667 -4.83301 -24 -5.5c-5.33301 -1.33301 -12 -2.66602 -20 -3.99902s-15.833 -2.83301 -23.5 -4.5s-14.334 -3 -20.001 -4s-8.83398 -1.5 -9.50098 -1.5c-2 0 -6.5 0.5 -13.5 1.5s-14.5 2.5 -22.5 4.5s-15.5 4.83301 -22.5 8.5
s-11.5 8.5 -13.5 14.5z" />
    <glyph glyph-name="two" unicode="2" horiz-adv-x="696" 
d="M260 131c-14 0 -27.8271 -3.83789 -41.4941 -11.5049s-28 -16.167 -43 -25.5s-30.5 -17.833 -46.5 -25.5s-33 -11.5 -51 -11.5c-11.333 0 -20.666 0.166992 -27.999 0.5s-13.333 1.83301 -18 4.5s-7.83398 7 -9.50098 13s-2.5 14.667 -2.5 26
c0 18.667 4.16699 34 12.5 46s19 21.333 32 28s28 11.334 45 14.001s34 4 51 4s33.667 -0.666992 50 -2s30.5 -2.33301 42.5 -3c32.667 27.333 63.167 60.333 91.5 99s53 79.834 74 123.501s37.667 88.334 50 134.001s18.5 89.167 18.5 130.5c0 26 -3.33301 50.167 -10 72.5
s-17 41.666 -31 57.999s-31.833 29 -53.5 38s-47.834 13.5 -78.501 13.5c-16.667 0 -33 -1.66699 -49 -5s-31.833 -7.33301 -47.5 -12s-31.334 -9.66699 -47.001 -15s-31.5 -9.66602 -47.5 -12.999c-0.666992 20 7.66602 35.333 24.999 46s37.5 18.334 60.5 23.001
s45.667 7.33398 68 8.00098s38.5 1 48.5 1c26.667 2 53.667 -2.66699 81 -14s51.166 -27 71.499 -47s35.666 -43.5 45.999 -70.5s12.166 -55.167 5.49902 -84.5c0 -44.667 -7.66699 -89.334 -23 -134.001s-34.5 -88.5 -57.5 -131.5s-48.167 -84.333 -75.5 -124l-76 -110.5
c0 -9.33301 8.66699 -20.166 26 -32.499s42.166 -24.5 74.499 -36.5s71.833 -22.333 118.5 -31s99.334 -14 158.001 -16l-44 -44c-36 -10 -70.333 -10 -103 0s-64 23.5 -94 40.5l-87.5 49.5c-28.333 16 -56.833 25 -85.5 27zM94.0059 158.995
c-7.33301 0 -14.168 -3.00195 -20.501 -9.00195s-11.833 -13.167 -16.5 -21.5s-8.16699 -17 -10.5 -26s-3.5 -16.5 -3.5 -22.5c16.667 3.33301 36.334 8.33301 59.001 15s44 14 64 22s36.667 15.667 50 23s19 13.333 17 18s-13.5 7.33398 -34.5 8.00098
s-55.833 -1.66602 -104.5 -6.99902z" />
    <glyph glyph-name="three" unicode="3" horiz-adv-x="609" 
d="M127 -42c18.667 0 35.9971 -2.65918 51.9971 -7.99219s33.667 -8 53 -8c40.667 0 79.5 5 116.5 15s69.5 25.667 97.5 47s50.333 48.166 67 80.499s25 71.166 25 116.499c0 57.333 -17 101.333 -51 132s-79 46 -135 46c-14 0 -27.667 -1.66699 -41 -5
s-26.333 -6.83301 -39 -10.5l-38 -10.5c-12.667 -3.33301 -25.667 -5 -39 -5c-5.33301 0 -9.33301 0.833008 -12 2.5s-5.66699 5.83398 -9 12.501c10.667 14 22.834 26.833 36.501 38.5l42 34.5l42 34.5c13.667 11.667 26.5 24.167 38.5 37.5
c46.667 42.667 75.834 80.334 87.501 113.001s11 60.667 -2 84s-35.5 42.666 -67.5 57.999s-68.667 27.333 -110 36c-18.667 0 -38.834 -2.5 -60.501 -7.5s-42.834 -12.167 -63.501 -21.5s-40 -20.333 -58 -33s-33 -26.334 -45 -41.001c-10 5.33301 -15 12.666 -15 21.999
c0 13.333 5 25.833 15 37.5s23 22 39 31s33.833 17 53.5 24s39 12.833 58 17.5s36.5 8.16699 52.5 10.5s28.333 3.5 37 3.5c44.667 -1.33301 82 -9.5 112 -24.5s53 -34.167 69 -57.5s25.667 -49.333 29 -78s0.833008 -57.334 -7.5 -86.001s-21.833 -55.834 -40.5 -81.501
s-42 -47.167 -70 -64.5c14 -8 29.667 -15.833 47 -23.5s34.833 -16.167 52.5 -25.5s34.834 -19.666 51.501 -30.999s31.334 -24.333 44.001 -39s22.667 -31.334 30 -50.001s10.333 -39.667 9 -63c0 -48 -8.83301 -92.5 -26.5 -133.5s-42.167 -76 -73.5 -105
s-68.166 -50.833 -110.499 -65.5s-88.166 -19.667 -137.499 -15c-4.66699 0 -12.834 1.16699 -24.501 3.5s-23.5 5.66602 -35.5 9.99902s-22.5 10.166 -31.5 17.499s-13.5 16.666 -13.5 27.999z" />
    <glyph glyph-name="four" unicode="4" horiz-adv-x="674" 
d="M79 333c-4.66699 0 -10.668 1.16699 -18.001 3.5s-14.833 5.5 -22.5 9.5s-14.5 8.66699 -20.5 14s-9.66699 11 -11 17c-2.66699 11.333 -2 27 2 47s9.83301 42.333 17.5 67s16.5 50.5 26.5 77.5l29.5 78c9.66699 25 18.167 48.167 25.5 69.5s12.333 38.666 15 51.999h21
c0 -32.667 -4 -64.834 -12 -96.501s-16.833 -63.167 -26.5 -94.5s-18.5 -62.5 -26.5 -93.5s-12 -61.833 -12 -92.5h339v189l21 14l15 -29v-174h203c5.33301 0 9.16602 -2.5 11.499 -7.5s3.5 -9.5 3.5 -13.5c0 -9.33301 -5 -16.666 -15 -21.999
c-15.333 0.666992 -31.5 1.33398 -48.5 2.00098s-34.5 0.666992 -52.5 0s-35.667 -2.33398 -53 -5.00098s-33.666 -6.66699 -48.999 -12c2.66699 -26 2.83398 -53.333 0.500977 -82s-5.5 -57.5 -9.5 -86.5l-12 -85.5c-4 -28 -6.66699 -54.333 -8 -79h-31
c0 56.667 2.5 112.334 7.5 167.001s7.5 110 7.5 166h-318z" />
    <glyph glyph-name="five" unicode="5" horiz-adv-x="547" 
d="M7 91c23.333 -11.333 50.4951 -21.166 81.4951 -29.499s62.833 -13.833 95.5 -16.5s64.834 -1.83398 96.501 2.49902s59.834 13.666 84.501 27.999s44.167 34.333 58.5 60s20.833 58.167 19.5 97.5c0 15.333 -0.833008 31 -2.5 47s-6 31.167 -13 45.5
s-18 27.666 -33 39.999s-36 22.333 -63 30s-61 12.667 -102 15s-91.167 0.833008 -150.5 -4.5c-2.66699 0 -5.83398 3.66699 -9.50098 11s-5.16699 13.333 -4.5 18c2 38.667 7.16699 73.834 15.5 105.501s17 58.834 26 81.501s16.833 40.5 23.5 53.5s9 19.833 7 20.5l15 14
c0.666992 0.666992 7.16699 1.83398 19.5 3.50098s27 3.16699 44 4.5l52 4c17.667 1.33301 32.167 2.33301 43.5 3c9.33301 0 23.5 0.166992 42.5 0.5s40.333 0.666016 64 0.999023s48.667 0.666016 75 0.999023s51.333 0.666016 75 0.999023s45 0.666016 64 0.999023
s33.167 0.5 42.5 0.5v-45c-78 0 -155.5 -1.16699 -232.5 -3.5s-154.167 -7.16602 -231.5 -14.499c-11.333 -5.33301 -21.5 -17.666 -30.5 -36.999s-17.167 -40.5 -24.5 -63.5s-13.666 -45.667 -18.999 -68s-9.66602 -38.833 -12.999 -49.5c36.667 4 76.167 5.5 118.5 4.5
s81.666 -7.5 117.999 -19.5s66.5 -31.5 90.5 -58.5s36 -64.833 36 -113.5c6.66699 -41.333 6.83398 -76.666 0.500977 -105.999s-17.833 -53.833 -34.5 -73.5s-38.167 -35 -64.5 -46s-55.666 -18.833 -87.999 -23.5s-67.166 -6.66699 -104.499 -6s-76 3 -116 7l-72 29v48z
" />
    <glyph glyph-name="six" unicode="6" horiz-adv-x="428" 
d="M14 269c0 56.667 8.00098 110.666 24.001 161.999s37 100.5 63 147.5s55.5 92.167 88.5 135.5l100.5 127h7c6 0 11.333 -2.16699 16 -6.5s7 -9.5 7 -15.5c0 -0.666992 -0.166992 -1.33398 -0.5 -2.00098s-0.5 -1.33398 -0.5 -2.00098v-3c-38 -30 -73 -66.167 -105 -108.5
s-59.667 -87.666 -83 -135.999s-41.5 -98.333 -54.5 -150s-19.5 -101.834 -19.5 -150.501c0 -24 1.66699 -48.5 5 -73.5s10.166 -47.833 20.499 -68.5s24.833 -37.5 43.5 -50.5s43 -19.5 73 -19.5c22.667 0 44.667 3 66 9s40.5 15 57.5 27s30.667 27.167 41 45.5
s15.5 40.166 15.5 65.499c0 44 -11.5 77 -34.5 99s-55.833 33 -98.5 33c-18.667 -0.666992 -35.167 -4.83398 -49.5 -12.501s-27 -16.667 -38 -27s-20.333 -21 -28 -32l-20 -28.5c-5.66699 -8 -10.667 -13.167 -15 -15.5s-8.5 -0.166016 -12.5 6.50098
c0 21.333 5.83301 41 17.5 59s26.167 33.5 43.5 46.5s36.5 23.167 57.5 30.5s40.833 11 59.5 11c30 6 55 4.33301 75 -5s35.833 -23.333 47.5 -42s19.5 -40.667 23.5 -66s4.66699 -50.666 2 -75.999c0 -22 -5.16699 -43.167 -15.5 -63.5s-24 -38.666 -41 -54.999
s-36 -30.166 -57 -41.499s-42.167 -19 -63.5 -23c-42 -7.33301 -77 -3.33301 -105 12s-50.333 36.833 -67 64.5s-28.5 58.834 -35.5 93.501s-10.5 67.667 -10.5 99z" />
    <glyph glyph-name="seven" unicode="7" horiz-adv-x="688" 
d="M190 -4c4 36 12.333 71.502 25 106.502l39.5 105c13.667 35 26.167 70 37.5 105s17.666 70.833 18.999 107.5l-72 -7c-20.667 -2 -40 -3.5 -58 -4.5s-36.167 -1.83301 -54.5 -2.5s-38.833 -1 -61.5 -1h-11.5c-5.66699 0 -11.5 0.166992 -17.5 0.5s-11.833 0.5 -17.5 0.5
h-11.5c5.33301 14.667 17.333 26.334 36 35.001s40.5 15.167 65.5 19.5s51.5 7 79.5 8s54 1 78 0s44.333 -2 61 -3s26 -1.5 28 -1.5c3.33301 15.333 9 33.333 17 54s17 42.5 27 65.5l31 70.5c10.667 24 20.334 47.333 29.001 70s15.5 44 20.5 64s6.83301 37.667 5.5 53
c-75.333 -2.66699 -150.333 -2.83398 -225 -0.500977s-149.334 7.16602 -224.001 14.499c-6 3.33301 -10 6.5 -12 9.5s-3 7.16699 -3 12.5s1 9.5 3 12.5s6 6.16699 12 9.5c36.667 -6 78 -10.167 124 -12.5s92.333 -3.83301 139 -4.5s91.834 -0.666992 135.501 0
s82.167 1.66699 115.5 3c4 -37.333 -0.333008 -73.5 -13 -108.5s-27.834 -69.667 -45.501 -104s-34.334 -69 -50.001 -104s-24.5 -70.833 -26.5 -107.5c24.667 0 44.5 0.333008 59.5 1s27.5 1.16699 37.5 1.5s18.833 0.5 26.5 0.5s16.834 -0.5 27.501 -1.5
s24.334 -2.5 41.001 -4.5s39 -5 67 -9v-29h-276c-20 -16 -36.5 -39 -49.5 -69s-24 -62.167 -33 -96.5s-16.833 -68.833 -23.5 -103.5s-14.334 -65.167 -23.001 -91.5s-19.167 -45.833 -31.5 -58.5s-28.166 -14.334 -47.499 -5.00098z" />
    <glyph glyph-name="eight" unicode="8" horiz-adv-x="522" 
d="M7 203c0 27.333 7.16992 54.8291 21.5029 82.4961s32 54.167 53 79.5s43.167 49 66.5 71l62 57l-35 54c-13.333 20 -26 41 -38 63s-22.333 44 -31 66s-13 43 -13 63c0 22.667 6.33301 42.334 19 59.001s28.334 30.334 47.001 41.001s39 18.5 61 23.5s42.667 7.5 62 7.5
c14.667 0 31.167 -1 49.5 -3s35.833 -6 52.5 -12s30.667 -14.833 42 -26.5s17 -27.5 17 -47.5c0 -6.66699 -1.33301 -13.5 -4 -20.5s-6.5 -13.167 -11.5 -18.5s-10.667 -9.83301 -17 -13.5s-12.833 -5.5 -19.5 -5.5c-0.666992 0 -1.83398 0.166992 -3.50098 0.5
s-2.83398 0.833008 -3.50098 1.5c7.33301 8.66699 11.833 17 13.5 25s2.5 17 2.5 27c0 14.667 -4.16699 26.334 -12.5 35.001s-18.5 15.167 -30.5 19.5s-25 7 -39 8s-26.667 1.5 -38 1.5c-16 0 -32.5 -2.16699 -49.5 -6.5s-32.667 -11 -47 -20s-26 -20.167 -35 -33.5
s-13.5 -29 -13.5 -47c0 -16 3.16699 -34.167 9.5 -54.5s15 -40 26 -59s23.5 -36.167 37.5 -51.5s29 -26.333 45 -33l39 36l63.5 61c23 22.667 45.167 46.167 66.5 70.5s37.666 45.833 48.999 64.5h3c1.33301 0 2.16602 0.166992 2.49902 0.5s0.833008 0.5 1.5 0.5
c6 0 11.167 -2.16699 15.5 -6.5s6.5 -9.83301 6.5 -16.5v-7c-6 -12 -15.167 -26 -27.5 -42s-26.166 -32.5 -41.499 -49.5l-47 -50.5l-44 -44.5l-34.5 -33c-9.66699 -9 -15.167 -14.167 -16.5 -15.5c38 -88 68.667 -162.667 92 -224s36.166 -111.833 38.499 -151.5
s-7 -69.667 -28 -90s-56.833 -33.5 -107.5 -39.5c-30 0 -61.333 3.83301 -94 11.5s-62.5 19.667 -89.5 36s-49.333 37.333 -67 63s-26.5 56.834 -26.5 93.501zM49.0029 192.996c0 -28.667 6 -52.667 18 -72s27.833 -34.833 47.5 -46.5s41.667 -20 66 -25
s48.833 -7.5 73.5 -7.5c22 0 40.5 2 55.5 6s27 10.5 36 19.5s15.5 21.167 19.5 36.5s6 34.666 6 57.999s-3 48.333 -9 75s-14.167 53 -24.5 79s-22.833 50.5 -37.5 73.5s-30.334 42.833 -47.001 59.5h-3c-1.33301 0 -2.16602 0.166992 -2.49902 0.5s-0.833008 0.5 -1.5 0.5
c-22.667 0 -45.667 -9.66699 -69 -29s-44.5 -42.666 -63.5 -69.999s-34.5 -55.5 -46.5 -84.5s-18 -53.5 -18 -73.5z" />
    <glyph glyph-name="nine" unicode="9" horiz-adv-x="420" 
d="M246 -80c0 54.667 4.5 109.33 13.5 163.997s19 109.167 30 163.5s21.167 108.5 30.5 162.5s14 108 14 162c0 2 -0.166992 5.83301 -0.5 11.5s-0.5 9.16699 -0.5 10.5l-46.5 -34.5c-17 -12.333 -34.5 -23.666 -52.5 -33.999s-36.667 -18.833 -56 -25.5
s-38.333 -10 -57 -10s-34.667 3.66699 -48 11s-24.5 17 -33.5 29s-15.667 25.667 -20 41s-6.5 31 -6.5 47c-2 30.667 6 59.667 24 87s41.167 51 69.5 71s59.333 35.167 93 45.5s65.334 13.833 95.001 10.5s55 -14.666 76 -33.999s32.5 -48.666 34.5 -87.999
c0 -61.333 -4.16699 -127.5 -12.5 -198.5s-18.833 -143 -31.5 -216s-26.667 -144.667 -42 -215l-44 -196.5c-0.666992 -0.666992 -1.83398 -1 -3.50098 -1h-3.5c-8.66699 0 -14.5 4.33301 -17.5 13s-4.5 16.667 -4.5 24zM42 630.996c0 -35.333 9.5 -60.166 28.5 -74.499
s44.5 -21.5 76.5 -21.5c20 0 42.5 6.5 67.5 19.5s48.5 29.167 70.5 48.5s40.5 40.666 55.5 63.999s22.5 45.333 22.5 66c0 23.333 -5.66699 40 -17 50s-30 15 -56 15c-20.667 0 -45.167 -3.66699 -73.5 -11s-55.5 -18 -81.5 -32s-48 -31.333 -66 -52s-27 -44.667 -27 -72z
" />
    <glyph glyph-name="colon" unicode=":" horiz-adv-x="306" 
d="M62 57c0 9.33301 0.665039 20.667 1.99805 34s4.16602 26.166 8.49902 38.499s10.333 22.833 18 31.5s17.834 13 30.501 13c7.33301 0 16.833 -2 28.5 -6s22.834 -9.33301 33.501 -16s19.834 -14.5 27.501 -23.5s11.5 -18.167 11.5 -27.5
c0 -10.667 -3.16699 -21.834 -9.5 -33.501s-14.5 -22.5 -24.5 -32.5s-21 -18.333 -33 -25s-23.333 -10 -34 -10c-6 0 -12.5 1.83301 -19.5 5.5s-13.333 8.33398 -19 14.001s-10.5 11.834 -14.5 18.501s-6 13 -6 19zM89.998 454.001c0 10.667 1.16699 21.833 3.5 33.5
s6.33301 22.167 12 31.5s13.167 17.166 22.5 23.499s21 9.5 35 9.5c10 0 19.5 -2 28.5 -6s17 -9.5 24 -16.5s12.5 -14.833 16.5 -23.5s6 -18 6 -28c0 -5.33301 -2.66699 -13.333 -8 -24s-11.666 -21.5 -18.999 -32.5s-15.333 -21 -24 -30s-16.334 -13.833 -23.001 -14.5
c-16.667 -3.33301 -30 -3.33301 -40 0s-17.5 8.83301 -22.5 16.5s-8.16699 16.834 -9.5 27.501s-2 21.667 -2 33z" />
    <glyph glyph-name="semicolon" unicode=";" horiz-adv-x="275" 
d="M146 -338c0 1.33301 2.83203 4.49902 8.49902 9.49902s12.167 10.167 19.5 15.5s14 10.5 20 15.5s9.66699 8.16699 11 9.5c-8 2.66699 -18.667 5.33398 -32 8.00098s-26.166 6.5 -38.499 11.5s-23 11.667 -32 20s-13.5 19.5 -13.5 33.5c0 12 2.83301 24.833 8.5 38.5
s13.334 26.334 23.001 38.001s20.5 21.334 32.5 29.001s24.333 11.5 37 11.5c17.333 0 30.166 -3.83301 38.499 -11.5s14.166 -17.334 17.499 -29.001s4.83301 -24.334 4.5 -38.001s-0.5 -26.5 -0.5 -38.5v-14.5c0 -7 -0.166992 -14.333 -0.5 -22l-1 -22
c-0.333008 -7 -0.5 -11.833 -0.5 -14.5l-15 -25c-5.33301 -8.66699 -11.5 -16.5 -18.5 -23.5s-14.833 -12.667 -23.5 -17s-18.667 -6.5 -30 -6.5c-5.33301 0 -9.16602 2.66699 -11.499 8s-3.5 10 -3.5 14zM92.999 158.999c0 6.66699 0.5 15.3359 1.5 26.0029s3 21.5 6 32.5
s7.5 20.667 13.5 29s13.667 13.166 23 14.499c10 1.33301 21 1 33 -1s23 -5.83301 33 -11.5s18.5 -12.834 25.5 -21.501s10.5 -19.334 10.5 -32.001c0 -11.333 -2.33301 -22.5 -7 -33.5s-11 -21 -19 -30s-17.333 -16.333 -28 -22s-22 -8.5 -34 -8.5
c-38.667 0 -58 19.333 -58 58z" />
    <glyph glyph-name="less" unicode="&#x3c;" horiz-adv-x="667" 
d="M22 304c0 1.33301 -0.169922 3.83203 -0.50293 7.49902s-0.5 6.16699 -0.5 7.5c-5.33301 16.667 -5.16602 30.834 0.500977 42.501s15.334 22 29.001 31s30.667 17.333 51 25l67 26c24.333 9.66699 50 20.667 77 33s53.833 27.5 80.5 45.5l23.5 13l56 31.5l66.5 38
l57 33.5c6.66699 4 13.334 8.5 20.001 13.5s13.667 9.66699 21 14s14.833 8.16602 22.5 11.499s15.5 5 23.5 5c1.33301 0 3.83301 -0.166992 7.5 -0.5s6.16699 -0.5 7.5 -0.5l-15 -29c-6.66699 -12.667 -21.834 -27.667 -45.501 -45s-52.167 -35.833 -85.5 -55.5
s-69.666 -40 -108.999 -61l-115.5 -60.5l-104.5 -54c-32 -16.667 -57.333 -31 -76 -43c7.33301 -11.333 21 -23.166 41 -35.499s44 -24.833 72 -37.5s58.667 -25.5 92 -38.5l101 -40.5c34 -14 67 -28.333 99 -43s60.333 -29.667 85 -45s44.667 -31 60 -47
s23.333 -32.667 24 -50c-30.667 0 -64 5.33301 -100 16s-73.333 24.667 -112 42s-77.667 36.833 -117 58.5s-77.333 44 -114 67l-103.5 67z" />
    <glyph glyph-name="equal" unicode="=" horiz-adv-x="775" 
d="M17 213c120.667 0 240.168 2.99707 358.501 8.99707s237.5 9 357.5 9h6c2 -2 5 -6.66699 9 -14s6 -12.333 6 -15c0 -2 -2 -4.83301 -6 -8.5s-7 -5.5 -9 -5.5c-30.667 -3.33301 -64.834 -6.66602 -102.501 -9.99902s-76 -6.33301 -115 -9s-77.333 -5 -115 -7
s-71.834 -3 -102.501 -3c-3.33301 0 -10.5 0.333008 -21.5 1s-24 1.5 -39 2.5s-30.833 2 -47.5 3s-32.5 2 -47.5 3s-28.167 2 -39.5 3s-18.666 1.5 -21.999 1.5c-6.66699 0.666992 -14 1.33398 -22 2.00098s-15.5 2.33398 -22.5 5.00098s-13 6.5 -18 11.5
s-7.5 12.167 -7.5 21.5zM493.001 491.997c7.33301 0 17.501 0.494141 30.501 1.49414s27.167 1.83301 42.5 2.5s30.833 0.833984 46.5 0.500977s30 -2.16602 43 -5.49902s23.5 -8.66602 31.5 -15.999s12 -17.333 12 -30c-15.333 0 -41 -0.833008 -77 -2.5
s-76.833 -3.16699 -122.5 -4.5s-93.5 -1.66602 -143.5 -0.999023s-96.667 3.33398 -140 8.00098s-80.833 11.834 -112.5 21.501s-51.834 23.167 -60.501 40.5z" />
    <glyph glyph-name="greater" unicode="&#x3e;" horiz-adv-x="578" 
d="M22 29c0 7.33301 10.168 18.001 30.501 32.001s46.333 30.167 78 48.5l104.5 60c38 21.667 74.667 44 110 67s67 46.5 95 70.5s48 47.333 60 70c-14 7.33301 -35.333 17.5 -64 30.5l-95.5 43l-108.5 50.5c-37.333 18 -71.333 36 -102 54s-56.167 35.333 -76.5 52
s-30.833 31.667 -31.5 45c1.33301 0 3.66602 0.166992 6.99902 0.5s5.66602 0.5 6.99902 0.5c15.333 0 39 -6.33301 71 -19s67.333 -28.667 106 -48s78.5 -40.333 119.5 -63s78.333 -44.334 112 -65.001s61.334 -38.5 83.001 -53.5s32.5 -24.167 32.5 -27.5
c0 -1.33301 -0.333008 -3.83301 -1 -7.5s-1 -6.16699 -1 -7.5c-12.667 -14.667 -32.167 -33.667 -58.5 -57l-89 -75.5c-33 -27 -68 -54.167 -105 -81.5s-72.333 -52 -106 -74s-64.5 -40 -92.5 -54s-49.333 -21 -64 -21c-14 0 -21 10 -21 30z" />
    <glyph glyph-name="question" unicode="?" horiz-adv-x="399" 
d="M108 72c5.33301 12 13.6689 20 25.002 24s22.333 6 33 6c4.66699 0 10.334 -0.833008 17.001 -2.5s13.167 -4 19.5 -7s11.666 -6.66699 15.999 -11s6.5 -9.5 6.5 -15.5c0 -19.333 -4 -35.333 -12 -48s-21.667 -19 -41 -19c-6.66699 0 -14.334 2.33301 -23.001 7
s-16.667 10.5 -24 17.5s-12.833 14.833 -16.5 23.5s-3.83398 17 -0.500977 25zM312.003 558c-6 18.667 -14.1699 36.832 -24.5029 54.499s-22.333 32.834 -36 45.501s-28.667 21.5 -45 26.5s-33.5 4.16699 -51.5 -2.5s-36.333 -20.334 -55 -41.001s-37 -50.334 -55 -89.001
c-13.333 20 -19.166 39.667 -17.499 59s8.5 37.166 20.5 53.499s27.833 30.666 47.5 42.999s40.834 21.166 63.501 26.499s45.834 6.83301 69.501 4.5s45 -10.166 64 -23.499s34.667 -32.5 47 -57.5s18.833 -57.167 19.5 -96.5c2.66699 -35.333 -0.5 -65.166 -9.5 -89.499
s-20.667 -46 -35 -65s-30 -36.333 -47 -52s-32.5 -32.167 -46.5 -49.5s-25.167 -36.5 -33.5 -57.5s-10.833 -46.167 -7.5 -75.5l-37 -3c0 33.333 4.16699 61.833 12.5 85.5s18.833 44.834 31.5 63.501s26.167 36 40.5 52s27.833 32.833 40.5 50.5s23.167 37.334 31.5 59.001
s12.5 47.834 12.5 78.501z" />
    <glyph glyph-name="at" unicode="@" horiz-adv-x="971" 
d="M304 14c-78 52 -140.666 111.995 -187.999 179.995s-79.5 141 -96.5 219s-18.667 159.5 -5 244.5s42.5 170.167 86.5 255.5c34.667 50 71 94.667 109 134s79 72.666 123 99.999s92.167 48.333 144.5 63s110.5 22 174.5 22c46.667 0 88.167 -13.333 124.5 -40
s66.833 -60 91.5 -100s43.5 -82.833 56.5 -128.5s19.5 -87.5 19.5 -125.5c0 -68 -15 -130.667 -45 -188s-73.667 -105 -131 -143c-14 -7.33301 -26.167 -11.666 -36.5 -12.999s-22.833 -2 -37.5 -2c-10.667 0 -22.5 2.83301 -35.5 8.5s-25 13 -36 22
s-20.333 19.167 -28 30.5s-11.5 22.333 -11.5 33c-21.333 -18 -46.666 -31 -75.999 -39s-57.166 -9.33301 -83.499 -4s-48.5 18.333 -66.5 39s-26.333 51 -25 91c-0.666992 44.667 9.5 80.834 30.5 108.501s46.667 45.667 77 54s62.166 7.16602 95.499 -3.50098
s62.666 -32 87.999 -64c-0.666992 -10 -1.83398 -22.833 -3.50098 -38.5s-2.66699 -32 -3 -49s0.333984 -34.167 2.00098 -51.5s5.5 -33 11.5 -47s14.5 -25.333 25.5 -34s25.833 -13 44.5 -13c24.667 0 47 5.33301 67 16s38 24.667 54 42s29.833 37.333 41.5 60
s21.334 46 29.001 70s13.334 47.667 17.001 71s5.5 45 5.5 65c0 46.667 -8 89.334 -24 128.001s-38 72 -66 100s-61 49.667 -99 65s-79 23 -123 23c-72 0 -135.833 -10.833 -191.5 -32.5s-103.834 -51.5 -144.501 -89.5s-74.5 -82.5 -101.5 -133.5s-48 -105.667 -63 -164
s-24.833 -118.666 -29.5 -180.999s-4.66699 -123.5 0 -183.5c12 -45.333 29 -89 51 -131s49 -79 81 -111s69 -57.667 111 -77s89 -29 141 -29c64.667 0 119.667 16.333 165 49s79.666 79.334 102.999 140.001h20c-4 -52.667 -21.167 -96 -51.5 -130
s-67.333 -59.667 -111 -77s-90.334 -26.666 -140.001 -27.999s-95.5 4.33398 -137.5 17.001zM372.001 680.995c-3.33301 -14 -3.33008 -27.334 0.00292969 -40.001s9 -23.667 17 -33s18 -16.666 30 -21.999s25 -8 39 -8c17.333 0 32 4.66699 44 14s21.667 21 29 35
s12.666 29.167 15.999 45.5s5 31.5 5 45.5c0 12 -0.833008 23.667 -2.5 35s-4.83398 21.333 -9.50098 30s-11.5 15.667 -20.5 21s-20.5 8 -34.5 8c-18.667 0 -35 -3.66699 -49 -11s-25.833 -17.166 -35.5 -29.499s-16.834 -26.333 -21.501 -42s-7 -31.834 -7 -48.501z" />
    <glyph glyph-name="A" unicode="A" horiz-adv-x="978" 
d="M21 349c0 36 2.66797 74.8379 8.00098 116.505s14.166 83.5 26.499 125.5s28 82.333 47 121s42.167 73 69.5 103s58.833 54 94.5 72s76.5 27 122.5 27c22 2 45 -1 69 -9s46 -19.833 66 -35.5s36.667 -34.5 50 -56.5s20.666 -45.667 21.999 -71
c0 -26 -1.33301 -52.833 -4 -80.5s-5.5 -55.334 -8.5 -83.001s-5.83301 -55.334 -8.5 -83.001s-4 -54.834 -4 -81.501c0 -22 1 -46.333 3 -73s5.66699 -53.334 11 -80.001s12.833 -52.334 22.5 -77.001s22.167 -46.5 37.5 -65.5s34 -34.333 56 -46s48 -17.5 78 -17.5
c20 0 38.667 6 56 18s32.5 27.167 45.5 45.5s23.167 38.166 30.5 59.499s11 41.333 11 60s-4.5 34.834 -13.5 48.501s-20.5 24.667 -34.5 33s-29.667 13.666 -47 15.999s-34.333 1.5 -51 -2.5c6.66699 12 17 22.333 31 31s27.667 13 41 13c18 0 33.5 -4.5 46.5 -13.5
s23.667 -20.333 32 -34s14.5 -28.5 18.5 -44.5s6 -31 6 -45c3.33301 -30 1 -57.833 -7 -83.5s-20 -48.334 -36 -68.001s-35.167 -35.667 -57.5 -48s-45.833 -20.333 -70.5 -24s-50 -2.33398 -76 3.99902s-50.333 18.833 -73 37.5
c-15.333 19.333 -28.166 40.166 -38.499 62.499s-19.333 45.333 -27 69s-14.334 47.667 -20.001 72l-16.5 71.5c-14.667 -19.333 -26.5 -41.666 -35.5 -66.999l-27 -77.5c-9 -26.333 -19 -51.833 -30 -76.5s-25.5 -46.167 -43.5 -64.5s-40.5 -32.166 -67.5 -41.499
s-61.167 -11.666 -102.5 -6.99902c-25.333 0 -48 6.33301 -68 19s-37.5 29 -52.5 49s-27.667 42.833 -38 68.5s-18.666 51.334 -24.999 77.001s-11 50.5 -14 74.5s-4.5 44.667 -4.5 62zM50.001 387.005c0 -18 0.998047 -38.8281 2.99805 -62.4951
s5.33301 -47.834 10 -72.501s11.334 -48.834 20.001 -72.501s19.5 -44.667 32.5 -63s28.833 -33.166 47.5 -44.499s40.334 -17 65.001 -17c37.333 -5.33301 70.666 3.66699 99.999 27s55.5 55.166 78.5 95.499s42.667 86.333 59 138s30 103.5 41 155.5
s19.5 101.167 25.5 147.5s10 84.166 12 113.499c2.66699 11.333 1 25 -5 41s-15.5 31.167 -28.5 45.5s-29.167 26.833 -48.5 37.5s-40.333 16 -63 16c-39.333 0 -75.166 -7.33301 -107.499 -22s-61.5 -34.334 -87.5 -59.001s-48.667 -53.334 -68 -86.001
s-35.333 -67 -48 -103s-22.167 -72.5 -28.5 -109.5s-9.5 -72.167 -9.5 -105.5z" />
    <glyph glyph-name="B" unicode="B" horiz-adv-x="754" 
d="M14 217c8 34 23.001 59 45.001 75s46 20.333 72 13c7.33301 0 14 -1.5 20 -4.5s9 -8.83301 9 -17.5s-2.83301 -15.5 -8.5 -20.5s-12.667 -9.16699 -21 -12.5s-17.166 -6.66602 -26.499 -9.99902s-17.833 -7.66602 -25.5 -12.999s-13.667 -12.166 -18 -20.499
s-5.5 -19.166 -3.5 -32.499c4.66699 -30.667 19.334 -54.834 44.001 -72.501s53.167 -31 85.5 -40s65.166 -14.667 98.499 -17s61 -3.5 83 -3.5c17.333 0 37.166 1.83301 59.499 5.5s45.166 9.33398 68.499 17.001s46 17 68 28s41.667 24.167 59 39.5
s31.333 32.666 42 51.999s16 40.666 16 63.999c0 28.667 -6.66699 54.667 -20 78s-30.5 43.166 -51.5 59.499s-44.5 29 -70.5 38s-51.333 13.5 -76 13.5c-4.66699 0 -13.667 -0.166992 -27 -0.5s-27.166 -1.5 -41.499 -3.5s-27 -5 -38 -9s-16.5 -9.66699 -16.5 -17v-276
c0 -6.66699 -3 -13.334 -9 -20.001s-12.667 -10 -20 -10s-12.5 3.16699 -15.5 9.5s-5.16699 13.166 -6.5 20.499c0.666992 16.667 1.33398 42 2.00098 76s1.5 72.333 2.5 115s2 87.834 3 135.501s2 92.834 3 135.501s1.83301 81 2.5 115s1.33398 59.333 2.00098 76v10.5
c0 5 -0.166992 10.167 -0.5 15.5s-0.5 10.666 -0.5 15.999v11c-12.667 0 -30.667 -1.33301 -54 -4s-46.5 -7.66699 -69.5 -15s-43.667 -17.333 -62 -30s-28.833 -28.667 -31.5 -48c0 2.66699 -0.166992 8.66699 -0.5 18s-0.5 15.333 -0.5 18c0 20 7.16699 37.333 21.5 52
s32.666 27 54.999 37s47.5 18.333 75.5 25s55.5 11.667 82.5 15s52 5.66602 75 6.99902s41.167 2 54.5 2c20 0 42.667 -3.5 68 -10.5s49 -17.333 71 -31s40.667 -30.167 56 -49.5s23 -41 23 -65c0 -30 -1.5 -58 -4.5 -84s-8.83301 -50.167 -17.5 -72.5
s-20.5 -43.666 -35.5 -63.999s-34.833 -39.833 -59.5 -58.5c18.667 -6 38.334 -16 59.001 -30s39.667 -30.333 57 -49s31.5 -38.667 42.5 -60s16.5 -41.666 16.5 -60.999c0 -49.333 -11.333 -91.5 -34 -126.5s-51.834 -64 -87.501 -87s-75.834 -39.833 -120.501 -50.5
s-89 -16 -133 -16c-34.667 0 -71.334 3.16699 -110.001 9.5s-74.5 17.833 -107.5 34.5s-60.5 39.167 -82.5 67.5s-34 64.166 -36 107.499zM387.001 856l-15.5 -0.00195312c-5 0 -9.33301 -0.666992 -13 -2s-6.5 -4.16602 -8.5 -8.49902s-3 -10.833 -3 -19.5v-351
c34.667 0 68.667 5.33301 102 16s63 26 89 46s47 44.5 63 73.5s24 62.167 24 99.5c-4.66699 26.667 -13.5 48.667 -26.5 66s-29.833 31.333 -50.5 42s-44.5 18.834 -71.5 24.501s-56.833 10.167 -89.5 13.5z" />
    <glyph glyph-name="C" unicode="C" horiz-adv-x="701" 
d="M22 460c0 54.667 10.1729 107.006 30.5059 157.006s48.166 94.167 83.499 132.5s77.333 69 126 92s101 34.5 157 34.5c39.333 0 74.833 -7.33301 106.5 -22s58.5 -34.5 80.5 -59.5s39 -54 51 -87s18 -67.833 18 -104.5c0 -20.667 -5 -38.334 -15 -53.001
s-22.833 -26.834 -38.5 -36.501s-32.834 -16.667 -51.501 -21s-37 -6.5 -55 -6.5c0 12 3.16699 21.5 9.5 28.5s14.5 13.167 24.5 18.5s20.5 10.166 31.5 14.499s21.5 9.5 31.5 15.5s18.167 13.5 24.5 22.5s9.5 20.833 9.5 35.5c0 30 -6 57.333 -18 82
s-27.833 45.667 -47.5 63s-42.167 30.666 -67.5 39.999s-51.666 14 -78.999 14c-54 0 -103.667 -8.5 -149 -25.5s-84.333 -41.333 -117 -73s-58.167 -69.834 -76.5 -114.501s-27.5 -94.667 -27.5 -150c0 -29.333 3 -60 9 -92s14.833 -63.5 26.5 -94.5
s26.167 -60.5 43.5 -88.5s37.666 -52.5 60.999 -73.5s49.666 -37.667 78.999 -50s61.333 -18.5 96 -18.5c6 0 16.167 2.16699 30.5 6.5s30.666 10 48.999 17s37.5 14.833 57.5 23.5s38.5 17.334 55.5 26.001s31.167 17.167 42.5 25.5s18 15.166 20 20.499
c2 -2 4.66699 -4.83301 8 -8.5s6.5 -7.66699 9.5 -12s5.5 -8.5 7.5 -12.5s2.66699 -7 2 -9c-2.66699 -7.33301 -10.834 -15.333 -24.501 -24s-30.167 -17.334 -49.5 -26.001s-40.333 -17 -63 -25s-44.334 -15.167 -65.001 -21.5s-39.167 -11.333 -55.5 -15
s-27.833 -5.5 -34.5 -5.5c-36 0 -69.5 7 -100.5 21s-59.5 33 -85.5 57s-48.833 51.5 -68.5 82.5s-36.5 63.5 -50.5 97.5s-24.5 68.333 -31.5 103s-10.5 67.667 -10.5 99z" />
    <glyph glyph-name="D" unicode="D" horiz-adv-x="870" 
d="M849 515c6 -58 0.15918 -111.339 -17.5078 -160.006s-43.5 -92.5 -77.5 -131.5s-74 -73 -120 -102s-94.167 -52.833 -144.5 -71.5s-101 -32 -152 -40s-98 -10.5 -141 -7.5s-80.5 11.833 -112.5 26.5s-54.167 35.334 -66.5 62.001s-13.166 59.5 -2.49902 98.5
s37 84.167 79 135.5c4 0.666992 10.5 0.166992 19.5 -1.5s17.167 -4.33398 24.5 -8.00098s13 -7.83398 17 -12.501s3 -9 -3 -13c-8 -4 -18 -11.167 -30 -21.5s-23.333 -22 -34 -35s-19.834 -26.333 -27.501 -40s-11.5 -26.5 -11.5 -38.5c0 -24.667 5.5 -44 16.5 -58
s25.167 -24.167 42.5 -30.5s36.833 -9.83301 58.5 -10.5s43.334 -0.166992 65.001 1.5s42.334 3.83398 62.001 6.50098s35.834 4 48.501 4c0 64 2.66699 127.5 8 190.5s11 126 17 189s11 125.833 15 188.5s4.66699 126 2 190c4.66699 10.667 12.334 16 23.001 16
c4.66699 0 8.33398 -1.5 11.001 -4.5s4.66699 -6.83301 6 -11.5s2.16602 -9.66699 2.49902 -15s0.833008 -10 1.5 -14v-10c0 -6 0.166992 -13.167 0.5 -21.5s0.5 -16.666 0.5 -24.999v-20.5c0 -110 -5.66699 -220.5 -17 -331.5s-25.333 -221.167 -42 -330.5
c0.666992 0 1.83398 -0.166992 3.50098 -0.5s2.83398 -0.5 3.50098 -0.5c58.667 8 114 25 166 51s97.667 58.333 137 97s70.333 82.167 93 130.5s33.667 98.5 33 150.5c4.66699 62.667 -5.16602 118.5 -29.499 167.5s-57.5 90.167 -99.5 123.5s-89.5 58.166 -142.5 74.499
s-105.833 22.833 -158.5 19.5c-22 0 -42.833 -2.66699 -62.5 -8s-38.667 -11.166 -57 -17.499s-36.666 -12.166 -54.999 -17.499s-36.833 -8 -55.5 -8c0 18.667 4.66699 33.834 14 45.501s21.333 21 36 28s31.167 12 49.5 15s36.666 4.83301 54.999 5.5
s35.5 0.833984 51.5 0.500977s29.333 -0.5 40 -0.5c56.667 0 112.334 -9.16699 167.001 -27.5s103.5 -44.666 146.5 -78.999s77.667 -76.166 104 -125.499s39.5 -105 39.5 -167z" />
    <glyph glyph-name="E" unicode="E" horiz-adv-x="572" 
d="M333 0l-109.002 23.5c-38 8.33301 -72.333 20.833 -103 37.5s-55.167 38.667 -73.5 66s-25.166 63.666 -20.499 108.999c-0.666992 28.667 3.5 55.667 12.5 81s21.5 48.833 37.5 70.5s34.833 41.334 56.5 59.001s44.5 33.167 68.5 46.5
c-23.333 14.667 -45.666 30.834 -66.999 48.501s-40 37 -56 58s-28.667 43.667 -38 68s-14 50.5 -14 78.5c0 29.333 7.16699 58.333 21.5 87s33.166 54.334 56.499 77.001s49.833 41 79.5 55s59.834 21 90.501 21c20 0 40 -2.5 60 -7.5s36.667 -12.167 50 -21.5
s21.666 -20.666 24.999 -33.999s-2 -28.333 -16 -45c-10 0 -18.667 3.33301 -26 10s-15 14.167 -23 22.5s-17.167 15.833 -27.5 22.5s-22.833 10 -37.5 10c-21.333 0 -45 -5.33301 -71 -16s-50.333 -24.667 -73 -42s-41.667 -37.333 -57 -60s-23 -46 -23 -70
c-0.666992 -32.667 4.66602 -61.5 15.999 -86.5s26.833 -46.833 46.5 -65.5s42.334 -34.334 68.001 -47.001s52.334 -22.5 80.001 -29.5s54.834 -11.5 81.501 -13.5s51.334 -1.66699 74.001 1c0 -6 0.5 -11.167 1.5 -15.5s1.5 -8.5 1.5 -12.5s-1.33301 -7.5 -4 -10.5
s-7.33398 -5.83301 -14.001 -8.5c-40.667 3.33301 -81 1.33301 -121 -6s-76 -20.833 -108 -40.5s-57.833 -45.334 -77.5 -77.001s-29.5 -70.167 -29.5 -115.5c0 -35.333 9 -64.166 27 -86.499s40.667 -39.833 68 -52.5s57.166 -21.334 89.499 -26.001s62.833 -7 91.5 -7
c17.333 0 34 1.66699 50 5s31.5 7 46.5 11s30.167 7.66699 45.5 11s31 5 47 5c9.33301 0 16.833 -0.833008 22.5 -2.5s12.5 -6.16699 20.5 -13.5c13.333 -8 14 -16 2 -24s-31 -15.5 -57 -22.5s-56.333 -12.833 -91 -17.5s-68 -7.33398 -100 -8.00098z" />
    <glyph glyph-name="F" unicode="F" horiz-adv-x="645" 
d="M-116 -203c-3.33301 8 -2.16406 15.1631 3.50293 21.4961s11.834 9.5 18.501 9.5c7.33301 0 13.333 -1.66699 18 -5s9.16699 -7.16602 13.5 -11.499s9.5 -8.16602 15.5 -11.499s14 -5 24 -5c37.333 0 67.833 11.333 91.5 34s42.167 51.667 55.5 87s22.5 74.5 27.5 117.5
s8 85 9 126s0.833008 78.333 -0.5 112s-1.66602 59.167 -0.999023 76.5v22h-130c-4.66699 0 -8.33398 3.83301 -11.001 11.5s-4 13.834 -4 18.501v6c10.667 6.66699 22 11 34 13s24 2.83301 36 2.5s24 -1.33301 36 -3s23.333 -2.5 34 -2.5c0 42 -2.83301 82.5 -8.5 121.5
s-11.667 76.333 -18 112l-18 101.5c-5.66699 32 -8.5 62 -8.5 90c0 8 6.33301 14.667 19 20s29.667 10 51 14s45.5 7 72.5 9s55 3.5 84 4.5s57.5 1.66699 85.5 2s53.667 0.333008 77 0s43 -0.666016 59 -0.999023s26.333 -0.5 31 -0.5v-19c0 -5.33301 -10 -9 -30 -11
s-45.167 -3.16699 -75.5 -3.5s-63.166 -0.833008 -98.499 -1.5s-68.166 -2.33398 -98.499 -5.00098s-55.5 -7.16699 -75.5 -13.5s-30 -15.5 -30 -27.5c0 -30 2 -60.667 6 -92s8.5 -62.833 13.5 -94.5l15 -94.5c5 -31.333 8.5 -62 10.5 -92h15
c32.667 0 65.334 2.5 98.001 7.5s65.167 10.667 97.5 17s64.666 12 96.999 17s65.166 7.5 98.499 7.5v-49c0 -0.666992 -8.33301 -2 -25 -4l-63.5 -7.5l-83.5 -9.5l-85.5 -9.5l-69.5 -8c-19.333 -2.33301 -31 -3.83301 -35 -4.5c-2 -0.666992 -5.83301 -1.66699 -11.5 -3
l-17.5 -4c-6 -1.33301 -11.833 -2.83301 -17.5 -4.5s-9.5 -2.83398 -11.5 -3.50098c-0.666992 -31.333 -0.333984 -68.666 0.999023 -111.999s1.16602 -88.166 -0.500977 -134.499s-6.33398 -92 -14.001 -137s-20.667 -85.333 -39 -121s-43.333 -64.5 -75 -86.5
s-72.5 -33 -122.5 -33c-8 0 -15.333 0.166992 -22 0.5s-12.834 2 -18.501 5s-10.834 7.33301 -15.501 13s-9 14.167 -13 25.5z" />
    <glyph glyph-name="G" unicode="G" horiz-adv-x="601" 
d="M57 -253c0 16.667 6.00195 33.332 18.002 49.999s26.5 31.667 43.5 45s35.167 24 54.5 32s36.666 12 51.999 12c7.33301 0 16.5 -1 27.5 -3s21.667 -5 32 -9s19.166 -9.33301 26.499 -16s11 -14.667 11 -24c-2 -18 -5.33301 -30 -10 -36s-10.5 -8.5 -17.5 -7.5
s-14.833 4.33301 -23.5 10s-18.167 11.167 -28.5 16.5s-21.333 9.33301 -33 12s-23.5 1.66699 -35.5 -3c-12 -2 -22.5 -6.83301 -31.5 -14.5s-16.833 -16.834 -23.5 -27.501s-11.667 -22 -15 -34s-5 -23.333 -5 -34c0 -20.667 6.66699 -37.834 20 -51.501
s29.666 -24.667 48.999 -33s39.5 -14.333 60.5 -18s39.167 -5.5 54.5 -5.5c52 0 94.5 8 127.5 24s59 38 78 66s32 61 39 99s10.5 79 10.5 123v98c0 35.333 -5.33301 68 -16 98c-8 -10 -19.667 -22.333 -35 -37s-32 -28.834 -50 -42.501s-36.167 -25.5 -54.5 -35.5
s-34.833 -15 -49.5 -15c-54 0 -100.333 10 -139 30s-70.334 46.833 -95.001 80.5s-42.834 72.834 -54.501 117.501s-17.5 91.667 -17.5 141c0 33.333 3.5 70 10.5 110s17.333 80.167 31 120.5s30.667 79.333 51 117s44.166 71.167 71.499 100.5s57.833 52.833 91.5 70.5
s70.834 26.5 111.501 26.5c19.333 0 38.5 -3.5 57.5 -10.5s36 -16.667 51 -29s27.167 -27 36.5 -44s14 -35.833 14 -56.5c-15.333 0 -27.833 5 -37.5 15s-19 21.167 -28 33.5s-19.167 23.5 -30.5 33.5s-26.333 15 -45 15c-37.333 0 -72 -8 -104 -24
s-61.167 -37.167 -87.5 -63.5s-49.666 -56.666 -69.999 -90.999s-37.5 -70.166 -51.5 -107.499s-24.5 -74.666 -31.5 -111.999s-10.5 -72 -10.5 -104c5.33301 -39.333 14.333 -76.333 27 -111s28.834 -65.667 48.501 -93s42.167 -50.333 67.5 -69s53 -32 83 -40
c27.333 0 52.333 5.5 75 16.5s43.334 24.5 62.001 40.5s35.334 33.667 50.001 53l39 53l29 40.5c8 11 14.667 16.5 20 16.5c0 -0.666992 0.333008 -1 1 -1h3h3l15.5 -150.5c5.66699 -53 8.66699 -105.5 9 -157.5s-3.66699 -101.667 -12 -149s-24 -89.5 -47 -126.5
s-55 -66.833 -96 -89.5s-94.167 -35 -159.5 -37c-23.333 -2 -48.5 1.5 -75.5 10.5s-51.833 22.167 -74.5 39.5s-40.834 38.5 -54.501 63.5s-18.167 52.5 -13.5 82.5z" />
    <glyph glyph-name="H" unicode="H" horiz-adv-x="957" 
d="M515 361c0 20 2.33203 41.499 6.99902 64.499s7 45.5 7 67.5c-9.33301 0 -24.333 0.5 -45 1.5s-43.834 1.83301 -69.501 2.5s-52.667 1.66699 -81 3s-55.333 2.33301 -81 3s-48.667 1.33398 -69 2.00098s-35.5 1.33398 -45.5 2.00098h-9h-6
c-8 -17.333 -14.167 -38.833 -18.5 -64.5s-7.33301 -53.5 -9 -83.5s-2.66699 -61.167 -3 -93.5s-0.5 -63.666 -0.5 -93.999s-0.333008 -59 -1 -86s-2.33398 -49.833 -5.00098 -68.5c-2.66699 -7.33301 -6.66699 -11.833 -12 -13.5s-11.333 -2.5 -18 -2.5
c-8.66699 0 -15.5 1.66699 -20.5 5s-7.5 11.666 -7.5 24.999c0 68 3.66699 140.167 11 216.5l23 231.5c8 78 14.333 155.333 19 232s4.33398 149 -0.999023 217c2 4.66699 5.5 8.66699 10.5 12s10.333 6.16602 16 8.49902s11.334 4.16602 17.001 5.49902
s10.5 2.33301 14.5 3v-8c0 -25.333 -1.5 -50.666 -4.5 -75.999s-6.5 -50.5 -10.5 -75.5s-7.5 -50.167 -10.5 -75.5s-4.5 -51 -4.5 -77v-16c0 -7.33301 0.166992 -15.333 0.5 -24s0.5 -16.834 0.5 -24.501v-15.5c44.667 -9.33301 87.834 -14.333 129.501 -15
s85.5 -1 131.5 -1c5.33301 0 14.833 0.166992 28.5 0.5s28.334 0.5 44.001 0.5s30.334 0.166992 44.001 0.5s23.167 0.5 28.5 0.5c14 -2 25.833 5.66699 35.5 23s18 39.666 25 66.999s13.167 57.5 18.5 90.5s10.833 64 16.5 93s12 54 19 75s15.833 33.167 26.5 36.5
c8.66699 -2 15.5 -1.83301 20.5 0.5s7.5 0.166016 7.5 -6.50098c0 -51.333 -5.83301 -103.166 -17.5 -155.499s-24.667 -105 -39 -158s-27.333 -106.333 -39 -160s-17.5 -106.834 -17.5 -159.501c-4.66699 -34 -0.666992 -66.5 12 -97.5s30 -58.167 52 -81.5
s46.833 -41.666 74.5 -54.999s54.167 -19.5 79.5 -18.5s47.666 10.167 66.999 27.5s31.666 45 36.999 83c-11.333 22.667 -23.166 37 -35.499 43s-23.5 8.83301 -33.5 8.5s-18.167 -1 -24.5 -2s-9.5 3.16699 -9.5 12.5c0 13.333 2.5 21.833 7.5 25.5s11.833 5.5 20.5 5.5
c13.333 0 27 -3.16699 41 -9.5s26.667 -14.666 38 -24.999s20.666 -22 27.999 -35s11 -26.5 11 -40.5c0 -24 -4.83301 -44.667 -14.5 -62s-22.5 -31.666 -38.5 -42.999s-34 -19.833 -54 -25.5s-40.333 -8.5 -61 -8.5c-50 0 -91.333 11 -124 33s-58.5 50.333 -77.5 85
s-32.333 73.5 -40 116.5s-11.5 85.5 -11.5 127.5z" />
    <glyph glyph-name="I" unicode="I" horiz-adv-x="812" 
d="M225 117c27.333 0 53.332 -2.66895 77.999 -8.00195s50 -8 76 -8h5c0.666992 1.33301 1.83398 4.16602 3.50098 8.49902l5 13.5l4.5 13c1.33301 4 2 7 2 9l20.5 192c5.66699 55.333 10.334 107.5 14.001 156.5s6.33398 98 8.00098 147s2.5 103.5 2.5 163.5v27.5
c0 13 -0.166992 26.833 -0.5 41.5s-0.666016 28.5 -0.999023 41.5s-0.5 22.167 -0.5 27.5c-41.333 16.667 -80.666 28.334 -117.999 35.001s-78 10 -122 10c-18 0 -34.833 -1.83301 -50.5 -5.5s-31 -7.5 -46 -11.5l-45 -11.5c-15 -3.66699 -30.833 -5.5 -47.5 -5.5
c0 19.333 7.83301 35 23.5 47s34 21.333 55 28s42.333 11.167 64 13.5s38.834 3.5 51.501 3.5c34.667 0 68.834 -3.83301 102.501 -11.5s67 -16.334 100 -26.001s66.333 -18.334 100 -26.001s68.167 -11.5 103.5 -11.5c14 0 27.667 1.66699 41 5s26.166 6.83301 38.499 10.5
l36 10.5c11.667 3.33301 23.167 5 34.5 5c8 0 14.5 -1.66699 19.5 -5s7.5 -11.666 7.5 -24.999c0 -16 -8.33301 -28.833 -25 -38.5s-35.834 -17 -57.501 -22s-42.834 -8.16699 -63.501 -9.5s-34.667 -2 -42 -2c-10.667 0 -20.834 1.33301 -30.501 4
s-19.167 5.83398 -28.5 9.50098s-18.666 6.83398 -27.999 9.50098s-19 4 -29 4v-13c0 -3.33301 0.833008 -11.333 2.5 -24s3.33398 -26.334 5.00098 -41.001l4.5 -41c1.33301 -12.667 2 -20.667 2 -24c0 -48.667 -2.33301 -97.667 -7 -147s-9.83398 -99 -15.501 -149
s-10.834 -99.833 -15.501 -149.5s-7 -99.5 -7 -149.5c0 -4 0.166992 -11.5 0.5 -22.5s0.5 -22.667 0.5 -35s0.166992 -24 0.5 -35s0.5 -18.833 0.5 -23.5c15.333 -10.667 32.666 -18.167 51.999 -22.5s38 -6.5 56 -6.5s35.5 2.33301 52.5 7s33.833 9.83398 50.5 15.501
s33.334 10.834 50.001 15.501s33.667 7 51 7c6 0 11.167 -2.16699 15.5 -6.5s6.5 -9.83301 6.5 -16.5c0 -14 -9.5 -25.333 -28.5 -34s-41 -15.334 -66 -20.001s-49.5 -7.83398 -73.5 -9.50098s-41.333 -2.5 -52 -2.5c-31.333 0 -61.5 3.83301 -90.5 11.5
s-58 16.334 -87 26.001s-58.167 18.334 -87.5 26.001s-59.333 11.5 -90 11.5c-19.333 0 -36.833 -4 -52.5 -12s-30.667 -17 -45 -27s-28.833 -19 -43.5 -27s-30 -12 -46 -12c0 22 7.16699 40.667 21.5 56s31.666 27.833 51.999 37.5s41.666 16.667 63.999 21
s41.833 6.5 58.5 6.5z" />
    <glyph glyph-name="J" unicode="J" horiz-adv-x="906" 
d="M13 223c11.333 42.667 26.667 75.9951 46 99.9951s40.5 41 63.5 51s46.5 13.667 70.5 11s45.833 -9.66699 65.5 -21s35.834 -26 48.501 -44s19.667 -37.333 21 -58c0 -4.66699 -0.5 -12.334 -1.5 -23.001s-2.66699 -21.667 -5 -33s-5.5 -21.666 -9.5 -30.999
s-9 -14.666 -15 -15.999c-1.33301 0 -4 0.5 -8 1.5s-8.16699 2.16699 -12.5 3.5s-8.66602 3 -12.999 5s-7.5 3.66699 -9.5 5c-2 8 -1.66699 14.5 1 19.5s6.33398 9.66699 11.001 14s8.83398 9.16602 12.501 14.499s5.5 12.333 5.5 21c0 34.667 -6.33301 58.667 -19 72
s-35.667 20 -69 20c-40.667 0 -72.834 -12.167 -96.501 -36.5s-35.5 -57.166 -35.5 -98.499c0 -24.667 6.66699 -46 20 -64s29.833 -33 49.5 -45s41 -20.833 64 -26.5s44.167 -8.5 63.5 -8.5c50.667 0 92.834 13 126.501 39s61 59.833 82 101.5s36.833 89 47.5 142
s18 106.333 22 160s6 105.5 6 155.5v129v20c0 9.33301 -0.166992 19.5 -0.5 30.5s-0.5 21.167 -0.5 30.5v20c-2.66699 8 -16.834 14 -42.501 18s-56.834 6.66699 -93.501 8s-75.834 2.33301 -117.501 3s-80.334 2 -116.001 4s-65.334 5.33301 -89.001 10s-35.5 12 -35.5 22
c0 10.667 3.66699 17 11 19s15 3 23 3c49.333 0 102 -2.33301 158 -7l181 -15.5c64.667 -5.66699 134.5 -11.334 209.5 -17.001s156.5 -9.5 244.5 -11.5c17.333 -13.333 24.333 -22.666 21 -27.999s-13 -8.66602 -29 -9.99902s-36.5 -1 -61.5 1s-50.667 3.83301 -77 5.5
s-51.166 2.5 -74.499 2.5s-41.333 -2.33301 -54 -7c-8.66699 -21.333 -13.667 -50 -15 -86s-1.83301 -76.333 -1.5 -121s0.5 -92 0.5 -142s-2.33301 -99.667 -7 -149s-13.167 -96.333 -25.5 -141s-30.5 -84.167 -54.5 -118.5s-55.333 -61.666 -94 -81.999
s-86.667 -30.5 -144 -30.5c-27.333 0 -55.5 5.33301 -84.5 16s-55.667 25.334 -80 44.001s-44.333 40.834 -60 66.501s-23.5 53.167 -23.5 82.5z" />
    <glyph glyph-name="K" unicode="K" horiz-adv-x="942" 
d="M109 333c0 -6.66699 -0.5 -17.8242 -1.5 -33.4912s-2.33301 -32.334 -4 -50.001s-3.16699 -34.334 -4.5 -50.001s-2 -26.834 -2 -33.501c-0.666992 -10 -1 -23.833 -1 -41.5v-53c0 -17.667 -0.166992 -33 -0.5 -46s-0.833008 -19.5 -1.5 -19.5l-40 3l-32 846
c-0.666992 5.33301 1.83301 9.33301 7.5 12s10.5 4 14.5 4c10 -0.666992 17.833 -11 23.5 -31s10.167 -45.167 13.5 -75.5s5.83301 -63.333 7.5 -99s3.16699 -69.167 4.5 -100.5s3 -58.5 5 -81.5s5.33301 -36.5 10 -40.5c17.333 1.33301 38.166 11 62.499 29
s50.333 40.833 78 68.5l87 91.5l91 98c30.333 32 60 61.333 89 88s55.833 47 80.5 61l20 -38c0 -0.666992 -6.16699 -7.33398 -18.5 -20.001l-48.5 -49.5l-67.5 -68.5l-76.5 -76.5l-75 -73.5l-62 -60c-2 -2.66699 -8 -8.33398 -18 -17.001l-32 -27.5l-32 -27
c-10 -8.33301 -16.333 -13.5 -19 -15.5l-7.5 -7.5l-7.5 -7.5c2 -6.66699 10.833 -12.834 26.5 -18.501l58 -20c23 -7.66699 48 -17 75 -28s53 -25 78 -42s47.5 -37.833 67.5 -62.5s34.333 -54.667 43 -90c6 -23.333 14 -46.166 24 -68.499s22.667 -42.5 38 -60.5
s33.333 -32.5 54 -43.5s44.334 -16.5 71.001 -16.5c21.333 0 42.666 3.16699 63.999 9.5s40.333 15.5 57 27.5s30.167 26.833 40.5 44.5s15.5 38.167 15.5 61.5c0 36 -8.5 62.667 -25.5 80s-44.833 26 -83.5 26c-24.667 0 -44.5 -4.5 -59.5 -13.5s-22.5 -27.167 -22.5 -54.5
c0 -12 1.33301 -21.833 4 -29.5s11.334 -14.5 26.001 -20.5c-2.66699 -8 -6.66699 -12.5 -12 -13.5s-11 -1.5 -17 -1.5c-10 0 -18 3.16699 -24 9.5s-10.333 14 -13 23s-4.33398 18.667 -5.00098 29s-1 19.166 -1 26.499c0 15.333 3.16699 28.666 9.5 39.999
s14.5 20.666 24.5 27.999s21.333 12.833 34 16.5s25.667 5.5 39 5.5c20.667 0 41.167 -2.5 61.5 -7.5s38.5 -12.667 54.5 -23s29 -23.833 39 -40.5s15 -36.667 15 -60c0 -34.667 -6 -64.834 -18 -90.501s-28.333 -47.167 -49 -64.5s-45 -30.333 -73 -39s-58 -13 -90 -13
c-31.333 0 -57.666 5.5 -78.999 16.5s-40 25.833 -56 44.5s-30.5 40 -43.5 64l-41 74.5c-14.333 25.667 -30.666 51.167 -48.999 76.5s-40.833 48.833 -67.5 70.5s-58.834 40.5 -96.501 56.5s-83.167 27 -136.5 33z" />
    <glyph glyph-name="L" unicode="L" horiz-adv-x="942" 
d="M340 275c-4.66699 -17.333 -13.498 -35.5039 -26.498 -54.5039s-28.667 -37 -47 -54s-38.166 -32.5 -59.499 -46.5s-42.5 -25 -63.5 -33s-40.833 -12.167 -59.5 -12.5s-34.334 4.33398 -47.001 14.001s-21.334 25.334 -26.001 47.001s-3.66699 50.834 3 87.501
c22 28 44 50 66 66s43.667 28.667 65 38s42 16.833 62 22.5s38.667 12.167 56 19.5s33.333 17.166 48 29.499s27.167 29.5 37.5 51.5s18.333 50.667 24 86s8.5 80 8.5 134c-12 4.66699 -30 12.5 -54 23.5s-49.667 23.5 -77 37.5s-54.5 29.167 -81.5 45.5
s-49.5 32.5 -67.5 48.5s-29.5 31.167 -34.5 45.5s0.5 26.833 16.5 37.5c7.33301 0 16.666 -4.5 27.999 -13.5s24.5 -20.333 39.5 -34l49 -44c17.667 -15.667 36.667 -30.334 57 -44.001s41.833 -25 64.5 -34s46 -13.5 70 -13.5h7c0 12.667 1.5 29.334 4.5 50.001
s7.66699 42.834 14 66.501s14.166 47.334 23.499 71.001s20.333 44.834 33 63.501s27.167 33.167 43.5 43.5s34.5 13.833 54.5 10.5c33.333 -6.66699 58.333 -16.167 75 -28.5s27 -26.666 31 -42.999s2.66699 -34 -4 -53s-16.667 -38.333 -30 -58s-29 -39 -47 -58
s-36.333 -36.5 -55 -52.5s-36.667 -30.167 -54 -42.5s-32.333 -21.5 -45 -27.5c-2.66699 -48 -5.66699 -88.333 -9 -121s-7 -59.834 -11 -81.501s-8.5 -39 -13.5 -52s-10.333 -24 -16 -33s-11.667 -16.833 -18 -23.5s-12.833 -14.334 -19.5 -23.001
c40.667 -20 74.5 -40.833 101.5 -62.5s50 -42.667 69 -63s35.5 -39.666 49.5 -57.999s28.5 -34.333 43.5 -48s31.833 -24.5 50.5 -32.5s42 -12 70 -12c10.667 0 23.834 1.33301 39.501 4s30.834 7 45.501 13s27.167 14.167 37.5 24.5s15.5 23.166 15.5 38.499
c0 6.66699 -2.33301 12.167 -7 16.5s-10.334 8.16602 -17.001 11.499l-19.5 10c-6.33301 3.33301 -11.166 7.66602 -14.499 12.999c2 9.33301 7 14.333 15 15s15.333 1 22 1c10.667 0 20 -2.5 28 -7.5s14.667 -11.5 20 -19.5s9.5 -17 12.5 -27s4.5 -19.667 4.5 -29
c0 -21.333 -7 -38.833 -21 -52.5s-31 -24.667 -51 -33s-40.667 -14.166 -62 -17.499s-39.333 -5 -54 -5c-30 0.666992 -56 5.66699 -78 15s-42.167 21.333 -60.5 36s-35.833 31.334 -52.5 50.001s-34.5 37.5 -53.5 56.5s-40.333 37.667 -64 56s-51.834 34.5 -84.501 48.5z
M268.002 274.996c-13.333 11.333 -30 16.835 -50 16.502s-40 -4.83301 -60 -13.5s-38.333 -19.834 -55 -33.501s-28.5 -27.834 -35.5 -42.501s-7.33301 -28.667 -1 -42s22.5 -23.666 48.5 -30.999c16 0 33 4.33301 51 13s34.5 20 49.5 34s27.5 29.667 37.5 47
s15 34.666 15 51.999zM588.002 986.998c-15.333 0.666992 -29.666 -4.16797 -42.999 -14.501s-25.833 -23.5 -37.5 -39.5s-22 -33.667 -31 -53s-16.5 -38 -22.5 -56s-10.167 -34.333 -12.5 -49s-2.5 -25 -0.5 -31c18.667 0 39 5.66699 61 17s42.667 25.833 62 43.5
s35.5 36.834 48.5 57.501s19.5 40.667 19.5 60c0 6.66699 -0.666992 13.834 -2 21.501s-3.83301 14.667 -7.5 21s-8.33398 11.666 -14.001 15.999s-12.5 6.5 -20.5 6.5z" />
    <glyph glyph-name="M" unicode="M" horiz-adv-x="1051" 
d="M642 668c-22 9.33301 -42.1631 9.50391 -60.4961 0.503906s-35.333 -24.5 -51 -46.5s-29.834 -49.167 -42.501 -81.5s-24.167 -67 -34.5 -104s-19.333 -75 -27 -114s-14.334 -76.333 -20.001 -112s-10.334 -68.167 -14.001 -97.5s-6.5 -52.666 -8.5 -69.999
c-5.33301 -10 -12.666 -15 -21.999 -15c-6 0 -11.167 6 -15.5 18s-8 25.167 -11 39.5s-5.33301 27.666 -7 39.999s-2.5 18.833 -2.5 19.5c-6 34.667 -9.16699 73.667 -9.5 117s0 87.333 1 132s1.16699 88 0.5 130s-4.33398 79.333 -11.001 112s-17.5 58.5 -32.5 77.5
s-36.5 27.5 -64.5 25.5c-34.667 -5.33301 -60.667 -19.833 -78 -43.5s-29.166 -53.667 -35.499 -90s-8.83301 -78 -7.5 -125s2.5 -96.5 3.5 -148.5s0.5 -105.5 -1.5 -160.5s-9 -108.5 -21 -160.5l-31 -3c-7.33301 2.66699 -11.5 6.83398 -12.5 12.501s-1.5 16.167 -1.5 31.5
c0.666992 10 1.16699 28 1.5 54s0.833008 55.667 1.5 89s1.5 68.833 2.5 106.5s1.83301 73.167 2.5 106.5s1.16699 63 1.5 89s0.833008 44 1.5 54c4 20 9.83301 44.167 17.5 72.5s18 55.5 31 81.5s29.167 48 48.5 66s42.666 27 69.999 27c32 0 58.5 -10.833 79.5 -32.5
s37.5 -49.167 49.5 -82.5s20.833 -69.833 26.5 -109.5s9.16699 -77.834 10.5 -114.501s1.66602 -69.167 0.999023 -97.5s-0.666992 -47.5 0 -57.5c8.66699 28.667 16.334 59.667 23.001 93s13.834 66.166 21.501 98.499s16.834 63.166 27.501 92.499s24.667 54.833 42 76.5
s38.666 38.167 63.999 49.5s56.666 15.333 93.999 12c36 -19.333 63.167 -44.333 81.5 -75s31 -64.334 38 -101.001s10.333 -75 10 -115s-1.5 -79.167 -3.5 -117.5s-3 -74.5 -3 -108.5s4.16699 -63.167 12.5 -87.5s22.333 -42.5 42 -54.5s48.5 -15.333 86.5 -10
c30 14 51.5 27.667 64.5 41s19.833 25.833 20.5 37.5s-3.83301 21.667 -13.5 30s-22.5 14.166 -38.5 17.499c-6.66699 22.667 -8.33398 39 -5.00098 49s9 14.833 17 14.5s17.167 -5 27.5 -14s19.333 -20.333 27 -34s13.167 -29 16.5 -46s1.66602 -34 -5.00098 -51
s-19.167 -33.333 -37.5 -49s-44.833 -28.834 -79.5 -39.501c-60.667 0 -106.167 17.833 -136.5 53.5s-45.5 85.834 -45.5 150.501c0 75.333 -1 138.333 -3 189s-4.66699 92.167 -8 124.5s-7.5 57 -12.5 74s-10.167 29.667 -15.5 38s-11.166 13.833 -17.499 16.5
s-12.833 5.66699 -19.5 9z" />
    <glyph glyph-name="N" unicode="N" horiz-adv-x="773" 
d="M77 744c2 -48 3.83008 -101.836 5.49707 -161.503s3.16699 -120.834 4.5 -183.501s2.5 -125.167 3.5 -187.5s1.5 -120.5 1.5 -174.5c-4 -6 -9 -12.5 -15 -19.5s-13 -10.5 -21 -10.5c-7.33301 0 -12.5 3 -15.5 9s-5.16699 13 -6.5 21
c-0.666992 5.33301 -1.5 19.833 -2.5 43.5s-2.16699 53.334 -3.5 89.001s-2.66602 75.334 -3.99902 119.001s-2.16602 88.334 -2.49902 134.001s-0.333008 90.5 0 134.5s1.5 84 3.5 120s4.83301 66.5 8.5 91.5s8.5 40.833 14.5 47.5c26.667 -3.33301 53 -14.666 79 -33.999
s51.167 -44.166 75.5 -74.499s48 -64.666 71 -102.999s45.5 -78 67.5 -119s43 -82.167 63 -123.5l58 -115.5c18.667 -35.667 36.667 -67.5 54 -95.5s33.666 -49.333 48.999 -64l-48 249.5c-14 72.333 -25 135.833 -33 190.5s-12 101.167 -12 139.5s5.16699 70.5 15.5 96.5
s26.5 46.667 48.5 62s51.333 27 88 35c16.667 0 33.667 -4 51 -12s33 -18.5 47 -31.5s25.5 -27.833 34.5 -44.5s13.5 -34 13.5 -52c2 -22.667 -0.333008 -40.167 -7 -52.5s-15.167 -20.5 -25.5 -24.5s-21.666 -5 -33.999 -3s-22.833 6 -31.5 12s-14.5 13 -17.5 21
s-0.833008 15.667 6.5 23c1.33301 3.33301 4.33301 4.5 9 3.5s10.167 -2.83301 16.5 -5.5s12.833 -5.16699 19.5 -7.5s12.5 -3.5 17.5 -3.5s8.5 2.16699 10.5 6.5s1.66699 12.166 -1 23.499c0 13.333 -3.33301 25.5 -10 36.5s-15.334 20.333 -26.001 28
s-22.167 13.667 -34.5 18s-24.166 6.5 -35.499 6.5c-26.667 -10.667 -47.667 -22.834 -63 -36.501s-26 -31.667 -32 -54s-8 -50 -6 -83s7.33301 -74.333 16 -124s20 -108.667 34 -177l47 -240.5c0 -4 -0.833008 -11 -2.5 -21s-4.16699 -20 -7.5 -30
s-7.66602 -18.833 -12.999 -26.5s-12 -11.5 -20 -11.5c-1.33301 0 -3.83301 0.166992 -7.5 0.5s-6.16699 0.833008 -7.5 1.5c-29.333 35.333 -57 74.5 -83 117.5s-51.167 87.333 -75.5 133l-72.5 139c-24 47 -49.167 92.167 -75.5 135.5s-54.333 83.833 -84 121.5
s-62.167 70.167 -97.5 97.5z" />
    <glyph glyph-name="O" unicode="O" horiz-adv-x="725" 
d="M231 0c-42.667 20 -78.666 47.1719 -107.999 81.5049s-52.666 72.833 -69.999 115.5s-28.333 88.167 -33 136.5s-3.83398 96.666 2.49902 144.999s18.5 95.166 36.5 140.499s41.333 86.333 70 123s62.5 67.667 101.5 93s83.167 42.333 132.5 51
c30 0 59 -6.83301 87 -20.5s54.333 -31.834 79 -54.501s47.167 -48.834 67.5 -78.501s38 -60.334 53 -92.001s26.5 -63.5 34.5 -95.5s12 -61.667 12 -89c0 -34.667 -6.16699 -70.834 -18.5 -108.501s-29.333 -74.5 -51 -110.5s-47.334 -69.667 -77.001 -101
s-61.667 -58.166 -96 -80.499s-70.5 -38.833 -108.5 -49.5s-76 -12.667 -114 -6zM71.001 369.005c0 -38 3.16504 -75.6611 9.49805 -112.994s17.833 -70.833 34.5 -100.5s39.667 -53.5 69 -71.5s67 -27 113 -27c46.667 0 91.5 12.667 134.5 38s80.833 57.5 113.5 96.5
s58.667 82.167 78 129.5s29 92.666 29 135.999c0 25.333 -4 52.333 -12 81s-19 57.167 -33 85.5s-30.833 55.666 -50.5 81.999s-41 49.5 -64 69.5s-47.5 36 -73.5 48s-52.667 18 -80 18c-19.333 -4 -41 -14.5 -65 -31.5s-45 -39.5 -63 -67.5s-30.333 -60.667 -37 -98
s-2 -78 14 -122c6.66699 -17.333 15.167 -32.5 25.5 -45.5s21.333 -23.833 33 -32.5s23.834 -15.167 36.501 -19.5s25 -6.5 37 -6.5c14.667 0 29.667 1.5 45 4.5s29.333 8 42 15s23 16.667 31 29s12 27.833 12 46.5l-16.5 30c-5 8.66699 -8.5 16.667 -10.5 24
s-1.83301 14 0.5 20s7.5 11.667 15.5 17c10 0 19.167 -4 27.5 -12s15.5 -17.833 21.5 -29.5s10.667 -23.834 14 -36.501s5 -23.667 5 -33c0 -15.333 -6.33301 -31.5 -19 -48.5s-27.834 -32.833 -45.501 -47.5s-36 -26.834 -55 -36.501s-35.167 -14.5 -48.5 -14.5
c-46.667 -4 -83.667 0.5 -111 13.5s-48.166 33 -62.499 60s-23.666 60.167 -27.999 99.5s-6.83301 83.666 -7.5 132.999c-13.333 -22.667 -23.833 -45.334 -31.5 -68.001s-13.5 -45.5 -17.5 -68.5s-6.66699 -46.667 -8 -71s-2 -49.5 -2 -75.5z" />
    <glyph glyph-name="P" unicode="P" horiz-adv-x="841" 
d="M304 14l-0.00292969 14.502c0 7 -0.166992 14.333 -0.5 22s-0.5 15 -0.5 22v14.5c0 60 1.83301 119.667 5.5 179l11.5 178l11.5 178c3.66699 59.333 5.5 119 5.5 179c10.667 0 18.834 -4.5 24.501 -13.5s9.66699 -19.667 12 -32s3.5 -24.5 3.5 -36.5v-27
c0 -42.667 -2.66699 -85 -8 -127s-8 -84.333 -8 -127c0 -11.333 1.16699 -20.333 3.5 -27s11.166 -13.334 26.499 -20.001h65c44.667 0 86.167 6.83301 124.5 20.5s71.5 33.334 99.5 59.001s50 57 66 94s24 78.5 24 124.5c0 35.333 -6.16699 65.5 -18.5 90.5
s-29.166 45.333 -50.499 61s-46.333 27.167 -75 34.5s-59.667 11 -93 11c-24 0 -52.333 -2.16699 -85 -6.5s-66.834 -11.166 -102.501 -20.499s-70.834 -20.833 -105.501 -34.5s-65.667 -30.167 -93 -49.5s-49.5 -41.166 -66.5 -65.499s-25.5 -51.5 -25.5 -81.5
c0 -18 2.16699 -32.333 6.5 -43s11 -18.834 20 -24.501s19.833 -9.33398 32.5 -11.001s27.667 -2.5 45 -2.5v-11c0 -2 -2.16699 -4.66699 -6.5 -8s-9.66602 -6.5 -15.999 -9.5s-12.833 -5.66699 -19.5 -8s-12 -3.5 -16 -3.5c-18 0 -32.667 4 -44 12s-20.333 18.167 -27 30.5
s-11.167 25.666 -13.5 39.999s-3.5 27.833 -3.5 40.5c0 33.333 8.83301 64 26.5 92s41 53.167 70 75.5s61.833 42.166 98.5 59.499s73.834 32 111.501 44s74 21.333 109 28s65.833 11 92.5 13c30 2 62 -1.33301 96 -10s65.667 -21.834 95 -39.501s54.5 -39.5 75.5 -65.5
s33.833 -55.333 38.5 -88c6.66699 -46.667 5 -89 -5 -127s-26 -72 -48 -102s-48.833 -55.667 -80.5 -77s-65.667 -38.666 -102 -51.999s-74.166 -22.833 -113.499 -28.5s-77.666 -7.16699 -114.999 -4.5c-6 -24 -10.5 -52.667 -13.5 -86s-5 -66.666 -6 -99.999
s-1.33301 -64.833 -1 -94.5s0.5 -53.5 0.5 -71.5c-6 0 -13.167 1.16699 -21.5 3.5s-13.833 7.16602 -16.5 14.499z" />
    <glyph glyph-name="Q" unicode="Q" horiz-adv-x="790" 
d="M587 101c-0.666992 0.666992 -7.66797 -2.49902 -21.001 -9.49902l-43.5 -24l-43.5 -25.5c-13.333 -8 -20.666 -12.333 -21.999 -13l-43.5 -17.5c-10.333 -4.33301 -19.666 -7.5 -27.999 -9.5s-17 -3.16699 -26 -3.5s-21.5 -0.5 -37.5 -0.5
c-54 0 -100.167 10.667 -138.5 32s-69.5 49.5 -93.5 84.5s-41.5 75.167 -52.5 120.5s-16.5 92 -16.5 140c0 26.667 4.33301 58.167 13 94.5s21 73.833 37 112.5s35.333 76.667 58 114s48 70.5 76 99.5s58.333 51.667 91 68s67 23.166 103 20.499
c50 2.66699 95.333 -3 136 -17s76.5 -34 107.5 -60s57 -56.667 78 -92s36.833 -73 47.5 -113s16 -81.333 16 -124s-5.5 -84.167 -16.5 -124.5s-27.833 -78.5 -50.5 -114.5s-51.334 -67.333 -86.001 -94c8 -11.333 21.5 -26.5 40.5 -45.5l60 -61.5l60.5 -66
c19.333 -22 33.333 -41.667 42 -59v-7c0 -5.33301 -1 -9.5 -3 -12.5s-6 -6.16699 -12 -9.5zM63.999 362.001c0 -40 4.83398 -79.1602 14.501 -117.493s24.834 -72.5 45.501 -102.5s47 -54 79 -72s70.667 -27 116 -27c17.333 0 37.5 2 60.5 6s45.5 10.167 67.5 18.5
s41.833 19 59.5 32s30.167 28.167 37.5 45.5c2 5.33301 0.5 12.5 -4.5 21.5s-11.833 18.833 -20.5 29.5l-29 34l-30.5 35.5c-9.66699 11.667 -17.667 22.667 -24 33s-9.5 19.5 -9.5 27.5c0 0.666992 1.33301 1.33398 4 2.00098s5.83398 1.16699 9.50098 1.5
s7 0.666016 10 0.999023s4.5 0.833008 4.5 1.5l27.5 -36l20 -27.5c7 -9.66699 15.833 -21.167 26.5 -34.5l45 -57c34.667 33.333 63.167 73.166 85.5 119.499s37.5 94.333 45.5 144s8.66699 98.667 2 147s-21.834 91 -45.501 128s-55.834 66 -96.501 87
s-91 29.167 -151 24.5c-38.667 0 -72.5 -8.5 -101.5 -25.5s-53.167 -39 -72.5 -66s-33.833 -57.667 -43.5 -92s-14.5 -68.5 -14.5 -102.5c0 -26.667 5.66699 -47.334 17 -62.001s25.833 -25.667 43.5 -33s37.167 -11.833 58.5 -13.5s42 -2.5 62 -2.5
c3.33301 0 8.33301 0.166992 15 0.5l20.5 1c7 0.333008 13.5 0.833008 19.5 1.5s9.66699 1.33398 11 2.00098c11.333 1.33301 19.166 -0.333984 23.499 -5.00098s6.5 -10.667 6.5 -18c0 -0.666992 -0.166992 -1.33398 -0.5 -2.00098s-0.5 -1.33398 -0.5 -2.00098v-2
c-6 -6 -16.167 -11 -30.5 -15s-28.833 -7 -43.5 -9s-27.667 -3.33301 -39 -4s-17.333 -1 -18 -1c-40 0 -72.167 7.33301 -96.5 22s-43 34.167 -56 58.5s-22 52.166 -27 83.499s-7.83301 63.666 -8.5 96.999c-26 -42 -44.833 -86.333 -56.5 -133
s-17.5 -94.334 -17.5 -143.001z" />
    <glyph glyph-name="R" unicode="R" horiz-adv-x="899" 
d="M167 449c-1.33301 -26 -4.50391 -58.665 -9.50391 -97.998s-10.5 -80.333 -16.5 -123l-17.5 -123.5c-5.66699 -39.667 -9.5 -72.5 -11.5 -98.5h-34c0 17.333 0.666992 42.5 2 75.5s3.33301 70.5 6 112.5s5.83398 86.833 9.50098 134.5s8 95.167 13 142.5
s10.667 92.5 17 135.5s13.166 81.167 20.499 114.5s15.333 59.833 24 79.5s17.667 29.5 27 29.5c0 -29.333 -1.5 -58.333 -4.5 -87s-6.33301 -57.5 -10 -86.5s-7 -58 -10 -87s-4.5 -57.833 -4.5 -86.5c18.667 -2 40.5 -2.83301 65.5 -2.5s51 3.16602 78 8.49902
s54.167 13.333 81.5 24s52.833 25 76.5 43s44.667 40.167 63 66.5s31.833 57.833 40.5 94.5c0 30.667 -9.83301 56.667 -29.5 78s-43.5 38.666 -71.5 51.999s-57.333 23 -88 29s-57.334 9 -80.001 9c-28 0 -53.833 -2.66699 -77.5 -8s-46.5 -12.166 -68.5 -20.499
s-44 -17.833 -66 -28.5s-45.333 -21 -70 -31c-0.666992 1.33301 -1.16699 3.83301 -1.5 7.5s-0.5 6.16699 -0.5 7.5c0 18.667 6 34.667 18 48s27.5 24.333 46.5 33s40 15.334 63 20.001s45.833 8.16699 68.5 10.5s43.834 3.83301 63.501 4.5s35.167 1 46.5 1
c40.667 -2 78 -8.66699 112 -20s63 -26.666 87 -45.999s42.833 -42.666 56.5 -69.999s21.167 -58 22.5 -92c0 -34.667 -8.66699 -65 -26 -91s-39.166 -48.833 -65.499 -68.5s-54.833 -37 -85.5 -52l-86 -40.5c-0.666992 -0.666992 -1 -1.66699 -1 -3v-4
c14 -22 28 -47.167 42 -75.5l44 -87c15.333 -29.667 31.833 -58.667 49.5 -87s37.334 -53.833 59.001 -76.5s45.667 -40.834 72 -54.501s56.166 -20.834 89.499 -21.501c14.667 0 30.167 2.5 46.5 7.5s31.333 12.5 45 22.5s25 22.833 34 38.5s13.5 34.167 13.5 55.5
c0 8.66699 -1.5 18.667 -4.5 30s-7.16699 22 -12.5 32s-12 18.5 -20 25.5s-17 10.5 -27 10.5c-25.333 0 -46.666 -4.83301 -63.999 -14.5s-28.333 -29.5 -33 -59.5c-7.33301 8.66699 -11.666 15.834 -12.999 21.501s-2 13.167 -2 22.5c0 14 3 25.833 9 35.5
s14 17.167 24 22.5s21 9.16602 33 11.499s24 3.5 36 3.5c18.667 0 35.167 -4.16699 49.5 -12.5s26.5 -19 36.5 -32s17.667 -27.833 23 -44.5s8 -33.334 8 -50.001c0.666992 -34 -5 -61.833 -17 -83.5s-28.167 -38.5 -48.5 -50.5s-43.833 -20.333 -70.5 -25s-54 -7 -82 -7
c-45.333 14.667 -82.333 35 -111 61s-53.334 54.333 -74.001 85s-39.5 62.167 -56.5 94.5s-36.167 62.666 -57.5 90.999s-47.166 53 -77.499 74s-69.166 35.5 -116.499 43.5z" />
    <glyph glyph-name="S" unicode="S" horiz-adv-x="638" 
d="M28 174l0.00488281 10.001c0 4.66699 -0.166992 9.66699 -0.5 15s-0.5 10.5 -0.5 15.5v10.5c0 20.667 4 39.5 12 56.5s19 31.667 33 44s30.667 21.833 50 28.5s40.666 10 63.999 10c10 0 21.833 -2 35.5 -6s26.667 -9.5 39 -16.5s22.833 -15.5 31.5 -25.5s13 -21 13 -33
c-8.66699 -14 -15.167 -22.5 -19.5 -25.5s-8.16602 -2.66699 -11.499 1s-7.16602 9.33398 -11.499 17.001s-10.5 15 -18.5 22s-18.667 12.833 -32 17.5s-31 6 -53 4c-13.333 0 -25.333 -2.83301 -36 -8.5s-20 -13.167 -28 -22.5s-14.167 -19.666 -18.5 -30.999
s-6.5 -22.333 -6.5 -33c0 -14 4.66699 -30.667 14 -50s21.166 -37.5 35.499 -54.5s30.166 -31.5 47.499 -43.5s34 -18 50 -18c37.333 -11.333 71.5 -16.833 102.5 -16.5s59 4.83301 84 13.5s47.167 20.167 66.5 34.5s35.666 30.166 48.999 47.499s24 35.166 32 53.499
s13.333 35.166 16 50.499c0 22 -5.66699 43.833 -17 65.5s-25.333 42 -42 61s-34.334 36.833 -53.001 53.5l-50 43c-3.33301 -0.666992 -12.333 5.33301 -27 18s-31.667 29.5 -51 50.5s-39.5 45.167 -60.5 72.5s-39.667 55.166 -56 83.499s-28.333 55.833 -36 82.5
s-8.16699 50 -1.5 70c2.66699 24 11.834 48.833 27.501 74.5s37.834 48 66.501 67s64 32.667 106 41s91.333 7.83301 148 -1.5c13.333 0 26.833 -6.5 40.5 -19.5s25.667 -28.5 36 -46.5s18.166 -36.5 23.499 -55.5s6 -34.167 2 -45.5
c-6.66699 -15.333 -15 -29.666 -25 -42.999s-20 -23.5 -30 -30.5s-19.333 -9.66699 -28 -8s-15 9.5 -19 23.5c16.667 3.33301 29.5 10.166 38.5 20.499s14.667 22.166 17 35.499s1.5 27.166 -2.5 41.499s-11 27.333 -21 39s-22.5 21.167 -37.5 28.5
s-32.5 10.666 -52.5 9.99902c-26 0 -52.667 -3 -80 -9s-52.333 -15.5 -75 -28.5s-41.334 -30.333 -56.001 -52s-22 -47.834 -22 -78.501c0 -39.333 9.33301 -75.166 28 -107.499s42.167 -62.666 70.5 -90.999s58.833 -55.833 91.5 -82.5s63.167 -54.167 91.5 -82.5
s51.833 -58.666 70.5 -90.999s28 -68.166 28 -107.499c0 -30 -7.5 -58.833 -22.5 -86.5s-34.333 -52.5 -58 -74.5s-50.334 -40.167 -80.001 -54.5s-58.834 -23.166 -87.501 -26.499c-52.667 -6 -97.667 -5.16699 -135 2.5s-69 20 -95 37s-47.167 37.333 -63.5 61
s-29.833 48.167 -40.5 73.5z" />
    <glyph glyph-name="T" unicode="T" horiz-adv-x="836" 
d="M498 0c6 131.333 8.33008 246.334 6.99707 345.001s-6.16602 184.167 -14.499 256.5s-19.833 133 -34.5 182s-32.167 89.833 -52.5 122.5s-43.5 58.5 -69.5 77.5s-54 34.5 -84 46.5c-27.333 0 -51.666 -7.66699 -72.999 -23s-40.666 -32.166 -57.999 -50.499l-48 -50.5
c-14.667 -15.333 -28.667 -23 -42 -23c-6 0 -11.333 2.16699 -16 6.5s-7 9.83301 -7 16.5c0 22.667 7.5 44.834 22.5 66.501s33.5 41 55.5 58s45.667 30.667 71 41s48.333 15.5 69 15.5c33.333 0 63 -5.5 89 -16.5s50.333 -24.5 73 -40.5s44.334 -33.667 65.001 -53
s42.167 -37 64.5 -53s46.5 -29.5 72.5 -40.5s55.333 -16.5 88 -16.5c25.333 -3.33301 48.666 -1.83301 69.999 4.5s40.833 15 58.5 26s34.167 23.333 49.5 37l44.5 39c14.333 12.333 28.5 22.833 42.5 31.5s28.333 13.667 43 15c10.667 -28.667 8.66699 -54.5 -6 -77.5
s-36.667 -43 -66 -60s-63.666 -30.5 -102.999 -40.5s-78.333 -15.833 -117 -17.5s-74.834 1.16602 -108.501 8.49902s-59.167 19.666 -76.5 36.999h-7c20 -140.667 35.167 -285.334 45.5 -434.001s15.5 -294 15.5 -436h-63v0z" />
    <glyph glyph-name="U" unicode="U" horiz-adv-x="652" 
d="M304 0c-46 6 -85.168 21.168 -117.501 45.501s-59.333 55 -81 92s-38.834 79 -51.501 126s-22.167 96.167 -28.5 147.5s-10.166 103 -11.499 155s-1.83301 101.833 -1.5 149.5s1 91.667 2 132s0.833008 73.833 -0.5 100.5l52 -9
c-16 -113.333 -21.167 -219.333 -15.5 -318s18.667 -186.334 39 -263.001s46.333 -140.5 78 -191.5s65.334 -85.333 101.001 -103s71.667 -17.167 108 1.5s69.333 59.334 99 122.001s54.167 149 73.5 259s30 247.667 32 413c10 19.333 19 26.666 27 21.999
s14.5 -18.5 19.5 -41.5s8.33301 -53.167 10 -90.5s1.16699 -78.833 -1.5 -124.5s-7.5 -93.5 -14.5 -143.5s-16.5 -99.167 -28.5 -147.5s-26.833 -93.833 -44.5 -136.5s-38.334 -79.667 -62.001 -111s-50.667 -55 -81 -71s-64.166 -21 -101.499 -15z" />
    <glyph glyph-name="V" unicode="V" horiz-adv-x="855" 
d="M14 812c-0.666992 2.66699 0.837891 7.84082 4.50488 15.5078s6.83398 12.167 9.50098 13.5c20 -12 40 -34 60 -66s39.5 -69.667 58.5 -113s37.167 -89.833 54.5 -139.5s33.166 -98.167 47.499 -145.5s26.666 -90.833 36.999 -130.5s18.166 -71.167 23.499 -94.5
c4 38 8 81.5 12 130.5s9.83301 99 17.5 150s18.5 101.167 32.5 150.5s33.667 93.833 59 133.5s57.333 72.167 96 97.5s86.667 39.666 144 42.999c46.667 0 84.667 -10.833 114 -32.5s44 -58.167 44 -109.5c0 -15.333 -3 -30.333 -9 -45s-14.167 -27.667 -24.5 -39
s-22.833 -20.5 -37.5 -27.5s-30.334 -10.5 -47.001 -10.5c-4.66699 0 -10.334 0.833008 -17.001 2.5s-13.167 4.16699 -19.5 7.5s-11.666 7.16602 -15.999 11.499s-6.5 9.5 -6.5 15.5c0 9.33301 3.33301 15.666 10 18.999s15 5.5 25 6.5s20.833 1.66699 32.5 2
s22.5 2.16602 32.5 5.49902s18.333 9 25 17s10 20.333 10 37s-3.33301 31.167 -10 43.5s-15.5 22.166 -26.5 29.499s-23.667 12.833 -38 16.5s-29.5 5.5 -45.5 5.5c-36 0 -67.833 -9.16699 -95.5 -27.5s-52.167 -42.833 -73.5 -73.5s-39.666 -66.334 -54.999 -107.001
s-28.5 -83.334 -39.5 -128.001s-20.167 -90.334 -27.5 -137.001s-13.5 -91.167 -18.5 -133.5s-9.33301 -81.333 -13 -117s-7.16699 -65.167 -10.5 -88.5c-0.666992 -0 -1.83398 -0.166992 -3.50098 -0.5s-2.83398 -0.5 -3.50098 -0.5
c-2.66699 0 -8.83398 10.833 -18.501 32.5l-36.5 86l-49 122.5l-55 142l-55 145l-48 131.5l-34.5 100.5c-9 27.333 -14.167 45 -15.5 53z" />
    <glyph glyph-name="W" unicode="W" horiz-adv-x="1280" 
d="M158 901c-17.333 0 -31.8301 -3.49609 -43.4971 -10.4961s-21.334 -16.167 -29.001 -27.5s-13.167 -24.333 -16.5 -39s-5 -29.334 -5 -44.001c0 -8 0.666992 -16.167 2 -24.5s3.83301 -16 7.5 -23s8.66699 -12.667 15 -17s14.5 -6.5 24.5 -6.5
c15.333 0 29.333 2.83301 42 8.5s26.334 8.5 41.001 8.5v-45c0 -1.33301 -3.33301 -3.33301 -10 -6s-14.667 -5.5 -24 -8.5l-28.5 -9c-9.66699 -3 -17.834 -4.83301 -24.501 -5.5c-15.333 -2 -28.666 2 -39.999 12s-20.5 22.5 -27.5 37.5s-12.167 30.833 -15.5 47.5
s-5 30.334 -5 41.001c0 32 5 61.667 15 89s29.333 48.333 58 63c44.667 8.66699 84.167 7.16699 118.5 -4.5s64.5 -30.834 90.5 -57.501s48 -59.167 66 -97.5s33.167 -79.666 45.5 -123.999s22 -90.166 29 -137.499s12.5 -93.333 16.5 -138s6.66699 -86.334 8 -125.001
s2.33301 -71.667 3 -99c2 5.33301 6.66699 19.333 14 42l27.5 84.5l37.5 112.5l44 125.5l46.5 123.5c15.667 40 31 75.5 46 106.5s29 56 42 75s24.167 28.5 33.5 28.5c11.333 0 23.166 -14.5 35.499 -43.5s25 -66.167 38 -111.5s25.667 -95.166 38 -149.499l35.5 -157.5
l31 -136c9.33301 -40 17.333 -68.333 24 -85c6 38.667 12.5 83.167 19.5 133.5s16.333 101.833 28 154.5s26.167 104.334 43.5 155.001s39.5 96 66.5 136s59.5 72.167 97.5 96.5s83.333 36.5 136 36.5v-60c-45.333 -3.33301 -84.5 -16.833 -117.5 -40.5
s-61.333 -53.834 -85 -90.501s-43.334 -77.834 -59.001 -123.501s-28.667 -92.167 -39 -139.5s-18.5 -93.5 -24.5 -138.5l-15.5 -120c-4.33301 -35 -8.66602 -63.167 -12.999 -84.5s-9.5 -32 -15.5 -32c-12 0 -23.667 9 -35 27s-22.333 42.167 -33 72.5
s-21 65.166 -31 104.499s-19.5 80.166 -28.5 122.499l-26 127l-24 118.5c-7.66699 36.667 -14.834 68.667 -21.501 96s-13 47 -19 59c-8.66699 0 -18.834 -9.5 -30.501 -28.5s-24.334 -44.5 -38.001 -76.5s-28 -68.667 -43 -110l-45 -129.5l-44 -136l-40 -128l-33 -105.5
c-9.66699 -30.667 -17.5 -54 -23.5 -70c-18.667 8 -32.667 27 -42 57s-16.166 66.833 -20.499 110.5s-7.33301 92.167 -9 145.5s-4.33398 107.166 -8.00098 161.499s-9.5 107.166 -17.5 158.499s-20.667 96.833 -38 136.5s-40.166 71.5 -68.499 95.5s-64.833 36 -109.5 36z
" />
    <glyph glyph-name="X" unicode="X" horiz-adv-x="942" 
d="M420 377c-20 -20 -39.8311 -45.668 -59.498 -77.001l-58 -96.5l-53.5 -95c-16.667 -30.333 -31.834 -55 -45.501 -74s-25.5 -30.167 -35.5 -33.5s-17.333 6 -22 28c1.33301 17.333 7 37.166 17 59.499s22.333 46 37 71s31 50.833 49 77.5l53.5 77.5l50 71.5
c15.667 22.667 28.834 43 39.501 61c-6 16 -13 36.667 -21 62s-17 52 -27 80s-21.333 56.333 -34 85s-27.167 54.334 -43.5 77.001s-34.5 41.167 -54.5 55.5s-42 21.5 -66 21.5c-25.333 0 -46.5 -7.83301 -63.5 -23.5s-25.5 -37.5 -25.5 -65.5
c1.33301 -12 7.16602 -21 17.499 -27s22 -10.667 35 -14s26.333 -6 40 -8s24.667 -4.83301 33 -8.5s12.833 -9 13.5 -16s-5.33301 -16.833 -18 -29.5c-22 0 -43 2.83301 -63 8.5s-37.5 14.167 -52.5 25.5s-27 25.5 -36 42.5s-13.5 36.833 -13.5 59.5
c0 18.667 3.83301 34.334 11.5 47.001s17.667 23 30 31s26.166 13.833 41.499 17.5s30.666 5.5 45.999 5.5c34.667 0 64.5 -6.33301 89.5 -19s46.333 -29.167 64 -49.5s32.834 -43.166 45.501 -68.499s24 -51 34 -77l29 -74.5
c9.33301 -23.667 19.666 -43.834 30.999 -60.501c12.667 13.333 27.667 30.5 45 51.5l56 67.5c20 24 41.333 48.167 64 72.5s45.5 46.833 68.5 67.5s45.833 38 68.5 52s44.667 22.5 66 25.5s41.5 -1 60.5 -12s35.833 -30.833 50.5 -59.5
c-0.666992 -14 -2.83398 -27.5 -6.50098 -40.5s-8.33398 -23.5 -14.001 -31.5s-12 -12.833 -19 -14.5s-14.167 1.83301 -21.5 10.5c9.33301 10.667 14.666 21.5 15.999 32.5s-0.166992 20.833 -4.5 29.5s-11 16 -20 22s-18.833 9.83301 -29.5 11.5s-21.5 0.666992 -32.5 -3
s-20.833 -10.834 -29.5 -21.501l-127.5 -118.5c-37 -34.333 -67.167 -67 -90.5 -98s-39.166 -62.667 -47.499 -95s-7.16602 -69.166 3.50098 -110.499s31.167 -89.333 61.5 -144s72.5 -119.667 126.5 -195c0 -7.33301 -3.5 -13.166 -10.5 -17.499s-15.167 -6.5 -24.5 -6.5
c-5.33301 0 -13.666 8 -24.999 24s-24.166 36.5 -38.499 61.5l-45.5 82.5l-46 87l-40.5 75.5c-12.333 22.333 -21.833 38.166 -28.5 47.499z" />
    <glyph glyph-name="Y" unicode="Y" horiz-adv-x="681" 
d="M26 21c2.66699 14.667 7.66797 29.0029 15.001 43.0029s16.166 26.667 26.499 38s21.833 20.5 34.5 27.5s26.334 10.5 41.001 10.5c12.667 -5.33301 19.5 -10.833 20.5 -16.5s-1.5 -12 -7.5 -19s-14.167 -14.333 -24.5 -22s-20.333 -15.834 -30 -24.501
s-17.834 -17.834 -24.501 -27.501s-9.33398 -19.834 -8.00098 -30.501c0 -14 2.83301 -28.667 8.5 -44s13.167 -29.5 22.5 -42.5s20.333 -23.667 33 -32s26 -12.5 40 -12.5c42.667 0.666992 80.834 13.167 114.501 37.5s63.5 56 89.5 95s48.5 83 67.5 132
s35.5 98.167 49.5 147.5s25.833 96.833 35.5 142.5l25.5 117.5c-6 -23.333 -19.167 -44.166 -39.5 -62.499s-43.833 -34.166 -70.5 -47.499s-54 -23.5 -82 -30.5s-52.667 -10.5 -74 -10.5c-44.667 0 -80.834 12.167 -108.501 36.5s-49.167 54.5 -64.5 90.5
s-25.666 74.667 -30.999 116s-8 79 -8 113c0 4 0.166992 11.333 0.5 22s0.5 21.667 0.5 33s0.166992 22.166 0.5 32.499s0.5 17.5 0.5 21.5c2 10 5.66699 18.833 11 26.5s11.166 13 17.499 16s12.333 3.5 18 1.5s9.5 -7 11.5 -15
c-3.33301 -12.667 -6.16602 -23.834 -8.49902 -33.501s-4 -19.167 -5 -28.5s-1.66699 -19.333 -2 -30s-0.5 -23.334 -0.5 -38.001c0 -26.667 1.83301 -57.5 5.5 -92.5s11.334 -68.333 23.001 -100s28.5 -58.5 50.5 -80.5s51 -33 87 -33c43.333 -2 80.666 4.33301 111.999 19
s58.166 34.667 80.499 60s40.833 54 55.5 86s27 64.5 37 97.5s18.167 64.5 24.5 94.5s12.333 55.667 18 77s11.834 36.5 18.501 45.5s15.334 8.83301 26.001 -0.5c5.33301 -5.33301 7.16602 -25.166 5.49902 -59.499s-6.33398 -77.833 -14.001 -130.5
s-18.5 -111.667 -32.5 -177s-30.833 -131.833 -50.5 -199.5s-42 -133.5 -67 -197.5s-52.5 -121 -82.5 -171s-62.333 -90.167 -97 -120.5s-71.667 -45.5 -111 -45.5c-23.333 0 -47.166 4.83301 -71.499 14.5s-45.666 23.167 -63.999 40.5s-32.333 38 -42 62
s-11.834 50 -6.50098 78z" />
    <glyph glyph-name="Z" unicode="Z" horiz-adv-x="957" 
d="M180 204c-21.333 2.66699 -38.9951 -0.163086 -52.9951 -8.49609s-26.167 -18.5 -36.5 -30.5s-20 -24 -29 -36s-19.167 -20.667 -30.5 -26c-2 0 -6 2 -12 6s-10 6.33301 -12 7c15.333 30.667 36.666 64.167 63.999 100.5l90.5 115l104 127
c36.333 44.333 71.166 89.333 104.499 135s63.666 91.667 90.999 138s48.666 92.5 63.999 138.5h-446v39c43.333 -3.33301 87.333 -4.33301 132 -3s89.334 3.33301 134.001 6s89 5.16699 133 7.5s87 3.16602 129 2.49902c-19.333 -53.333 -44.5 -105.666 -75.5 -156.999
s-64.833 -103.166 -101.5 -155.499l-112.5 -161c-38.333 -55 -74.166 -112.833 -107.499 -173.5c34.667 -18.667 69.5 -40.5 104.5 -65.5s70.5 -48.833 106.5 -71.5s73.167 -41.834 111.5 -57.501s78.166 -23.5 119.499 -23.5c22.667 0 48 3.16699 76 9.5
s54.167 16.333 78.5 30s44.666 31 60.999 52s24.5 46.167 24.5 75.5c0 14 -3.5 27.333 -10.5 40s-16 23.5 -27 32.5s-23.5 15.667 -37.5 20s-28 5.16602 -42 2.49902c-2 -0.666992 -4.83301 -1 -8.5 -1s-7.33398 -2.66699 -11.001 -8s-6.66699 -15 -9 -29s-3.5 -35 -3.5 -63
c-8 -12.667 -15.333 -20.5 -22 -23.5s-12.334 -2 -17.001 3s-8.5 13.5 -11.5 25.5s-4.83301 27 -5.5 45c0 14 3 27 9 39s13.833 22.167 23.5 30.5s20.667 14.833 33 19.5s25.166 7 38.499 7c20 0 38.833 -4.33301 56.5 -13s33 -20.167 46 -34.5s23.167 -30.833 30.5 -49.5
s11 -38 11 -58c0 -30 -9.66699 -57.833 -29 -83.5s-43 -47.834 -71 -66.501s-57.667 -33.334 -89 -44.001s-59 -16 -83 -16c-31.333 0 -61 4.66699 -89 14s-55 21.166 -81 35.499s-51.5 30 -76.5 47s-50.167 33.167 -75.5 48.5s-51.166 28.5 -77.499 39.5
s-54.166 17.833 -83.499 20.5z" />
    <glyph glyph-name="bracketleft" unicode="[" horiz-adv-x="355" 
d="M275 23c-22.667 2 -43.8369 2.99805 -63.5039 2.99805s-39 -0.166992 -58 -0.5s-38 -0.166016 -57 0.500977s-39.167 2.66699 -60.5 6c-9.33301 4.66699 -14 9.16699 -14 13.5v19.5c0 70.667 1.83301 141.5 5.5 212.5s7.83398 142 12.501 213l14 213
c4.66699 71 8.33398 141.833 11.001 212.5c11.333 14.667 26 26.834 44 36.501s37.167 17.167 57.5 22.5s41 9 62 11s39.833 3 56.5 3c6.66699 0 12.334 -0.5 17.001 -1.5s9 -3 13 -6s7.83301 -7.5 11.5 -13.5l14.5 -23c0 -2 -1.83301 -4.83301 -5.5 -8.5
s-6.83398 -5.5 -9.50098 -5.5c-1.33301 0 -4 0.666992 -8 2l-13.5 4.5c-5 1.66699 -9.66699 3.33398 -14 5.00098s-6.83301 2.5 -7.5 2.5c-1.33301 0 -6.5 0.166992 -15.5 0.5s-15.833 0.5 -20.5 0.5c-14 0 -29 -1 -45 -3s-31 -5.66699 -45 -11s-26.667 -12.833 -38 -22.5
s-19.666 -21.834 -24.999 -36.501c2.66699 -67.333 2.83398 -134.5 0.500977 -201.5s-5.5 -134 -9.5 -201l-11.5 -201c-3.66699 -67 -5.5 -134.167 -5.5 -201.5h200l7 -45v0z" />
    <glyph glyph-name="backslash" unicode="\" horiz-adv-x="572" 
d="M536 0c-5.33301 20 -17.1689 44.168 -35.502 72.501s-40.666 59 -66.999 92l-87 104.5l-95.5 110l-93.5 108c-30.333 35.333 -57.166 68.166 -80.499 98.499s-42 57.5 -56 81.5s-21 43.333 -21 58c-0 2 1.83301 4.83301 5.5 8.5s6.5 5.5 8.5 5.5s11.667 -9.66699 29 -29
l65.5 -76.5l89.5 -109.5l101.5 -127.5l100.5 -131l87 -120c25.333 -36.333 45.833 -67.5 61.5 -93.5s23.5 -43.333 23.5 -52h-36v0z" />
    <glyph glyph-name="bracketright" unicode="]" horiz-adv-x="377" 
d="M6 64c0 9.33301 3.16992 15.6592 9.50293 18.9922s13.166 5 20.499 5c11.333 0 21.833 -1.66699 31.5 -5s19.167 -7 28.5 -11s19.166 -7.66699 29.499 -11s21.5 -5 33.5 -5h10.5c5 0 10.167 0.166992 15.5 0.5s10.333 0.666016 15 0.999023s8 0.5 10 0.5
c9.33301 22 18.666 53 27.999 93s18.333 84.667 27 134s16.834 101 24.501 155s14.167 106.333 19.5 157s9.66602 97.334 12.999 140.001s5 77.334 5 104.001v11c0 5.33301 -0.166992 11.166 -0.5 17.499s-0.5 12.333 -0.5 18v11.5
c-14.667 14.667 -32.167 22.334 -52.5 23.001s-41.5 0.166992 -63.5 -1.5s-43.167 -2.16699 -63.5 -1.5s-37.833 8.33398 -52.5 23.001c2.66699 11.333 10 19.333 22 24s25.5 7.5 40.5 8.5s30.333 0.833008 46 -0.5s28.5 -2 38.5 -2c41.333 0 73.333 -11.167 96 -33.5
s34 -54.166 34 -95.499c0 -8.66699 -1.66699 -27.167 -5 -55.5s-7.66602 -62.666 -12.999 -102.999l-18.5 -133.5l-22 -147.5l-22.5 -145c-7.33301 -47 -14.5 -89.167 -21.5 -126.5s-13 -68 -18 -92s-8.83301 -37.333 -11.5 -40c-2 0 -9 0.666992 -21 2
s-26.667 3.33301 -44 6s-35.833 5.83398 -55.5 9.50098s-37.834 7.83398 -54.501 12.501s-30.5 9.83398 -41.5 15.501s-16.5 11.834 -16.5 18.501z" />
    <glyph glyph-name="asciicircum" unicode="^" horiz-adv-x="558" 
d="M355 1030c14 0 28.3311 -7.33203 42.998 -21.999s28.667 -33.667 42 -57s25.833 -48.833 37.5 -76.5s21.834 -54.834 30.501 -81.501s15.5 -50.667 20.5 -72s7.5 -37 7.5 -47c0 -7.33301 -1.16699 -13.333 -3.5 -18s-6.16602 -10.667 -11.499 -18
c-11.333 8.66699 -21 22.5 -29 41.5s-15.5 40.333 -22.5 64l-21 73.5c-7 25.333 -14.667 48.5 -23 69.5s-18.166 38.167 -29.499 51.5s-25 20 -41 20c-12 0 -25.333 -8 -40 -24s-30.667 -36.167 -48 -60.5l-56 -78.5c-20 -28 -40.833 -54.167 -62.5 -78.5
s-44.167 -44.5 -67.5 -60.5s-47 -24 -71 -24c0 2.66699 4.83301 10.5 14.5 23.5s22.5 29.167 38.5 48.5l54.5 64.5l62 71.5l62.5 70.5l55.5 61l40 42.5c10.333 10.667 16.166 16 17.499 16z" />
    <glyph glyph-name="underscore" unicode="_" horiz-adv-x="1109" 
d="M1051 43c4 0 7.33496 -2 10.002 -6s4.66699 -8.5 6 -13.5s2.16602 -9.83301 2.49902 -14.5s0.5 -7.66699 0.5 -9h-1052c0 4.66699 1.66699 10.5 5 17.5s7.66602 10.833 12.999 11.5l131 14h884z" />
    <glyph glyph-name="grave" unicode="`" horiz-adv-x="833" 
d="M525 750c-8.66699 8 -24.0039 15.6719 -46.0039 23.0049s-47 14.666 -75 21.999l-88 22c-30.667 7.33301 -58.5 15.166 -83.5 23.499s-45.667 17.166 -62 26.499s-24.5 20 -24.5 32v7c0 3.33301 0.333008 5.66602 1 6.99902l73 -18.5
c30 -7.66699 61.333 -16.167 94 -25.5s64.834 -19.5 96.501 -30.5s58.834 -21.833 81.501 -32.5s39 -20.834 49 -30.501s9.33301 -18.5 -2 -26.5c-1.33301 0 -3.66602 0.166992 -6.99902 0.5s-5.66602 0.5 -6.99902 0.5z" />
    <glyph glyph-name="a" unicode="a" horiz-adv-x="613" 
d="M22 196c0 30 4.16504 64.002 12.498 102.002s21 73.667 38 107s38.833 61.333 65.5 84s58.667 34 96 34c18 0 35 -3.83301 51 -11.5s30.5 -17.667 43.5 -30s24.167 -26.5 33.5 -42.5s16.666 -32 21.999 -48c-0.666992 -8.66699 -1.66699 -22.5 -3 -41.5
s-2 -40.333 -2 -64s1.33301 -48 4 -73s7.83398 -48 15.501 -69s18.5 -38.167 32.5 -51.5s32.333 -20 55 -20c23.333 0 41.5 4.5 54.5 13.5s19.5 24.833 19.5 47.5c0 5.33301 -0.333008 12.666 -1 21.999s-2.16699 18.666 -4.5 27.999s-6.16602 17.5 -11.499 24.5
s-12.333 10.5 -21 10.5c-10.667 -21.333 -20.834 -35.833 -30.501 -43.5s-17.667 -10.834 -24 -9.50098s-10.833 6 -13.5 14s-2.66699 17.167 0 27.5s8.33398 20.666 17.001 30.999s21 18.5 37 24.5c14.667 0 27.834 -3.5 39.501 -10.5s21.5 -16.167 29.5 -27.5
s14.167 -23.833 18.5 -37.5s6.5 -27.5 6.5 -41.5c0 -35.333 -10 -63.666 -30 -84.999s-46.667 -32 -80 -32c-22 0 -40.667 3.5 -56 10.5s-28.833 16.5 -40.5 28.5s-21.667 25.833 -30 41.5s-16.5 32.5 -24.5 50.5c-17.333 -18 -31 -34.667 -41 -50
s-18.333 -28.833 -25 -40.5l-18 -30.5c-5.33301 -8.66699 -12 -16 -20 -22s-18 -10.333 -30 -13s-28.333 -4 -49 -4c-22.667 0 -42.5 6.83301 -59.5 20.5s-31.167 30.5 -42.5 50.5s-19.833 41.333 -25.5 64s-8.5 43.334 -8.5 62.001zM63.998 209.002
c0 -18.667 1.50195 -37.8369 4.50195 -57.5039s8.16699 -37.667 15.5 -54s17.666 -29.666 30.999 -39.999s30.666 -15.166 51.999 -14.499c20 0 39.5 9.5 58.5 28.5s36.167 43.667 51.5 74s27.666 64.833 36.999 103.5s14 78 14 118c0 36 -7.5 63.833 -22.5 83.5
s-40.5 29.5 -76.5 29.5c-20.667 0 -39 -4.5 -55 -13.5s-30.167 -21 -42.5 -36s-22.666 -32 -30.999 -51s-15.333 -38.667 -21 -59s-9.66699 -40.166 -12 -59.499s-3.5 -36.666 -3.5 -51.999z" />
    <glyph glyph-name="b" unicode="b" horiz-adv-x="380" 
d="M24 110c0 52 -0.334961 104.498 -1.00195 157.498s-0.666992 106 0 159s2.33398 105.833 5.00098 158.5s7 105 13 157l42 -3v-449c14.667 10 27.5 21 38.5 33s22.333 23.167 34 33.5s25 19 40 26s33.833 10.5 56.5 10.5c22 0 40.833 -5.66699 56.5 -17
s28.334 -25.5 38.001 -42.5s16.667 -35.667 21 -56s6.5 -39.166 6.5 -56.499c5.33301 -24 5.66602 -45.333 0.999023 -64s-12.667 -35.167 -24 -49.5s-25.166 -27 -41.499 -38s-33.5 -20.667 -51.5 -29s-36.333 -15.833 -55 -22.5l-51 -18
c-16 3.33301 -32.5 4.83301 -49.5 4.5s-32 1.83398 -45 6.50098s-23 14.167 -30 28.5s-8.16699 37.833 -3.5 70.5zM234.998 333.998c-22 0 -41.333 -5.00195 -58 -15.002s-31.167 -23.167 -43.5 -39.5s-22.666 -34.833 -30.999 -55.5s-15 -41.667 -20 -63
s-8.5 -42 -10.5 -62s-3 -37.667 -3 -53c22 0 48.167 2.16699 78.5 6.5s59 12.333 86 24s50 27.334 69 47.001s28.5 44.834 28.5 75.501c0 16 -1.5 32 -4.5 48s-8 30.5 -15 43.5s-16.833 23.5 -29.5 31.5s-28.334 12 -47.001 12z" />
    <glyph glyph-name="c" unicode="c" horiz-adv-x="341" 
d="M27 268c0 34.667 5.99902 63.9971 17.999 87.9971s28.333 43.333 49 58s45.167 25.5 73.5 32.5s59.166 11.167 92.499 12.5c14.667 -4 26 -9.66699 34 -17s13.833 -16 17.5 -26s5.83398 -20.833 6.50098 -32.5s1 -23.167 1 -34.5c0 -18.667 -4.5 -35.834 -13.5 -51.501
s-25.833 -23.5 -50.5 -23.5c-13.333 -4 -24.166 -2.66699 -32.499 4s-13.333 13.667 -15 21s0.333008 12.333 6 15s16.167 -1.66602 31.5 -12.999c0.666992 0 1.83398 -0.166992 3.50098 -0.5s3.16699 -0.5 4.5 -0.5c7.33301 0 12.666 1.83301 15.999 5.5
s5.5 8.16699 6.5 13.5s1.33301 10.666 1 15.999s-0.5 10 -0.5 14c0 19.333 -6.33301 36 -19 50s-31 21 -55 21c-26.667 0 -48.5 -6.83301 -65.5 -20.5s-30.5 -30.334 -40.5 -50.001s-16.833 -40.667 -20.5 -63s-5.5 -42.5 -5.5 -60.5
c0 -3.33301 1.83301 -10.166 5.5 -20.499s9 -22.5 16 -36.5s15.667 -28.667 26 -44s21.666 -29.5 33.999 -42.5s26 -23.833 41 -32.5s30.833 -13 47.5 -13c8 2.66699 15.167 7.83398 21.5 15.501s12.5 14.334 18.5 20.001s12.167 8.83398 18.5 9.50098s13.5 -4 21.5 -14
c0 -12 -2.5 -22.333 -7.5 -31s-11.667 -16 -20 -22s-17.833 -10.5 -28.5 -13.5s-21.667 -4.5 -33 -4.5c-37.333 0 -68.833 9.16699 -94.5 27.5s-46.667 41 -63 68s-28.166 56.333 -35.499 88s-11 60.834 -11 87.501z" />
    <glyph glyph-name="d" unicode="d" horiz-adv-x="556" 
d="M324 211c-7.33301 -23.333 -15.4961 -46.167 -24.4961 -68.5s-20 -42.5 -33 -60.5s-29 -32.5 -48 -43.5s-41.833 -16.5 -68.5 -16.5c-18 0 -34.5 5.83301 -49.5 17.5s-27.833 26.334 -38.5 44.001s-18.834 36.667 -24.501 57s-8.5 39.166 -8.5 56.499
c0 25.333 3.5 51.5 10.5 78.5s17.667 51.833 32 74.5s32.166 41.167 53.499 55.5s46.666 21.5 75.999 21.5c10.667 0 22 -3.66699 34 -11s23.833 -16.666 35.5 -27.999s22.5 -24.166 32.5 -38.499s18 -28.833 24 -43.5c2 9.33301 3.66699 27.333 5 54s3.33301 57 6 91
s6 69.5 10 106.5s9.5 70.833 16.5 101.5s15.667 56 26 76s23.166 30 38.499 30c0 -27.333 -2.5 -60.833 -7.5 -100.5s-10.5 -80.5 -16.5 -122.5s-11.5 -83 -16.5 -123s-7.5 -73.333 -7.5 -100c0 -14.667 -0.166992 -30.834 -0.5 -48.501s0 -35.834 1 -54.501
s3.33301 -36.834 7 -54.501s9.5 -33.834 17.5 -48.501s18.667 -27 32 -37s30.333 -16.333 51 -19c10 10.667 14.5 18.667 13.5 24s-3.66699 10.333 -8 15s-8 10.334 -11 17.001s-1.16699 17 5.5 31c0.666992 20.667 3.66699 31.334 9 32.001s10.833 -4.66602 16.5 -15.999
s10.834 -26.333 15.501 -45s6.83398 -36.834 6.50098 -54.501s-4 -32.667 -11 -45s-19.167 -17.833 -36.5 -16.5c-22.667 3.33301 -40.834 8.83301 -54.501 16.5s-24.667 17 -33 28s-14.833 23.333 -19.5 37l-14 42.5c-4.66699 14.667 -10.334 29.5 -17.001 44.5
s-15.667 29.5 -27 43.5zM72.0039 214.999c0 -8.66699 1.49902 -21.335 4.49902 -38.002s7.66699 -33.167 14 -49.5s14.333 -30.666 24 -42.999s21.5 -18.5 35.5 -18.5c22 0 40.5 6.66699 55.5 20s27.167 29.833 36.5 49.5s16 40.334 20 62.001s6 41.167 6 58.5
c0 12.667 -1.83301 26.5 -5.5 41.5s-9.16699 28.833 -16.5 41.5s-16.5 23.167 -27.5 31.5s-23.833 12.5 -38.5 12.5c-17.333 -5.33301 -32.166 -14.166 -44.499 -26.499s-23 -26.5 -32 -42.5s-16 -32.833 -21 -50.5s-8.5 -33.834 -10.5 -48.501z" />
    <glyph glyph-name="e" unicode="e" horiz-adv-x="406" 
d="M16 237l0.00488281 43.9971c0 13.333 0.5 26.333 1.5 39s2.66699 25.667 5 39s5.83301 28 10.5 44c8 18.667 19.667 34.667 35 48s32.666 23.833 51.999 31.5s39.666 12.334 60.999 14.001s42.666 0.5 63.999 -3.5c10.667 0 21.334 -2.33301 32.001 -7
s20.167 -10.667 28.5 -18s15 -15.5 20 -24.5s7.5 -18.167 7.5 -27.5c0 -21.333 -4.33301 -43.166 -13 -65.499s-21 -42.833 -37 -61.5s-35.167 -34 -57.5 -46s-47.5 -18 -75.5 -18c-18 0 -32.833 1.33301 -44.5 4s-26.167 10.334 -43.5 23.001
c-10 -20.667 -13.833 -42.834 -11.5 -66.501s9.66602 -45.667 21.999 -66s29.166 -37.166 50.499 -50.499s46.333 -20 75 -20c17.333 0 34.166 2.33301 50.499 7s30.666 11.5 42.999 20.5s22.333 19.833 30 32.5s11.5 27 11.5 43c0 14 -2.5 22.833 -7.5 26.5
s-10.833 5.5 -17.5 5.5s-13.5 0.5 -20.5 1.5s-12.167 6.16699 -15.5 15.5c2 8 7.33301 12.333 16 13s16.334 1 23.001 1c12 0 22.167 -2.5 30.5 -7.5s15.333 -11.333 21 -19s9.66699 -16.167 12 -25.5s3.5 -18.333 3.5 -27c0 -16 -6 -32.333 -18 -49s-27 -31.5 -45 -44.5
s-37.667 -23.667 -59 -32s-41.333 -12.5 -60 -12.5c-36 0 -65.5 8.16699 -88.5 24.5s-41.333 36.666 -55 60.999s-23.167 50.333 -28.5 78s-8 52.834 -8 75.501zM240.005 453.997c-30.667 4 -58.833 1.33203 -84.5 -8.00098s-46 -22.666 -61 -39.999s-23.333 -37 -25 -59
s5.5 -43.667 21.5 -65c2 0 6 -0.5 12 -1.5s12.333 -2 19 -3s12.834 -1.83301 18.501 -2.5s9.5 -1 11.5 -1c20 0 38.333 4.33301 55 13s31 19.667 43 33s21.333 28.333 28 45s10 33 10 49c0 17.333 -2.83301 28.333 -8.5 33s-18.834 7 -39.501 7z" />
    <glyph glyph-name="f" unicode="f" horiz-adv-x="346" 
d="M-37 -124c0 36.667 8.16797 68.8301 24.501 96.4971s35.333 53.834 57 78.501l63.5 73.5c20.667 24.333 35.334 51.5 44.001 81.5c6 20.667 10.167 46.834 12.5 78.501s5 65.5 8 101.5s7.33301 72.333 13 109s15 70.167 28 100.5s30.833 56.166 53.5 77.499
s52 34.666 88 39.999c11.333 2 20.833 1.5 28.5 -1.5s13.834 -7.5 18.501 -13.5s8 -13 10 -21s3 -16 3 -24c0 -13.333 -1.66699 -25.166 -5 -35.499s-14.333 -17.166 -33 -20.499v52l-14 4c-4 1.33301 -8 2.33301 -12 3s-7.33301 0.333984 -10 -0.999023
c-31.333 -9.33301 -55.833 -25.5 -73.5 -48.5s-30.834 -49 -39.501 -78s-14 -59.167 -16 -90.5s-3 -60.333 -3 -87v-20.5c0 -9.66699 0.166992 -20 0.5 -31s0.5 -21.167 0.5 -30.5v-20c23.333 11.333 48.166 21.5 74.499 30.5s52.833 13.5 79.5 13.5c8 0 16 -1 24 -3
s12 -8.66699 12 -20c0 -3.33301 -4.16699 -7.33301 -12.5 -12s-18.833 -9.5 -31.5 -14.5s-26.667 -10.167 -42 -15.5l-44 -15l-37.5 -13c-11 -4 -18.5 -7 -22.5 -9c0.666992 -18.667 2.16699 -42 4.5 -70s3.83301 -58 4.5 -90s0 -64.667 -2 -98s-6.83301 -64.5 -14.5 -93.5
s-19 -54.833 -34 -77.5s-34.833 -39 -59.5 -49c-0.666992 -0.666992 -1.33398 -1 -2.00098 -1h-4c-24.667 0 -45.834 4.5 -63.501 13.5s-32.167 21.167 -43.5 36.5s-19.666 32.833 -24.999 52.5s-8 40.167 -8 61.5zM5.00098 -130.004
c0 -10.667 0.50293 -22.6641 1.50293 -35.9971s3.83301 -25.833 8.5 -37.5s11.334 -21.5 20.001 -29.5s20.667 -12 36 -12c14 0 26 4.66699 36 14s18.167 20.833 24.5 34.5s11.166 28.167 14.499 43.5s5.33301 28.666 6 39.999c0 6 0.333008 15.167 1 27.5
s1.16699 26.166 1.5 41.499s0.666016 31.666 0.999023 48.999s0.666016 33.666 0.999023 48.999s0.666016 29 0.999023 41s0.5 21 0.5 27c-26 -23.333 -48.667 -46.833 -68 -70.5s-35.5 -46.667 -48.5 -69s-22.5 -43.166 -28.5 -62.499s-8.66699 -36 -8 -50z" />
    <glyph glyph-name="g" unicode="g" horiz-adv-x="384" 
d="M-4 -305c0 18.667 4.66406 37.8311 13.9971 57.498s21.833 37.667 37.5 54s33.334 30.166 53.001 41.499s39.5 18.333 59.5 21c6.66699 0.666992 15 0 25 -2s19.5 -5.5 28.5 -10.5s16.833 -11.333 23.5 -19s10 -16.5 10 -26.5
c-1.33301 -15.333 -4.66602 -23.666 -9.99902 -24.999s-11.666 0.666992 -18.999 6s-15 11.833 -23 19.5s-15 12.5 -21 14.5h-3c-1.33301 0 -2.16602 0.166992 -2.49902 0.5s-0.833008 0.5 -1.5 0.5c-14 0 -29.167 -4 -45.5 -12s-31.333 -18.333 -45 -31
s-25 -26.834 -34 -42.501s-13.5 -31.167 -13.5 -46.5c0 -16 3.5 -31 10.5 -45s16.167 -26.167 27.5 -36.5s24.5 -18.666 39.5 -24.999s30.5 -9.5 46.5 -9.5c26 0 47 9.5 63 28.5s28.333 43.333 37 73s14.667 62.5 18 98.5s5 71.167 5 105.5s-0.666992 65.5 -2 93.5
s-2 49 -2 63c-10.667 0 -21.167 -1.5 -31.5 -4.5s-20.666 -6.16699 -30.999 -9.5s-21 -6.5 -32 -9.5s-22.5 -4.5 -34.5 -4.5c-22 0 -40.333 3.66699 -55 11s-26.5 17.5 -35.5 30.5s-15.333 28 -19 45s-5.5 35.5 -5.5 55.5c0 26 4.16699 54.667 12.5 86
s20.666 60.333 36.999 87s36.833 49 61.5 67s53 27 85 27c25.333 0 46.166 -6.16699 62.499 -18.5s29.166 -28 38.499 -47s15.833 -39.667 19.5 -62s5.5 -43.5 5.5 -63.5c-10 -60.667 -15.833 -116.5 -17.5 -167.5s-3.5 -100.167 -5.5 -147.5
s-6.16699 -94.666 -12.5 -141.999s-19.166 -97.666 -38.499 -150.999c-19.333 -32.667 -40.833 -55.5 -64.5 -68.5s-53.167 -19.5 -88.5 -19.5c-17.333 0 -33.666 5.5 -48.999 16.5s-28.833 24.5 -40.5 40.5s-20.834 33.333 -27.501 52s-10 35.667 -10 51zM57.9971 152.997
c0 -26.667 6.16602 -49.333 18.499 -68s32.5 -28 60.5 -28c34 0 61.333 8.16699 82 24.5s36.334 36.833 47.001 61.5s17.667 51.834 21 81.501s5 57.5 5 83.5c0 18.667 -5.83301 35 -17.5 49s-27.5 21 -47.5 21c-11.333 0 -21.833 -1.83301 -31.5 -5.5
s-19 -8.33398 -28 -14.001s-17.833 -12 -26.5 -19l-25 -20.5c-6.66699 -11.333 -13.5 -24 -20.5 -38s-13.167 -28.5 -18.5 -43.5s-9.83301 -29.667 -13.5 -44s-5.5 -27.833 -5.5 -40.5z" />
    <glyph glyph-name="h" unicode="h" horiz-adv-x="391" 
d="M311 391c0 15.333 -5.50195 26.667 -16.502 34s-22.167 11 -33.5 11c-17.333 0 -34.333 -8 -51 -24s-32.5 -36.833 -47.5 -62.5s-29 -54.167 -42 -85.5s-24.333 -62.5 -34 -93.5s-17.5 -59.833 -23.5 -86.5s-9.66699 -48 -11 -64h-43c4 31.333 7.33301 67.833 10 109.5
s4.83398 85.334 6.50098 131.001s3 92.334 4 140.001s1.83301 93.5 2.5 137.5s1.33398 84.667 2.00098 122s1.33398 68.666 2.00098 93.999c0.666992 7.33301 2.16699 14.166 4.5 20.499s8.16602 9.5 17.499 9.5c7.33301 0 12.333 -2.83301 15 -8.5
s4.66699 -12.834 6 -21.501c0 -5.33301 0.166992 -15 0.5 -29l1 -44c0.333008 -15.333 0.5 -29.833 0.5 -43.5v-28.5c0 -29.333 -1.33301 -57.833 -4 -85.5l-8 -82c-2.66699 -27 -4.33398 -54.333 -5.00098 -82s1 -55.834 5 -84.501c12.667 17.333 25 38.5 37 63.5
s25.167 49 39.5 72s31 42.667 50 59s41.5 24.5 67.5 24.5c26.667 -10.667 47.334 -24.667 62.001 -42s25.167 -36.666 31.5 -57.999s9.5 -44.333 9.5 -69s-1 -49.5 -3 -74.5s-4.33301 -50 -7 -75s-3.33398 -48.5 -2.00098 -70.5c0 -7.33301 1.16699 -15.333 3.5 -24
s5 -17.5 8 -26.5l8.5 -26.5c2.66699 -8.66699 4 -16 4 -22c-1.33301 -6 -3.83301 -12.5 -7.5 -19.5s-7.83398 -11.5 -12.501 -13.5s-9.5 -0.166992 -14.5 5.5s-9.66699 17.834 -14 36.501s-8.16602 45.5 -11.499 80.5s-5.66602 80.5 -6.99902 136.5v159z" />
    <glyph glyph-name="i" unicode="i" horiz-adv-x="206" 
d="M69 43c0 30 0.333984 61.501 1.00098 94.501s1.66699 66.333 3 100s2.83301 67 4.5 100s3.5 64.167 5.5 93.5c6 10 12.333 15.5 19 16.5s12.667 -0.833008 18 -5.5s9.66602 -10.667 12.999 -18s5 -14 5 -20l-18 -373c-2 -9.33301 -5.66699 -15.833 -11 -19.5
s-11 -4.83398 -17 -3.50098s-11.333 5 -16 11s-7 14 -7 24zM28.001 647.001c1.33301 16 6.66895 31.501 16.002 46.501s20.666 28.167 33.999 39.5s27.333 19.833 42 25.5s28.334 7.5 41.001 5.5s23 -8.83301 31 -20.5s12 -29.167 12 -52.5c0 -14 -2 -29.5 -6 -46.5
s-10.333 -32.833 -19 -47.5s-19.334 -27 -32.001 -37s-28 -15 -46 -15c-9.33301 0 -18.333 4 -27 12s-16.334 17.5 -23.001 28.5s-12.167 22.167 -16.5 33.5s-6.5 20.666 -6.5 27.999zM87.0039 618.002c2 -2.66699 6.66895 -5.83301 14.002 -9.5s12.333 -5.5 15 -5.5
c9.33301 0 17.666 2.83301 24.999 8.5s13.5 12.834 18.5 21.501s8.83301 17.5 11.5 26.5s4 17.167 4 24.5c0 6 -1.5 10.5 -4.5 13.5s-6.83301 5.16699 -11.5 6.5s-9.66699 2 -15 2h-14c-10.667 0 -18.834 -0.666992 -24.501 -2s-10 -4 -13 -8s-4.83301 -9.33301 -5.5 -16
s-1 -15.334 -1 -26.001v-18.5c0 -9 0.333008 -14.833 1 -17.5z" />
    <glyph glyph-name="j" unicode="j" horiz-adv-x="312" 
d="M-113 -453c0 24.667 5.83301 47.6641 17.5 68.9971s27 39.833 46 55.5s40.167 27.834 63.5 36.501s46.666 13 69.999 13c9.33301 0 15.5 -3.16699 18.5 -9.5s4.5 -13.166 4.5 -20.499c0 -1.33301 -0.333008 -3.66602 -1 -6.99902s-1 -5.66602 -1 -6.99902
c-21.333 2.66699 -42.333 1.66699 -63 -3s-39.167 -12.834 -55.5 -24.501s-29.666 -26.167 -39.999 -43.5s-15.5 -37.333 -15.5 -60c0 -22 7.33301 -39.667 22 -53s31.334 -20 50.001 -20c36 0 66 12.167 90 36.5s43.667 55.666 59 93.999s26.833 80.833 34.5 127.5
s13.167 92.167 16.5 136.5s5 84.833 5 121.5v82c0 6 -0.833008 14.667 -2.5 26s-6.16699 21 -13.5 29c-4 -7.33301 -9.83301 -14.333 -17.5 -21s-16.334 -12.834 -26.001 -18.501s-19.5 -10.167 -29.5 -13.5s-19.333 -5 -28 -5c-2.66699 0 -6.83398 0.5 -12.501 1.5
s-11.5 2.33301 -17.5 4s-11.667 3.33398 -17 5.00098s-9 3.16699 -11 4.5c-0.666992 0.666992 -1 1.66699 -1 3v4c0 3.33301 4.83301 8.83301 14.5 16.5s21.834 16.334 36.501 26.001l48.5 30.5l50.5 29.5l42.5 23.5c12.333 6.66699 20.833 10.667 25.5 12
c0 -4.66699 0.166992 -12.5 0.5 -23.5s0.666016 -22.667 0.999023 -35s0.5 -24 0.5 -35v-22.5c0 -11.333 -0.333008 -30.166 -1 -56.499s-2 -56.833 -4 -91.5s-5.16699 -72.334 -9.5 -113.001s-10.333 -81.334 -18 -122.001s-17.167 -79.834 -28.5 -117.501
s-25.166 -71 -41.499 -100s-35.333 -52.167 -57 -69.5s-46.5 -26 -74.5 -26c-16 0 -31.833 3.83301 -47.5 11.5s-29.667 17.834 -42 30.501s-22.333 26.834 -30 42.501s-11.5 31.167 -11.5 46.5zM190 468.997l15.501 0.00292969c6.33301 0 12.333 -0.833008 18 -2.5
s10.667 -4.33398 15 -8.00098s6.5 -8.83398 6.5 -15.501c0 -7.33301 -1.5 -13.5 -4.5 -18.5s-6.83301 -10.833 -11.5 -17.5c-8.66699 -2 -15.667 -0.5 -21 4.5s-9.33301 11.167 -12 18.5s-4.33398 14.666 -5.00098 21.999s-1 13 -1 17z" />
    <glyph glyph-name="k" unicode="k" 
d="M87 219c-1.33301 0 -2.83203 -0.333984 -4.49902 -1.00098s-2.83398 -1 -3.50098 -1c0 -1.33301 0.333008 -7.16602 1 -17.499s1.16699 -23.166 1.5 -38.499s0.333008 -31.833 0 -49.5s-1.33301 -33.834 -3 -48.501s-4.16699 -27 -7.5 -37s-8 -15 -14 -15
c-9.33301 0 -16.666 2.33301 -21.999 7s-8 13 -8 25c0 29.333 0.5 61.833 1.5 97.5s2.33301 73 4 112s3.66699 78.667 6 119s4.83301 80 7.5 119l8 113c2.66699 36.333 5.66699 69.833 9 100.5c3.33301 5.33301 9.16602 7.83301 17.499 7.5s15.166 -0.5 20.499 -0.5
c0.666992 0 1.16699 -0.166992 1.5 -0.5s1.16602 -0.5 2.49902 -0.5h3l-7 -319v-54c23.333 0 43.666 4.5 60.999 13.5s33.833 19 49.5 30s31.334 21 47.001 30s33.5 13.5 53.5 13.5c0 -20 -4.33301 -36 -13 -48s-19.5 -21.833 -32.5 -29.5s-27.167 -13.834 -42.5 -18.501
s-29.5 -9.66699 -42.5 -15s-23.833 -11.833 -32.5 -19.5s-13 -18.167 -13 -31.5c1.33301 -9.33301 6.66602 -20.666 15.999 -33.999s21 -27.5 35 -42.5s29.333 -30.167 46 -45.5s33.167 -29.666 49.5 -42.999s31.5 -24.833 45.5 -34.5s25.333 -16.167 34 -19.5
c8.66699 0 17.834 3 27.501 9s18.5 13.333 26.5 22s14.5 18 19.5 28s7.5 19.333 7.5 28c0 23.333 -7 39.666 -21 48.999s-31.667 14 -53 14v30c14.667 0 29.167 -1 43.5 -3s27 -6 38 -12s19.833 -14.5 26.5 -25.5s10 -25.833 10 -44.5c0 -14 -3.5 -29.167 -10.5 -45.5
s-16.333 -31.5 -28 -45.5s-24.834 -25.5 -39.501 -34.5s-30 -13.5 -46 -13.5c-21.333 0 -40.833 5.5 -58.5 16.5s-34.5 24.5 -50.5 40.5s-31.167 33.667 -45.5 53s-28.166 37 -41.499 53s-26.666 29.5 -39.999 40.5s-26.666 16.5 -39.999 16.5z" />
    <glyph glyph-name="l" unicode="l" horiz-adv-x="324" 
d="M145 155c-14 0 -26.168 -4.3291 -36.501 -12.9961s-20.5 -18.334 -30.5 -29.001s-20.667 -20.334 -32 -29.001s-25 -13 -41 -13c-8 0 -16.5 1 -25.5 3s-13.5 8.66699 -13.5 20c0 8.66699 7 18 21 28s29.667 20.5 47 31.5s33.833 23 49.5 36s25.167 27.167 28.5 42.5v62.5
v83.5c0 30 0.333008 61 1 93s1.66699 62.667 3 92s3.33301 56 6 80s6 43 10 57c8.66699 15.333 16.334 27.833 23.001 37.5s13.667 17.167 21 22.5s15.333 9 24 11s19 3 31 3c14.667 0 25 -2 31 -6s10 -9.66699 12 -17s2.5 -16.333 1.5 -27s-1.16699 -23 -0.5 -37
c2 -59.333 -2.33301 -115.5 -13 -168.5s-23 -100.333 -37 -142s-26.833 -76.334 -38.5 -104.001s-17.5 -45.834 -17.5 -54.501c0 -16.667 2.33301 -34.5 7 -53.5s11.667 -36.5 21 -52.5s20.833 -29.167 34.5 -39.5s29.834 -15.5 48.501 -15.5c10.667 0 20.5 1.66699 29.5 5
s17.833 7.16602 26.5 11.499s17.5 8.16602 26.5 11.499s18.5 5 28.5 5c0 -11.333 -4.5 -22.333 -13.5 -33s-19.667 -20.167 -32 -28.5s-25.333 -15.166 -39 -20.499s-25.5 -8 -35.5 -8c-18.667 0 -35.834 5.33301 -51.501 16s-29 23.834 -40 39.501s-19.5 32.5 -25.5 50.5
s-9 34.333 -9 49zM138.999 431.004c2.66699 -37.333 6.49805 -62.001 11.498 -74.001s10.5 -14.667 16.5 -8s12.333 20.334 19 41.001s13 44.667 19 72s11.5 55.833 16.5 85.5s8.66699 56.834 11 81.501s3 44.667 2 60s-3.83301 22.333 -8.5 21
c-13.333 0 -24.666 -5.83301 -33.999 -17.5s-17.166 -26.334 -23.499 -44.001s-11.5 -37.5 -15.5 -59.5s-7 -43.333 -9 -64s-3.33301 -39.5 -4 -56.5s-1 -29.5 -1 -37.5z" />
    <glyph glyph-name="m" unicode="m" horiz-adv-x="812" 
d="M659 -1c-21.333 -4 -36.8359 0.161133 -46.5029 12.4941s-16.334 29.333 -20.001 51s-5.5 46.5 -5.5 74.5s-1.16699 56.167 -3.5 84.5s-6.83301 55.166 -13.5 80.499s-18.334 46 -35.001 62c-24.667 0 -45.5 -7.66699 -62.5 -23s-31.667 -34.333 -44 -57
s-23.166 -47.5 -32.499 -74.5l-26.5 -74.5c-8.33301 -22.667 -17 -41.667 -26 -57s-19.833 -23 -32.5 -23c-1.33301 0 -3.66602 0.333008 -6.99902 1s-5.66602 1.33398 -6.99902 2.00098v21.5c0 13 -0.166992 29.333 -0.5 49s-1.5 41 -3.5 64s-5.16699 45.167 -9.5 66.5
s-10 40 -17 56s-16.167 27 -27.5 33c-20.667 3.33301 -38 -2.16699 -52 -16.5s-26 -33.166 -36 -56.499s-19 -49.333 -27 -78s-16.167 -55.667 -24.5 -81s-17.833 -46.666 -28.5 -63.999s-23.667 -26.333 -39 -27c0 6.66699 0.833008 22.5 2.5 47.5
s3.83398 54.333 6.50098 88s5.83398 69.167 9.50098 106.5l10.5 103c3.33301 31.333 6.66602 57.166 9.99902 77.499s6 30.5 8 30.5h22c2.66699 -34 4.5 -60.5 5.5 -79.5s1.66699 -33.5 2 -43.5s0.333008 -16.667 0 -20s-0.5 -6.33301 -0.5 -9v-7
c8 15.333 15.667 27.833 23 37.5s15.166 17.334 23.499 23.001s17.333 9.66699 27 12s21.167 3.5 34.5 3.5c21.333 0.666992 38.666 -2 51.999 -8s23.833 -14.167 31.5 -24.5s13.167 -21.666 16.5 -33.999s6 -24.666 8 -36.999s4 -23.833 6 -34.5s5.33301 -19 10 -25
c34 64.667 65.5 110.667 94.5 138s55.333 41.166 79 41.499s44.334 -10.667 62.001 -33s31.667 -50.833 42 -85.5s16.833 -73.334 19.5 -116.001s1.33398 -84.334 -3.99902 -125.001c8 -12 18.5 -16.333 31.5 -13s25.667 10.5 38 21.5s23 24 32 39s14.167 28.167 15.5 39.5
c0 15.333 -4.83301 26.833 -14.5 34.5s-25.5 7.83398 -47.5 0.500977c0 0.666992 -0.166992 1.83398 -0.5 3.50098s-0.5 2.83398 -0.5 3.50098c0 11.333 4.16699 18 12.5 20s16.5 3 24.5 3c20.667 0 37 -4.5 49 -13.5s18 -23.833 18 -44.5c0 -16 -3.66699 -32.667 -11 -50
s-17.166 -33.166 -29.499 -47.499s-26.5 -26.166 -42.5 -35.499s-32.333 -14 -49 -14z" />
    <glyph glyph-name="n" unicode="n" horiz-adv-x="598" 
d="M273 407c-20 0 -38.6709 -7.66797 -56.0039 -23.001s-33.5 -34.833 -48.5 -58.5s-28.5 -50.334 -40.5 -80.001s-22.5 -58.667 -31.5 -87s-16.333 -54.666 -22 -78.999s-9.5 -43.166 -11.5 -56.499h-29c-1.33301 0 -2.83301 5.83301 -4.5 17.5s-3.16699 25.167 -4.5 40.5
l-4 45.5c-1.33301 15 -2 25.833 -2 32.5c0 3.33301 0.166992 12.5 0.5 27.5s1 33 2 54s2.16699 44.167 3.5 69.5s3 50.333 5 75s4.5 47.667 7.5 69s6.5 39 10.5 53c0.666992 2 2.83398 4.83301 6.50098 8.5s6.16699 5.83398 7.5 6.50098l15 -15v-246l36.5 60
c13.667 22 28.667 42.5 45 61.5s34.5 35 54.5 48s42 19.5 66 19.5c4.66699 0 11.5 -3.16699 20.5 -9.5s18 -22 27 -47s16.833 -62.833 23.5 -113.5s10 -120 10 -208c0 -4 2 -7 6 -9s8.5 -3.5 13.5 -4.5s9.83301 -1.5 14.5 -1.5h10c10.667 0 24 2.83301 40 8.5
s31.333 13 46 22s27.167 19.5 37.5 31.5s15.5 24 15.5 36c0 14.667 -3.66699 25.834 -11 33.501s-23.666 7.5 -48.999 -0.5c0 1.33301 -0.166992 3.83301 -0.5 7.5s-0.5 6.16699 -0.5 7.5c0 20 9.66699 30 29 30c20 0 37.333 -7.33301 52 -22s22 -32 22 -52
s-7.66699 -40.167 -23 -60.5s-34.166 -38.333 -56.499 -54s-46 -27.834 -71 -36.501s-47.5 -11.334 -67.5 -8.00098c-2.66699 0 -6.5 2.5 -11.5 7.5s-9.83301 10.667 -14.5 17s-8.83398 12.666 -12.501 18.999s-5.5 11.166 -5.5 14.499c0 76.667 -1.66699 137.5 -5 182.5
s-7.16602 79.333 -11.499 103s-9 39.334 -14 47.001s-9.16699 12.834 -12.5 15.501h-3c-1.33301 0 -2.16602 0.166992 -2.49902 0.5s-0.833008 0.5 -1.5 0.5z" />
    <glyph glyph-name="o" unicode="o" 
d="M21 195c0 20.667 1.49414 41.5039 4.49414 62.5039s7.83301 41.333 14.5 61s15.667 38.167 27 55.5s25.333 32.666 42 45.999l14 -29c-20.667 -33.333 -35.667 -65.166 -45 -95.499s-14 -64.833 -14 -103.5v-29.5c0 -9 0.833008 -17.667 2.5 -26s4.66699 -16.5 9 -24.5
s10.5 -16.333 18.5 -25c24.667 -20 50 -32.667 76 -38s51.333 -5 76 1s48 17.167 70 33.5s41.333 35.833 58 58.5s30 47.834 40 75.501s15.333 56.5 16 86.5c0.666992 15.333 -1.16602 31.666 -5.49902 48.999s-11 33 -20 47s-20.5 24.667 -34.5 32s-31 8.66602 -51 3.99902
c-18 0 -35.333 -2 -52 -6s-31.5 -10.333 -44.5 -19s-23.333 -20 -31 -34s-11.5 -31 -11.5 -51c0 -27.333 4.33301 -47.666 13 -60.999s27 -20 55 -20c10.667 0 20.5 1.66699 29.5 5s17.833 7.16602 26.5 11.499s17.334 8.16602 26.001 11.499s18 5 28 5
c0 -15.333 -3.66699 -28.833 -11 -40.5s-16.5 -21.167 -27.5 -28.5s-23.5 -12.833 -37.5 -16.5s-27.333 -5.5 -40 -5.5c-20 0 -36.833 4.5 -50.5 13.5s-24.667 20.667 -33 35s-14.166 30.166 -17.499 47.499s-5 34.333 -5 51c0 26.667 5 49.167 15 67.5
s23.167 33.333 39.5 45s35.333 20.167 57 25.5s44.5 8 68.5 8c26 0 48.833 -5.33301 68.5 -16s36 -25 49 -43s22.833 -38.5 29.5 -61.5s10 -46.833 10 -71.5c0 -20 -4.5 -41.667 -13.5 -65s-21.167 -46.5 -36.5 -69.5s-33.166 -44.833 -53.499 -65.5
s-41.833 -38.334 -64.5 -53.001s-45.834 -25.5 -69.501 -32.5s-46.5 -7.83301 -68.5 -2.5c-23.333 5.33301 -44.166 14.5 -62.499 27.5s-33.666 28.333 -45.999 46s-21.666 37 -27.999 58s-9.5 42.167 -9.5 63.5z" />
    <glyph glyph-name="p" unicode="p" horiz-adv-x="536" 
d="M196 -363c4.66699 16 8.83301 39.1689 12.5 69.502s7 64.333 10 102s5.83301 77.167 8.5 118.5l7.5 119l6.5 104.5c2 31.667 4 56.834 6 75.501c0 4 0.5 12.833 1.5 26.5s2 28.334 3 44.001s1.83301 30.334 2.5 44.001s1 22.5 1 26.5l43 -15l-1 -236
c10 -18.667 24.667 -30 44 -34s38.666 -1.83301 57.999 6.5s36.166 22.166 50.499 41.499s21.833 43 22.5 71c0 28 -5.33301 53.667 -16 77s-25 43.5 -43 60.5s-38.833 30.333 -62.5 40s-48.5 14.5 -74.5 14.5c-20.667 0 -43.167 -2.5 -67.5 -7.5
s-47.166 -13.333 -68.499 -25s-39.166 -26.834 -53.499 -45.501s-21.5 -41.334 -21.5 -68.001c0 -12 2.83301 -22.5 8.5 -31.5s8.5 -19.5 8.5 -31.5c-21.333 0 -36.833 6.66699 -46.5 20s-14.5 29.666 -14.5 48.999c0 32 10.167 61 30.5 87s45.5 47.667 75.5 65
s61.833 29.833 95.5 37.5s63.5 9.83398 89.5 6.50098s51.333 -13.833 76 -31.5s46.5 -38.667 65.5 -63s34.167 -50.5 45.5 -78.5s17 -54 17 -78c0 -29.333 -4.66699 -54.166 -14 -74.499s-21.166 -37.166 -35.499 -50.499s-30.333 -23.333 -48 -30
s-34.5 -10.834 -50.5 -12.501s-30.5 -1.33398 -43.5 0.999023s-22.167 6.16602 -27.5 11.499c-10 -35.333 -17 -72.5 -21 -111.5s-7 -77.333 -9 -115s-4.16699 -73 -6.5 -106s-6.5 -60.5 -12.5 -82.5c-2.66699 -6 -6.83398 -10.5 -12.501 -13.5s-11.5 -4.33301 -17.5 -4
s-11.167 2.66602 -15.5 6.99902s-6.5 10.833 -6.5 19.5z" />
    <glyph glyph-name="q" unicode="q" horiz-adv-x="326" 
d="M215 -51l-0.00195312 28.001c0 12 0.166992 23.667 0.5 35s0.666016 21.5 0.999023 30.5s0.5 14.167 0.5 15.5v29c-4.66699 -8 -10.667 -15.833 -18 -23.5s-15.5 -14.334 -24.5 -20.001s-18.667 -9.83398 -29 -12.501s-20.5 -3.33398 -30.5 -2.00098
c-16.667 2 -31.334 9.83301 -44.001 23.5s-23.167 29.5 -31.5 47.5s-14.666 36.5 -18.999 55.5s-6.5 34.833 -6.5 47.5c0 26 4.83301 51.167 14.5 75.5s22.834 46 39.501 65s36.334 34.333 59.001 46s47 17.5 73 17.5c23.333 0 42 -4 56 -12s24.667 -18.833 32 -32.5
s12 -29.834 14 -48.501s3 -39 3 -61c0 -20 -1.83301 -41.167 -5.5 -63.5s-11.834 -42.166 -24.501 -59.499c-3.33301 -30 -6 -56 -8 -78s-3.5 -42.833 -4.5 -62.5s-1.66699 -39.5 -2 -59.5s-0.5 -43 -0.5 -69c0 -10 -0.5 -24.333 -1.5 -43s-1.83301 -39 -2.5 -61
s-0.833984 -44.5 -0.500977 -67.5s1.83301 -43.667 4.5 -62s7 -33.5 13 -45.5s14 -18 24 -18c26.667 0.666992 48.334 8.33398 65.001 23.001s28.834 31.667 36.501 51s11.334 38.833 11.001 58.5s-4.16602 34.667 -11.499 45s-17.833 13.833 -31.5 10.5
s-29.834 -18.333 -48.501 -45c-10.667 0 -19.334 4.33301 -26.001 13s-7.66699 19.667 -3 33c0.666992 2 3.83398 6 9.50098 12s12.334 12.5 20.001 19.5s15.5 13.167 23.5 18.5s14.667 8 20 8c30 0 52.167 -7.5 66.5 -22.5s21.5 -36.167 21.5 -63.5
c0 -23.333 -3.5 -47.166 -10.5 -71.499s-17.333 -46.5 -31 -66.5s-30.667 -36.333 -51 -49s-43.5 -19 -69.5 -19c-19.333 0 -34.5 9 -45.5 27s-19.333 41 -25 69s-8.83398 59 -9.50098 93s-0.5 67 0.5 99s2.33301 60.833 4 86.5s2.5 44.167 2.5 55.5zM56.998 174.001
c-0.666992 -9.33301 0.666992 -19.167 4 -29.5s8 -20 14 -29s13.333 -16.333 22 -22s17.667 -8.5 27 -8.5c14 0 29 8.83301 45 26.5s30.833 38.5 44.5 62.5s24.834 48.333 33.501 73s13 43.667 13 57c0 26 -6.33301 42.5 -19 49.5s-29.334 10.5 -50.001 10.5
c-24 0 -44 -6.5 -60 -19.5s-29.333 -29 -40 -48s-18.5 -39.5 -23.5 -61.5s-8.5 -42.333 -10.5 -61z" />
    <glyph glyph-name="r" unicode="r" horiz-adv-x="384" 
d="M15 11c5.33301 9.33301 9.33496 24.333 12.002 45s4.66699 44.5 6 71.5s2.16602 55.833 2.49902 86.5s0.833008 60.167 1.5 88.5s1.83398 54.5 3.50098 78.5s4.66699 43 9 57s10.166 21.5 17.499 22.5s16.666 -6.83301 27.999 -23.5c15.333 28 31.5 48.833 48.5 62.5
s37.833 18.834 62.5 15.501c37.333 -5.33301 68 -17 92 -35s41.5 -36.833 52.5 -56.5s15.667 -36.834 14 -51.501s-9.5 -21 -23.5 -19c-6.66699 -3.33301 -11.667 -2.83301 -15 1.5s-6.83301 10.666 -10.5 18.999l-12.5 27.5c-4.66699 10 -11.334 19.5 -20.001 28.5
s-20 16.333 -34 22s-32 7.83398 -54 6.50098c-24.667 -0.666992 -44 -11 -58 -31s-24.5 -45.5 -31.5 -76.5s-11.5 -64.833 -13.5 -101.5s-3.33301 -71.667 -4 -105s-1.66699 -63 -3 -89s-4.66602 -43.333 -9.99902 -52l-60 8v0z" />
    <glyph glyph-name="s" unicode="s" horiz-adv-x="355" 
d="M13 116c0 2 0.171875 6.83301 0.504883 14.5s0.5 12.5 0.5 14.5l28 26c8 7.33301 16 13.5 24 18.5s16.333 8.66699 25 11s18.667 3.5 30 3.5c8 0 16 -1.83301 24 -5.5s15.167 -8.5 21.5 -14.5s11.666 -13 15.999 -21s6.5 -16.333 6.5 -25
c0 -9.33301 -5.33301 -16.666 -16 -21.999c-1.33301 2 -4 5 -8 9l-13 13l-13 13c-4 4 -7 6.66699 -9 8c-0.666992 0.666992 -1.83398 1.16699 -3.50098 1.5s-2.83398 0.5 -3.50098 0.5c-8.66699 0 -16.167 -2 -22.5 -6s-11.666 -9.16699 -15.999 -15.5
s-7.66602 -13.333 -9.99902 -21s-3.5 -15.167 -3.5 -22.5c0 -12.667 2.66699 -22.5 8 -29.5s12.166 -12.333 20.499 -16s17.666 -6 27.999 -7s20.5 -1.5 30.5 -1.5c14.667 0 29.167 1 43.5 3s27.166 5.83301 38.499 11.5s20.333 13.834 27 24.501s10 25 10 43
c0 21.333 -5 39 -15 53s-22.333 26.333 -37 37s-30.667 20.334 -48 29.001s-33.333 18.167 -48 28.5s-27 22.333 -37 36s-15 30.834 -15 51.501c0 19.333 5.16699 38.5 15.5 57.5s23.5 36.167 39.5 51.5s34 27.666 54 36.999s39.667 14 59 14c28.667 0 47.167 -6 55.5 -18
s12.5 -29.333 12.5 -52c0 -8 -0.5 -16.667 -1.5 -26s-3.16699 -18 -6.5 -26s-8.33301 -14.667 -15 -20s-15.667 -8 -27 -8c0 2 0.5 7.5 1.5 16.5s1.5 14.5 1.5 16.5c0 1.33301 0.833008 4.16602 2.5 8.49902s3.5 8.83301 5.5 13.5s3.66699 9.16699 5 13.5
s2 7.16602 2 8.49902c0 13.333 -2.5 21.666 -7.5 24.999s-11.833 5 -20.5 5c-12.667 0 -26 -2.83301 -40 -8.5s-26.833 -13 -38.5 -22s-21.334 -19.667 -29.001 -32s-11.5 -24.833 -11.5 -37.5c0 -8 2.66699 -17 8 -27s12.166 -19.333 20.499 -28s17.333 -16 27 -22
s18.834 -9 27.501 -9c21.333 0 38.666 -7.16699 51.999 -21.5s23.833 -31.333 31.5 -51s12.834 -39.667 15.501 -60s4 -36.5 4 -48.5c0 -2 -0.166992 -5.5 -0.5 -10.5s-0.5 -10.167 -0.5 -15.5s-0.166992 -10.333 -0.5 -15s-0.5 -8 -0.5 -10
c-17.333 -23.333 -39 -39 -65 -47s-52.333 -12 -79 -12c-19.333 0 -38.5 1.83301 -57.5 5.5s-36.167 10 -51.5 19s-27.833 21 -37.5 36s-14.5 33.833 -14.5 56.5z" />
    <glyph glyph-name="t" unicode="t" horiz-adv-x="409" 
d="M103 171c-5.33301 37.333 -8.16406 75.667 -8.49707 115s-3.5 81.666 -9.5 126.999c-6.66699 -0.666992 -13.667 -2 -21 -4s-14.666 -3.66699 -21.999 -5s-14.333 -1.5 -21 -0.5s-12.667 4.16699 -18 9.5c2.66699 16 4.16699 27 4.5 33s2.5 10.167 6.5 12.5
s11.333 4.16602 22 5.49902s28.334 5 53.001 11c4.66699 25.333 7.66699 47.5 9 66.5s2.16602 39.5 2.49902 61.5s1.33301 48.167 3 78.5s5.5 69.5 11.5 117.5c10.667 0 21.5 -0.833008 32.5 -2.5s17.167 -6.16699 18.5 -13.5c0.666992 -6 0.5 -16.5 -0.5 -31.5
s-2.5 -32.5 -4.5 -52.5s-4.33301 -41.333 -7 -64l-8 -65l-7 -56c-2 -16.667 -3 -28.667 -3 -36c9.33301 -1.33301 21.333 -2 36 -2s30.334 0.5 47.001 1.5s33.167 2.5 49.5 4.5s30.833 4.66699 43.5 8c6 -2.66699 10.167 -8.16699 12.5 -16.5
s4.16602 -15.166 5.49902 -20.499c1.33301 -7.33301 -0.666992 -13 -6 -17s-12.666 -6.66699 -21.999 -8l-162 -10c4 -22.667 6.5 -47.667 7.5 -75s1.66699 -54.666 2 -81.999s1.5 -54 3.5 -80s6 -48.667 12 -68s15.167 -34.5 27.5 -45.5s29.5 -15.5 51.5 -13.5
c17.333 6 32.5 16.167 45.5 30.5s23.333 30 31 47s12.5 33.667 14.5 50s1 29.333 -3 39s-11.333 14 -22 13s-25 -9.83301 -43 -26.5c-16.667 4.66699 -25.167 12.5 -25.5 23.5s4.16699 21.833 13.5 32.5s22.166 19 38.499 25s32.5 6 48.5 0
c13.333 -8 23.166 -20.333 29.499 -37s9.16602 -35.334 8.49902 -56.001s-4.33398 -41.667 -11.001 -63s-16 -41 -28 -59s-26.333 -33 -43 -45s-35 -18.333 -55 -19c-25.333 -3.33301 -46.333 -0.666016 -63 8.00098s-30.334 21 -41.001 37s-18.667 34.5 -24 55.5
s-9.33301 41.5 -12 61.5z" />
    <glyph glyph-name="u" unicode="u" horiz-adv-x="391" 
d="M174 -1c-34 8.66699 -61.1699 22.5 -81.5029 41.5s-35.833 41.333 -46.5 67s-17.667 53.834 -21 84.501s-4.66602 62.167 -3.99902 94.5s1.83398 64.333 3.50098 96s2.16699 61.5 1.5 89.5c0.666992 4.66699 2.16699 7.5 4.5 8.5s4.83301 1.33301 7.5 1
s5.33398 -1 8.00098 -2s4.33398 -1.5 5.00098 -1.5h9c0 -6.66699 -0.666992 -22.167 -2 -46.5s-1.83301 -52.5 -1.5 -84.5s2 -65.833 5 -101.5s9 -68.5 18 -98.5s21.5 -54.833 37.5 -74.5s37.333 -29.5 64 -29.5c21.333 0 39.833 8.83301 55.5 26.5s28.834 40 39.501 67
s19.167 56.667 25.5 89s11.333 63.5 15 93.5s6 56.833 7 80.5s1.83301 40.167 2.5 49.5h44c-1.33301 -16.667 -3 -39.5 -5 -68.5s-5.33301 -60.167 -10 -93.5s-11.334 -67 -20.001 -101s-20.167 -64.833 -34.5 -92.5s-31.833 -50.334 -52.5 -68.001
s-45.334 -26.5 -74.001 -26.5z" />
    <glyph glyph-name="v" unicode="v" horiz-adv-x="551" 
d="M268 0c-6 12.667 -12.0059 31.4932 -18.0059 56.4932s-12.167 52.833 -18.5 83.5l-19.5 96.5c-6.66699 33.667 -13.834 65.667 -21.501 96s-16.167 57.333 -25.5 81s-19.333 40.834 -30 51.501s-22.667 13.334 -36 8.00098s-27.666 -21.666 -42.999 -48.999v-15
c0 -5.33301 -0.333008 -10.5 -1 -15.5s-1.83398 -9.16699 -3.50098 -12.5s-4.16699 -5 -7.5 -5c-6 0 -10.667 1.5 -14 4.5s-5.83301 6.66699 -7.5 11s-2.5 9.16602 -2.5 14.499v14c0 12.667 2.33301 25.334 7 38.001s11.334 23.834 20.001 33.501s19 17.5 31 23.5s25 9 39 9
c26 -3.33301 47 -14 63 -32s28.833 -40 38.5 -66s16.834 -54.667 21.501 -86s8.83398 -62 12.501 -92s7.5 -58.167 11.5 -84.5s10 -47.166 18 -62.499c20.667 34.667 37 68.5 49 101.5l36 96.5c12 31.333 26.667 61.833 44 91.5s42 58.834 74 87.501
c0.666992 0 1.83398 0.333008 3.50098 1s3.16699 1 4.5 1c8 0 14.833 -3.5 20.5 -10.5s10.834 -13.833 15.501 -20.5c-28 -37.333 -51.667 -70.333 -71 -99s-36.833 -58.167 -52.5 -88.5s-30.667 -63.666 -45 -99.999s-30.833 -80.5 -49.5 -132.5
c-4 -12.667 -7.16699 -21 -9.5 -25s-8.83301 -6 -19.5 -6c-1.33301 0 -3.66602 0.166992 -6.99902 0.5s-5.66602 0.833008 -6.99902 1.5z" />
    <glyph glyph-name="w" unicode="w" horiz-adv-x="583" 
d="M265 290c-19.333 -76.667 -38.4971 -137.17 -57.4971 -181.503s-37.333 -75.666 -55 -93.999s-34.167 -24.666 -49.5 -18.999s-29 19.834 -41 42.501s-22 52.667 -30 90s-13.333 79 -16 125s-2.5 94.667 0.5 146s9.83301 102.666 20.5 153.999
c10.667 0 18.5 -0.333008 23.5 -1s8.5 -4.5 10.5 -11.5s2.66699 -18.667 2 -35s-1.33398 -40 -2.00098 -71s-0.833984 -71.167 -0.500977 -120.5s2.16602 -110.666 5.49902 -183.999c6.66699 -32.667 14 -52.5 22 -59.5s16.667 -5.16699 26 5.5s18.666 28.167 27.999 52.5
s18.5 51.666 27.5 81.999s17.667 62 26 95l22.5 90.5l17 69c4.66699 18.667 7.66699 28.667 9 30c0.666992 0 3.83398 -0.166992 9.50098 -0.5s11.834 -0.5 18.501 -0.5c7.33301 -0.666992 16 -1 26 -1c-7.33301 -28 -11 -59.667 -11 -95s2.66699 -71 8 -107
s12.833 -70.5 22.5 -103.5s20.5 -61.333 32.5 -85s24.833 -40.5 38.5 -50.5s27.167 -10.167 40.5 -0.5s26.333 31.167 39 64.5s23.667 81.666 33 144.999c0.666992 8.66699 1 24 1 46v70v70c0 22 -0.333008 37.333 -1 46c5.33301 10 12.666 15 21.999 15
s16.666 -5 21.999 -15c0 -5.33301 0.166992 -14.166 0.5 -26.499s0.666016 -25.333 0.999023 -39l1 -39.5c0.333008 -12.667 0.5 -21.334 0.5 -26.001c0 -12 -0.5 -29.5 -1.5 -52.5s-3.16699 -48 -6.5 -75s-8.16602 -54.5 -14.499 -82.5s-14.666 -53.5 -24.999 -76.5
s-23.166 -41.833 -38.499 -56.5s-33.666 -22 -54.999 -22c-26 0 -47 5.5 -63 16.5s-28.833 25.333 -38.5 43s-16.834 37.334 -21.501 59.001s-8.33398 43.334 -11.001 65.001l-7.5 61.5c-2.33301 19.333 -5.83301 35.333 -10.5 48z" />
    <glyph glyph-name="x" unicode="x" horiz-adv-x="596" 
d="M109 29l28.9961 28.5029l44 43.5l43.5 43.5c13.667 13.667 23.167 23.5 28.5 29.5c7.33301 7.33301 11.666 14.166 12.999 20.499s2 13.833 2 22.5c0 6.66699 -2.16699 16.5 -6.5 29.5s-9.83301 27.167 -16.5 42.5s-14.167 30.833 -22.5 46.5
s-16.666 29.834 -24.999 42.501s-16.166 23.167 -23.499 31.5s-13.333 12.5 -18 12.5c-7.33301 0 -17.666 -2.66699 -30.999 -8s-27.166 -10.333 -41.499 -15s-27.5 -7.16699 -39.5 -7.5s-19.667 4.5 -23 14.5c7.33301 10 16.833 19.167 28.5 27.5s24.334 15.5 38.001 21.5
s27.334 11 41.001 15s26.167 6.66699 37.5 8c2 0.666992 5.16699 0 9.5 -2s8.83301 -4.66699 13.5 -8s8.83398 -6.66602 12.501 -9.99902s6.16699 -6.33301 7.5 -9c4 -6.66699 10.833 -18.834 20.5 -36.501l31 -56.5l30.5 -57l20 -38
c16.667 -1.33301 32.667 4.33398 48 17.001s30.333 28.334 45 47.001s28.5 38.167 41.5 58.5s25.333 37.666 37 51.999s22.5 23.5 32.5 27.5s19.333 -0.666992 28 -14l-53 -61.5l-51 -59l-50 -60c-16.667 -20.333 -33 -42.166 -49 -65.499
c0 -0.666992 -0.166992 -1.83398 -0.5 -3.50098s-0.5 -2.83398 -0.5 -3.50098c0 -18.667 6 -36.334 18 -53.001s26.833 -31.334 44.5 -44.001s36.5 -22.834 56.5 -30.501s37.667 -11.5 53 -11.5c12 0 23.833 2.16699 35.5 6.5s22.167 10.5 31.5 18.5s16.833 17.333 22.5 28
s8.5 22.334 8.5 35.001h24c0 -17.333 -2.83301 -34.666 -8.5 -51.999s-13.834 -33 -24.501 -47s-23.5 -25.333 -38.5 -34s-31.833 -13 -50.5 -13s-35.167 4 -49.5 12s-27.666 17.833 -39.999 29.5s-24 24.167 -35 37.5s-21.833 25.333 -32.5 36s-21.834 19.167 -33.501 25.5
s-24.5 8.16602 -38.5 5.49902l-145 -145c-0.666992 -0.666992 -1.83398 -1 -3.50098 -1h-3.5c-7.33301 0 -12.5 3.16699 -15.5 9.5s-5.16699 13.166 -6.5 20.499z" />
    <glyph glyph-name="y" unicode="y" horiz-adv-x="424" 
d="M46 -268c0 39.333 12.3301 72.501 36.9971 99.501s56 44.5 94 52.5c12.667 3.33301 24.834 4.33301 36.501 3s21.334 -4.16602 29.001 -8.49902s12.5 -9.83301 14.5 -16.5s-0.333008 -13.667 -7 -21c-0.666992 -2.66699 -5.5 -4.33398 -14.5 -5.00098
s-19.667 -1.66699 -32 -3s-25.666 -3.5 -39.999 -6.5s-27.333 -8.5 -39 -16.5s-20.834 -18.667 -27.501 -32s-9 -31 -7 -53c8 -48.667 34.667 -73 80 -73c28 0 50.5 9.5 67.5 28.5s29.833 43 38.5 72s14.167 60.833 16.5 95.5s3.16602 68 2.49902 100s-2 60.5 -4 85.5
s-3 41.833 -3 50.5c-30 -39.333 -57.5 -65.166 -82.5 -77.499s-47.333 -15 -67 -8s-37 21.5 -52 43.5s-27.667 48.167 -38 78.5s-18.333 62.666 -24 96.999s-9 67.166 -10 98.499s-0.166992 59 2.5 83s7.66699 41 15 51c3.33301 7.33301 8.5 12.166 15.5 14.499
s14.167 3.5 21.5 3.5c0 -63.333 1.33301 -117.666 4 -162.999s6.16699 -83.166 10.5 -113.499s9.33301 -54.333 15 -72s11.5 -31 17.5 -40s11.833 -14.833 17.5 -17.5s10.834 -4 15.501 -4c30 0 54.833 9.33301 74.5 28s35.667 42 48 70s22.333 58.333 30 91l21.5 91
c6.66699 28 13.667 51.333 21 70s17 28 29 28c6 0 10.667 -1.5 14 -4.5s5.66602 -6.66699 6.99902 -11s2 -9.16602 2 -14.499v-14c0 -20 -1.33301 -37.333 -4 -52s-6.16699 -29.5 -10.5 -44.5l-14.5 -50.5c-5.33301 -18.667 -10.666 -42.334 -15.999 -71.001
c-4 -21.333 -5.5 -49.833 -4.5 -85.5s1.66699 -74 2 -115s-1.16699 -82.333 -4.5 -124s-11.166 -79.334 -23.499 -113.001s-30.5 -61.167 -54.5 -82.5s-56.333 -32 -97 -32c-36 0 -65.5 8.33301 -88.5 25s-34.5 45 -34.5 85z" />
    <glyph glyph-name="z" unicode="z" horiz-adv-x="567" 
d="M201 120c-12.667 1.33301 -24.8301 -0.494141 -36.4971 -5.49414s-22.834 -11.167 -33.501 -18.5s-20.667 -14.833 -30 -22.5s-17.5 -13.667 -24.5 -18s-12.833 -5.66602 -17.5 -3.99902s-7.66699 7.83398 -9 18.501c0 10 5.33301 23.5 16 40.5s24 35.667 40 56
s33.667 41.5 53 63.5l55 63l46 55c13.333 16.667 22 29.667 26 39c-2.66699 6 -9.5 10.5 -20.5 13.5s-24.333 5.16699 -40 6.5s-32.834 2.16602 -51.501 2.49902s-36.667 0.833008 -54 1.5s-33.333 1.83398 -48 3.50098s-26 4.83398 -34 9.50098l3 29h305
c6.66699 0 10.834 -2.5 12.501 -7.5s2.5 -9.5 2.5 -13.5c0 -1.33301 -0.166992 -2.83301 -0.5 -4.5s-0.5 -2.83398 -0.5 -3.50098c-3.33301 -14 -10.5 -30 -21.5 -48s-23.5 -36.5 -37.5 -55.5s-28.833 -37.833 -44.5 -56.5l-43 -50.5l-33 -37
c-9 -9.66699 -13.833 -15.167 -14.5 -16.5c23.333 4 41.666 3.83301 54.999 -0.5s24.166 -10.666 32.499 -18.999s15.5 -17.833 21.5 -28.5s13.167 -20.834 21.5 -30.501s19 -17.834 32 -24.501s31.167 -10 54.5 -10c10 0 22.333 1 37 3s28.5 5.66699 41.5 11
s24.167 12.833 33.5 22.5s14 22.167 14 37.5c0 8.66699 -1.83301 16 -5.5 22s-8.5 10.667 -14.5 14s-12.5 5.66602 -19.5 6.99902s-13.833 2 -20.5 2c-11.333 0 -19 -1.83301 -23 -5.5s-7.33301 -7.83398 -10 -12.501s-6 -8.83398 -10 -12.501s-11 -5.5 -21 -5.5
c0 27.333 5.66699 47.666 17 60.999s30.666 20 57.999 20c10.667 0 21.834 -2.33301 33.501 -7s22.167 -11 31.5 -19s16.833 -17.5 22.5 -28.5s7.5 -22.833 5.5 -35.5c-3.33301 -20 -10.333 -37.333 -21 -52s-23.834 -26.834 -39.501 -36.501s-32.5 -16.834 -50.5 -21.501
s-35.333 -7 -52 -7c-24 0 -44 2.66699 -60 8s-29.5 12.166 -40.5 20.499s-20 17.5 -27 27.5l-20 28c-6.33301 8.66699 -12.666 16 -18.999 22s-13.833 9.33301 -22.5 10z" />
    <glyph glyph-name="braceleft" unicode="{" horiz-adv-x="551" 
d="M269 -262c-40 1.33301 -74.4961 10.9961 -103.496 28.9961s-48.167 47.333 -57.5 88c-4.66699 54.667 -7.5 102.5 -8.5 143.5s-0.833008 77 0.5 108s3.5 58 6.5 81s6.16699 44 9.5 63l9.5 53c3 16.333 5.5 33.5 7.5 51.5c-9.33301 0 -20.666 -0.833008 -33.999 -2.5
s-26 -1.83398 -38 -0.500977s-22.333 5.33301 -31 12s-13 18.334 -13 35.001c0 0.666992 4.33301 5.16699 13 13.5l32.5 31.5l43 42l44.5 44.5c14 14.333 26.167 27.333 36.5 39s16.833 20.5 19.5 26.5c10 20 17.833 42.5 23.5 67.5s11 50.667 16 77s10.667 51.833 17 76.5
s15.666 46.834 27.999 66.501s28.5 35.334 48.5 47.001s46 17.5 78 17.5c9.33301 0 19.5 -0.333008 30.5 -1s21.167 -2.66699 30.5 -6s17.166 -8.5 23.499 -15.5s9.5 -17.167 9.5 -30.5c0 -7.33301 -1.33301 -13.5 -4 -18.5s-6.33398 -11.167 -11.001 -18.5
c-4 2.66699 -7.66699 7.16699 -11 13.5l-10 19.5c-3.33301 6.66699 -6.83301 12.5 -10.5 17.5s-7.83398 7.5 -12.501 7.5c-30 0 -54.5 -4.5 -73.5 -13.5s-33.833 -21 -44.5 -36s-18.334 -32.167 -23.001 -51.5s-8.33398 -39.166 -11.001 -59.499s-5 -40.833 -7 -61.5
s-5.66699 -39.334 -11 -56.001c-8 -26 -17.5 -49 -28.5 -69s-23.5 -38.667 -37.5 -56s-28.833 -34.5 -44.5 -51.5s-31.834 -35.5 -48.501 -55.5c27.333 1.33301 46.333 -5.16699 57 -19.5s16.167 -34.166 16.5 -59.499s-3 -54.666 -10 -87.999l-21 -104.5
c-7 -36.333 -12.333 -72.833 -16 -109.5s-2.66699 -71 3 -103s18 -60.333 37 -85s48.167 -43 87.5 -55c10.667 0 20 1.83301 28 5.5s15.833 7.66699 23.5 12s15.834 8.33301 24.501 12s19 5.5 31 5.5c0 -14.667 -3.66699 -27 -11 -37s-16.666 -18.167 -27.999 -24.5
s-23.833 -10.833 -37.5 -13.5s-26.5 -4 -38.5 -4z" />
    <glyph glyph-name="bar" unicode="|" horiz-adv-x="833" 
 />
    <glyph glyph-name="braceright" unicode="}" horiz-adv-x="239" 
d="M-232 -130c1.33301 0.666992 4.83301 1.16699 10.5 1.5s9.5 0.5 11.5 0.5c10 0 19.333 -1.66699 28 -5s17.167 -7 25.5 -11s16.833 -7.66699 25.5 -11s18 -5 28 -5c16 0 32.667 2.5 50 7.5s33.166 12.333 47.499 22s26 21.834 35 36.501s13.5 31.667 13.5 51l17 282
c0 21.333 2.16699 36.333 6.5 45s10 15 17 19s14.833 8.16699 23.5 12.5s17.334 12.833 26.001 25.5c-29.333 46 -44 96.667 -44 152c0 25.333 2.16699 45.833 6.5 61.5s9.66602 28.834 15.999 39.501s13.333 20.334 21 29.001s14.667 18.667 21 30s11.666 25 15.999 41
s6.5 37.333 6.5 64c2 12.667 2.5 27.167 1.5 43.5s-7 31 -18 44s-29.333 22.667 -55 29s-62.167 6.5 -109.5 0.5c2.66699 14 10.667 25 24 33s28.333 13.5 45 16.5s33.5 3.16699 50.5 0.5s30.5 -7.33398 40.5 -14.001c18.667 -10.667 32.334 -19.667 41.001 -27
s14.334 -15.5 17.001 -24.5s3.66699 -20 3 -33s-0.666992 -30.5 0 -52.5c0 -25.333 -2.16699 -46 -6.5 -62s-9.5 -29.5 -15.5 -40.5s-12.833 -20.667 -20.5 -29s-14.5 -17.666 -20.5 -27.999s-11.167 -22.833 -15.5 -37.5s-6.5 -33.667 -6.5 -57
c0 -19.333 3.16699 -38 9.5 -56s13.333 -35.667 21 -53s14.667 -34.333 21 -51s9.5 -32.667 9.5 -48c0 -14 -3.66699 -22.333 -11 -25s-15.833 -4.33398 -25.5 -5.00098s-19.334 -2.33398 -29.001 -5.00098s-17.167 -10.334 -22.5 -23.001v-10
c0 -4.66699 -0.166992 -9.83398 -0.5 -15.501s-0.5 -10.834 -0.5 -15.501v-10c0 -33.333 2.66699 -66.166 8 -98.499s8 -65.166 8 -98.499c0 -35.333 -6.16699 -66.833 -18.5 -94.5s-29.666 -51.167 -51.999 -70.5s-49.5 -34 -81.5 -44s-67.667 -15 -107 -15
c-25.333 0 -45 8 -59 24s-25 37.333 -33 64z" />
    <glyph glyph-name="asciitilde" unicode="~" horiz-adv-x="522" 
d="M145 508c-11.333 0 -22.498 -1.16406 -33.498 -3.49707s-21 -6.33301 -30 -12s-16.333 -13.334 -22 -23.001s-8.5 -21.5 -8.5 -35.5c0 -1.33301 2.33301 -3.66602 7 -6.99902s7 -5.66602 7 -6.99902c1.33301 -1.33301 2.33301 -5.83301 3 -13.5s1 -12.167 1 -13.5
c-16.667 0 -28.667 5.5 -36 16.5s-11 24.167 -11 39.5c0 14.667 3.83301 29 11.5 43s17.5 26.5 29.5 37.5s25.333 19.833 40 26.5s29 10 43 10c19.333 0 36.333 -4.33301 51 -13s27.667 -19.5 39 -32.5s22 -27.167 32 -42.5s20.333 -29.5 31 -42.5s22 -23.833 34 -32.5
s26 -13 42 -13c18.667 0 34 4.66699 46 14s21.5 21.166 28.5 35.499s12 30.166 15 47.499s5.16699 33.666 6.5 48.999h34c0 -17.333 -1.66699 -37 -5 -59s-9.16602 -42.833 -17.499 -62.5s-19.666 -36.334 -33.999 -50.001s-32.5 -20.5 -54.5 -20.5
c-19.333 0 -36.333 4 -51 12s-27.834 18.167 -39.501 30.5s-22.834 25.5 -33.501 39.5s-21.834 27.167 -33.501 39.5s-24.834 22.5 -39.501 30.5s-32 12 -52 12z" />
    <glyph glyph-name="exclamdown" unicode="&#xa1;" horiz-adv-x="178" 
d="M64.6016 838.011l-0.000976562 -17.8613c0 -6.30371 1.32031 -12.2578 3.96094 -17.8613c2.6416 -5.60352 6.60352 -10.5068 11.8857 -14.71c5.28223 -4.20215 13.2051 -7.35449 23.7686 -9.45605c14.9658 -2.10059 26.4102 -2.4502 34.333 -1.04883
c7.92285 1.40039 13.8652 4.20215 17.8271 8.40527c3.96094 4.20215 6.38184 9.45508 7.2627 15.7588c0.879883 6.30371 1.32031 12.958 1.32031 19.9619c0 16.1104 -4.18164 30.9951 -12.5449 44.6543s-23.9893 20.4883 -46.8779 20.4883
c-20.2471 0 -32.1318 -4.55273 -35.6533 -13.6592c-3.52051 -9.10547 -5.28125 -20.6631 -5.28125 -34.6719zM91.0098 585.852c-0.879883 -14.709 -1.31836 -33.2686 -1.31836 -55.6826s0.219727 -46.7539 0.660156 -73.0205s0.660156 -53.4092 0.660156 -81.4268v-81.4258
v-73.0205c0 -22.4141 -0.44043 -40.9756 -1.32031 -55.6855v-46.2285v-30.4697c11.4443 -12.6074 21.3477 -16.46 29.71 -11.5566c8.36328 4.90332 14.7461 14.5342 19.1475 28.8926c4.40137 14.3594 7.48242 31.3447 9.24316 50.957s1.76074 37.4736 0 53.584
l-5.28125 375.085c-5.28223 0 -11.0049 0.700195 -17.168 2.10156c-6.16211 1.40137 -11.6641 2.45215 -16.5059 3.15234s-8.80371 0.875 -11.8848 0.524414s-5.06152 -2.27734 -5.94238 -5.78027z" />
    <glyph glyph-name="cent" unicode="&#xa2;" horiz-adv-x="341" 
d="M27 268c0 34.667 5.99902 63.9971 17.999 87.9971s28.333 43.333 49 58s45.167 25.5 73.5 32.5s59.166 11.167 92.499 12.5c14.667 -4 26 -9.66699 34 -17s13.833 -16 17.5 -26s5.83398 -20.833 6.50098 -32.5s1 -23.167 1 -34.5c0 -18.667 -4.5 -35.834 -13.5 -51.501
s-25.833 -23.5 -50.5 -23.5c-13.333 -4 -24.166 -2.66699 -32.499 4s-13.333 13.667 -15 21s0.333008 12.333 6 15s16.167 -1.66602 31.5 -12.999c0.666992 0 1.83398 -0.166992 3.50098 -0.5s3.16699 -0.5 4.5 -0.5c7.33301 0 12.666 1.83301 15.999 5.5
s5.5 8.16699 6.5 13.5s1.33301 10.666 1 15.999s-0.5 10 -0.5 14c0 19.333 -6.33301 36 -19 50s-31 21 -55 21c-26.667 0 -48.5 -6.83301 -65.5 -20.5s-30.5 -30.334 -40.5 -50.001s-16.833 -40.667 -20.5 -63s-5.5 -42.5 -5.5 -60.5
c0 -3.33301 1.83301 -10.166 5.5 -20.499s9 -22.5 16 -36.5s15.667 -28.667 26 -44s21.666 -29.5 33.999 -42.5s26 -23.833 41 -32.5s30.833 -13 47.5 -13c8 2.66699 15.167 7.83398 21.5 15.501s12.5 14.334 18.5 20.001s12.167 8.83398 18.5 9.50098s13.5 -4 21.5 -14
c0 -12 -2.5 -22.333 -7.5 -31s-11.667 -16 -20 -22s-17.833 -10.5 -28.5 -13.5s-21.667 -4.5 -33 -4.5c-37.333 0 -68.833 9.16699 -94.5 27.5s-46.667 41 -63 68s-28.166 56.333 -35.499 88s-11 60.834 -11 87.501zM127.999 575.997h51v-663h-51v663z" />
    <glyph glyph-name="yen" unicode="&#xa5;" horiz-adv-x="681" 
d="M26 21c2.66699 14.667 7.66797 29.0029 15.001 43.0029s16.166 26.667 26.499 38s21.833 20.5 34.5 27.5s26.334 10.5 41.001 10.5c12.667 -5.33301 19.5 -10.833 20.5 -16.5s-1.5 -12 -7.5 -19s-14.167 -14.333 -24.5 -22s-20.333 -15.834 -30 -24.501
s-17.834 -17.834 -24.501 -27.501s-9.33398 -19.834 -8.00098 -30.501c0 -14 2.83301 -28.667 8.5 -44s13.167 -29.5 22.5 -42.5s20.333 -23.667 33 -32s26 -12.5 40 -12.5c42.667 0.666992 80.834 13.167 114.501 37.5s63.5 56 89.5 95s48.5 83 67.5 132
s35.5 98.167 49.5 147.5s25.833 96.833 35.5 142.5l25.5 117.5c-6 -23.333 -19.167 -44.166 -39.5 -62.499s-43.833 -34.166 -70.5 -47.499s-54 -23.5 -82 -30.5s-52.667 -10.5 -74 -10.5c-44.667 0 -80.834 12.167 -108.501 36.5s-49.167 54.5 -64.5 90.5
s-25.666 74.667 -30.999 116s-8 79 -8 113c0 4 0.166992 11.333 0.5 22s0.5 21.667 0.5 33s0.166992 22.166 0.5 32.499s0.5 17.5 0.5 21.5c2 10 5.66699 18.833 11 26.5s11.166 13 17.499 16s12.333 3.5 18 1.5s9.5 -7 11.5 -15
c-3.33301 -12.667 -6.16602 -23.834 -8.49902 -33.501s-4 -19.167 -5 -28.5s-1.66699 -19.333 -2 -30s-0.5 -23.334 -0.5 -38.001c0 -26.667 1.83301 -57.5 5.5 -92.5s11.334 -68.333 23.001 -100s28.5 -58.5 50.5 -80.5s51 -33 87 -33c43.333 -2 80.666 4.33301 111.999 19
s58.166 34.667 80.499 60s40.833 54 55.5 86s27 64.5 37 97.5s18.167 64.5 24.5 94.5s12.333 55.667 18 77s11.834 36.5 18.501 45.5s15.334 8.83301 26.001 -0.5c5.33301 -5.33301 7.16602 -25.166 5.49902 -59.499s-6.33398 -77.833 -14.001 -130.5
s-18.5 -111.667 -32.5 -177s-30.833 -131.833 -50.5 -199.5s-42 -133.5 -67 -197.5s-52.5 -121 -82.5 -171s-62.333 -90.167 -97 -120.5s-71.667 -45.5 -111 -45.5c-23.333 0 -47.166 4.83301 -71.499 14.5s-45.666 23.167 -63.999 40.5s-32.333 38 -42 62
s-11.834 50 -6.50098 78zM-27.999 213.003c120.667 0 240.168 2.99707 358.501 8.99707s237.5 9 357.5 9h6c2 -2 5 -6.66699 9 -14s6 -12.333 6 -15c0 -2 -2 -4.83301 -6 -8.5s-7 -5.5 -9 -5.5c-30.667 -3.33301 -64.834 -6.66602 -102.501 -9.99902s-76 -6.33301 -115 -9
s-77.333 -5 -115 -7s-71.834 -3 -102.501 -3c-3.33301 0 -10.5 0.333008 -21.5 1s-24 1.5 -39 2.5s-30.833 2 -47.5 3s-32.5 2 -47.5 3s-28.167 2 -39.5 3s-18.666 1.5 -21.999 1.5c-6.66699 0.666992 -14 1.33398 -22 2.00098s-15.5 2.33398 -22.5 5.00098
s-13 6.5 -18 11.5s-7.5 12.167 -7.5 21.5zM448.002 492c7.33301 0 17.4971 0.49707 30.4971 1.49707s27.167 1.83301 42.5 2.5s30.833 0.833984 46.5 0.500977s30 -2.16602 43 -5.49902s23.5 -8.66602 31.5 -15.999s12 -17.333 12 -30c-11.333 0 -28.5 -0.5 -51.5 -1.5
s-48.167 -2.16699 -75.5 -3.5s-55.166 -2.5 -83.499 -3.5s-53.666 -1.33301 -75.999 -1s-40.166 1.33301 -53.499 3s-18.333 4.66699 -15 9s16.5 10 39.5 17s59.5 16.167 109.5 27.5z" />
    <glyph glyph-name="dieresis" unicode="&#xa8;" horiz-adv-x="833" 
d="M168 910c0 14.667 4.99902 25.667 14.999 33s21.667 11 35 11c2 0 5.83301 -0.166992 11.5 -0.5s11.5 -1 17.5 -2s11.333 -2.5 16 -4.5s7 -5 7 -9c0 -18 -1.16699 -32.5 -3.5 -43.5s-5 -19.5 -8 -25.5s-6.16699 -10.333 -9.5 -13s-6 -4.33398 -8 -5.00098
c-11.333 -9.33301 -21.5 -13.333 -30.5 -12s-16.667 5.83301 -23 13.5s-11.166 16.834 -14.499 27.501s-5 20.667 -5 30zM361.999 916c0 14.667 4.99902 25.667 14.999 33s21.667 11 35 11c2 0 5.83301 -0.166992 11.5 -0.5s11.5 -1 17.5 -2s11.333 -2.5 16 -4.5s7 -5 7 -9
c0 -18 -1.16699 -32.5 -3.5 -43.5s-5 -19.5 -8 -25.5s-6.16699 -10.333 -9.5 -13s-6 -4.33398 -8 -5.00098c-11.333 -9.33301 -21.5 -13.333 -30.5 -12s-16.667 5.83301 -23 13.5s-11.166 16.834 -14.499 27.501s-5 20.667 -5 30z" />
    <glyph glyph-name="copyright" unicode="&#xa9;" horiz-adv-x="1188" 
d="M330 437c0 54.667 6 105.333 18 152s30.833 87.167 56.5 121.5s58.667 61.333 99 81s88.5 29.5 144.5 29.5c39.333 0 70.5 -6.16699 93.5 -18.5s40.333 -29.666 52 -51.999s19 -49 22 -80s4.5 -64.833 4.5 -101.5c0 -20.667 -2.66699 -35.5 -8 -44.5s-13 -15 -23 -18
s-22.167 -4 -36.5 -3s-30.5 1.5 -48.5 1.5c0 26.667 2.16699 45.834 6.5 57.501s9.66602 18.667 15.999 21s13.333 1.83301 21 -1.5l21 -9.5c6.33301 -3 11.666 -4.16699 15.999 -3.5s6.5 6.66699 6.5 18c0 30 -1.5 56.167 -4.5 78.5s-9.16699 40.833 -18.5 55.5
s-22.333 25.667 -39 33s-38.667 11 -66 11c-54 0 -99.5 -6.83301 -136.5 -20.5s-67 -34.334 -90 -62.001s-39.5 -62.167 -49.5 -103.5s-15 -89.666 -15 -144.999c0 -44 4.5 -84.833 13.5 -122.5s24.333 -70.167 46 -97.5s50.167 -48.666 85.5 -63.999s79 -23 131 -23
c6 0 15.5 3.66699 28.5 11s27.667 16.666 44 27.999s33.333 24 51 38s34 27.667 49 41s27.5 25.5 37.5 36.5s16 19.5 18 25.5c2 -2 4.66699 -4.83301 8 -8.5s6.5 -7.66699 9.5 -12s5.5 -8.5 7.5 -12.5s2.66699 -7 2 -9c-2.66699 -7.33301 -10.167 -16.833 -22.5 -28.5
s-27.166 -24 -44.499 -37s-36.166 -26.333 -56.499 -40s-39.833 -25.834 -58.5 -36.501s-35.5 -19.334 -50.5 -26.001s-25.833 -10 -32.5 -10c-54 0 -100.5 9.5 -139.5 28.5s-71 44.5 -96 76.5s-43.333 69.167 -55 111.5s-17.5 86.833 -17.5 133.5zM399 -111.001
c-78 52 -140.666 112.002 -187.999 180.002s-79.5 141 -96.5 219s-18.667 159.5 -5 244.5s42.5 170.167 86.5 255.5c34.667 50 71 94.667 109 134s79 72.666 123 99.999s92.167 48.333 144.5 63s110.5 22 174.5 22c77.333 0 141.833 -14.167 193.5 -42.5
s92.334 -66.333 122.001 -114s49.167 -102.834 58.5 -165.501s10.166 -128.167 2.49902 -196.5s-22.834 -137.5 -45.501 -207.5s-51.334 -136 -86.001 -198s-74.167 -118.167 -118.5 -168.5s-92.166 -90 -143.499 -119s-105 -45.167 -161 -48.5s-112.667 10.667 -170 42z
M551.001 -81.999c44.667 0 91.335 14.999 140.002 44.999s95.334 69.833 140.001 119.5s85.5 106.5 122.5 170.5s66.333 130 88 198s33.5 135.333 35.5 202s-9.33301 127.667 -34 183s-64.834 102 -120.501 140s-130.834 62.667 -225.501 74
c-72 0 -135.833 -10.833 -191.5 -32.5s-103.834 -51.5 -144.501 -89.5s-74.5 -82.5 -101.5 -133.5s-48 -105.667 -63 -164s-24.833 -118.666 -29.5 -180.999s-4.66699 -123.5 0 -183.5c12 -45.333 29 -89 51 -131s49 -79 81 -111s69 -57.667 111 -77s89 -29 141 -29z" />
    <glyph glyph-name="registered" unicode="&#xae;" horiz-adv-x="1112" 
d="M355 494c-0.666992 -19.333 -3.00195 -43.8359 -7.00195 -73.5029l-12.5 -92l-13 -92.5c-4.33301 -30 -7.16602 -54.667 -8.49902 -74h-25c0 17.333 0.833008 44.833 2.5 82.5s4.16699 79.334 7.5 125.001s7.5 92.667 12.5 141s10.833 92.333 17.5 132
s14 72.334 22 98.001s17 38.5 27 38.5c0 -43.333 -3.66699 -86.666 -11 -129.999s-11 -86.666 -11 -129.999c21.333 -2.66699 47.166 -2.66699 77.499 0s60.5 10.167 90.5 22.5s57.333 30.5 82 54.5s42 56.667 52 98c0 22.667 -7.33301 42 -22 58s-32.5 29 -53.5 39
s-43 17.333 -66 22s-42.833 7 -59.5 7c-21.333 0 -40.666 -2 -57.999 -6s-34.166 -9.16699 -50.499 -15.5s-32.666 -13.333 -48.999 -21l-52.5 -23.5c0 1.33301 -0.166992 3.16602 -0.5 5.49902s-0.5 4.16602 -0.5 5.49902c0 21.333 9.5 37.833 28.5 49.5
s41.167 20.334 66.5 26.001s50.666 9.16699 75.999 10.5s44.333 2 57 2c30.667 -1.33301 58.5 -6.16602 83.5 -14.499s46.5 -20 64.5 -35s32.167 -32.667 42.5 -53s15.833 -43.166 16.5 -68.499c0 -26 -6.5 -48.667 -19.5 -68s-29.333 -36.333 -49 -51
s-40.834 -27.667 -63.501 -39s-44 -21.333 -64 -30l-1 -5c16 -25.333 31.833 -55 47.5 -89s33.5 -66.667 53.5 -98s43 -58 69 -80s57.667 -33.333 95 -34c10.667 0 22.167 1.83301 34.5 5.5s23.666 9.16699 33.999 16.5s18.833 17 25.5 29s10 26 10 42
c0 6.66699 -1.16699 14.167 -3.5 22.5s-5.5 16.166 -9.5 23.499s-9 13.666 -15 18.999s-12.667 8 -20 8c-18.667 0 -34.5 -3.66699 -47.5 -11s-21.167 -22 -24.5 -44c-5.33301 6 -8.5 11.167 -9.5 15.5s-1.5 9.83301 -1.5 16.5c0 10.667 2.33301 19.5 7 26.5
s10.5 12.667 17.5 17s15 7.33301 24 9s18.167 2.5 27.5 2.5c14 0 26.333 -3 37 -9s19.667 -14 27 -24s13 -21.167 17 -33.5s6 -24.833 6 -37.5c0.666992 -25.333 -3.5 -46.166 -12.5 -62.499s-21.167 -29 -36.5 -38s-32.833 -15.167 -52.5 -18.5s-40.167 -5 -61.5 -5
c-33.333 11.333 -60.666 26.666 -81.999 45.999s-39.666 40.5 -54.999 63.5s-29.333 46.5 -42 70.5s-27 46.667 -43 68s-35.333 39.833 -58 55.5s-51.667 26.5 -87 32.5zM342.998 -121.003c-78 52 -140.666 112.002 -187.999 180.002s-79.5 141 -96.5 219
s-18.667 159.5 -5 244.5s42.5 170.167 86.5 255.5c34.667 50 71 94.667 109 134s79 72.666 123 99.999s92.167 48.333 144.5 63s110.5 22 174.5 22c77.333 0 141.833 -14.167 193.5 -42.5s92.334 -66.333 122.001 -114s49.167 -102.834 58.5 -165.501
s10.166 -128.167 2.49902 -196.5s-22.834 -137.5 -45.501 -207.5s-51.334 -136 -86.001 -198s-74.167 -118.167 -118.5 -168.5s-92.166 -90 -143.499 -119s-105 -45.167 -161 -48.5s-112.667 10.667 -170 42zM494.999 -92.001c44.667 0 91.335 14.999 140.002 44.999
s95.334 69.833 140.001 119.5s85.5 106.5 122.5 170.5s66.333 130 88 198s33.5 135.333 35.5 202s-9.33301 127.667 -34 183s-64.834 102 -120.501 140s-130.834 62.667 -225.501 74c-72 0 -135.833 -10.833 -191.5 -32.5s-103.834 -51.5 -144.501 -89.5
s-74.5 -82.5 -101.5 -133.5s-48 -105.667 -63 -164s-24.833 -118.666 -29.5 -180.999s-4.66699 -123.5 0 -183.5c12 -45.333 29 -89 51 -131s49 -79 81 -111s69 -57.667 111 -77s89 -29 141 -29z" />
    <glyph glyph-name="twosuperior" unicode="&#xb2;" horiz-adv-x="439" 
d="M184.017 604.41c-6.89355 0 -13.7021 -1.18359 -20.4316 -3.54883s-13.7871 -4.9873 -21.1729 -7.86621s-15.0176 -5.50098 -22.8955 -7.86621c-7.87793 -2.36426 -16.248 -3.54688 -25.1104 -3.54688c-5.58105 0 -10.1768 0.0517578 -13.7871 0.154297
s-6.56445 0.56543 -8.8623 1.3877c-2.29785 0.823242 -3.85742 2.16016 -4.67871 4.01074c-0.820312 1.85059 -1.23047 4.52344 -1.23047 8.01855c0 5.75879 2.05176 10.4893 6.1543 14.1914c4.10254 3.70117 9.35449 6.58008 15.7559 8.63672
s13.7871 3.49609 22.1572 4.31836c8.37012 0.823242 16.7402 1.23438 25.1104 1.23438s16.5762 -0.206055 24.6182 -0.617188s15.0176 -0.719727 20.9258 -0.925781c16.085 8.43164 31.1025 18.6113 45.0527 30.5391s26.0947 24.627 36.4336 38.0967
c10.3398 13.4697 18.5459 27.248 24.6191 41.335c6.07227 14.0869 9.1084 27.5059 9.1084 40.2568c0 8.02051 -1.6416 15.4756 -4.92383 22.3652c-3.28223 6.88867 -8.37012 12.8525 -15.2637 17.8906s-15.6738 8.94531 -26.3418 11.7217s-23.5518 4.16406 -38.6514 4.16406
c-8.20605 0 -16.248 -0.513672 -24.126 -1.54199s-15.6738 -2.2627 -23.3877 -3.70215s-15.4277 -2.98145 -23.1416 -4.62695s-15.5098 -2.98242 -23.3877 -4.01074c-0.328125 6.16992 3.77539 10.9004 12.3096 14.1904s18.4639 5.65527 29.7881 7.09473
c11.3252 1.43945 22.4854 2.26172 33.4814 2.46777s18.9561 0.308594 23.8799 0.308594c13.1299 0.616211 26.4238 -0.823242 39.8818 -4.31934c13.458 -3.49512 25.1934 -8.32812 35.2051 -14.498c10.0107 -6.16895 17.5605 -13.418 22.6484 -21.7471
s5.99023 -17.0176 2.70801 -26.0654c0 -13.7783 -3.77441 -27.5566 -11.3242 -41.335s-16.9873 -27.2998 -28.3125 -40.5645c-11.3242 -13.2646 -23.7158 -26.0146 -37.1738 -38.251l-37.4199 -34.0859c0 -2.87891 4.26758 -6.2207 12.8018 -10.0254
c8.53418 -3.80371 20.7617 -7.55664 36.6826 -11.2588c15.9199 -3.70215 35.3682 -6.88965 58.3457 -9.5625c22.9775 -2.67383 48.9092 -4.31934 77.7949 -4.93555l-21.6641 -13.5732c-17.7256 -3.08496 -34.6299 -3.08496 -50.7139 0s-31.5117 7.24902 -46.2832 12.4932
l-43.082 15.2695c-13.9502 4.93555 -27.9824 7.71191 -42.0967 8.3291zM102.286 613.046c-3.61035 0 -6.97559 -0.925781 -10.0938 -2.77637s-5.82617 -4.06152 -8.12402 -6.63184s-4.02148 -5.24414 -5.16992 -8.02051
c-1.14941 -2.77637 -1.72363 -5.08984 -1.72363 -6.94043c8.20605 1.02832 17.8896 2.57031 29.0498 4.62695c11.1611 2.05664 21.665 4.31836 31.5117 6.78613c9.84766 2.46777 18.0537 4.83301 24.6182 7.09473c6.56543 2.2627 9.35547 4.11328 8.37109 5.55273
c-0.985352 1.43945 -6.64746 2.26172 -16.9873 2.46777s-27.4902 -0.513672 -51.4521 -2.15918z" />
    <glyph glyph-name="threesuperior" unicode="&#xb3;" horiz-adv-x="245" 
d="M52.0508 429.377c7.65137 0 14.7529 -1.24805 21.3105 -3.74023c6.55762 -2.49121 13.7988 -3.7373 21.7227 -3.7373c16.667 0 32.583 2.33594 47.748 7.00781c15.165 4.67285 28.4854 11.9932 39.9609 21.9609s20.6289 22.5049 27.46 37.6113
s10.2461 33.25 10.2461 54.4307c0 26.7881 -6.96777 47.3457 -20.9023 61.6738s-32.3779 21.4922 -55.3301 21.4922c-5.7373 0 -11.3389 -0.77832 -16.8037 -2.33594s-10.793 -3.19336 -15.9844 -4.90625l-15.5742 -4.90625
c-5.19141 -1.55762 -10.5195 -2.33594 -15.9844 -2.33594c-2.18555 0 -3.8252 0.389648 -4.91797 1.16797s-2.32227 2.72559 -3.68848 5.84082c4.37207 6.54102 9.3584 12.5371 14.959 17.9883l17.2139 16.1191l17.2139 16.1191
c5.60156 5.45117 10.8613 11.291 15.7793 17.5205c19.126 19.9346 31.0801 37.5332 35.8623 52.7959c4.78125 15.2627 4.50781 28.3447 -0.820312 39.2461c-5.32812 10.9023 -14.5498 19.9355 -27.665 27.0996s-28.1426 12.7705 -45.083 16.8203
c-7.65137 0 -15.917 -1.16797 -24.7969 -3.50488c-8.87988 -2.33594 -17.5557 -5.68457 -26.0264 -10.0449c-8.46973 -4.36035 -16.3936 -9.5 -23.7705 -15.4189c-7.37793 -5.91797 -13.5254 -12.3037 -18.4434 -19.1562
c-4.09863 2.49219 -6.14844 5.91895 -6.14844 10.2793c0 6.22949 2.0498 12.0703 6.14844 17.5215c4.09863 5.4502 9.42676 10.2783 15.9844 14.4834s13.8672 7.94336 21.9277 11.2139s15.9844 5.99609 23.7715 8.17676s14.959 3.81641 21.5166 4.90723
c6.55762 1.08984 11.6123 1.63477 15.1641 1.63477c18.3066 -0.62207 33.6074 -4.4375 45.9033 -11.4463s21.7227 -15.9639 28.2803 -26.8662c6.55762 -10.9014 10.5195 -23.0488 11.8857 -36.4424s0.341797 -26.7871 -3.07324 -40.1807
s-8.94824 -26.0869 -16.5986 -38.0791s-17.2139 -22.0371 -28.6895 -30.1357c5.7373 -3.7373 12.1582 -7.39746 19.2627 -10.9795s14.2773 -7.55371 21.5186 -11.915c7.24023 -4.36035 14.2764 -9.18848 21.1074 -14.4834
c6.83105 -5.2959 12.8418 -11.3701 18.0332 -18.2227s9.29004 -14.6396 12.2959 -23.3613c3.00488 -8.72168 4.23438 -18.5332 3.68848 -29.4355c0 -22.4268 -3.62012 -43.2178 -10.8613 -62.374s-17.2822 -35.5088 -30.124 -49.0586s-27.9375 -23.751 -45.2881 -30.6035
s-36.1357 -9.18848 -56.3545 -7.00781c-1.91309 0 -5.26074 0.544922 -10.043 1.63477c-4.78125 1.09082 -9.63086 2.64844 -14.5498 4.67285c-4.91797 2.02441 -9.22168 4.75 -12.9102 8.17578c-3.68848 3.42676 -5.5332 7.78809 -5.5332 13.084z" />
    <glyph glyph-name="acute" unicode="&#xb4;" horiz-adv-x="833" 
d="M323 689c-1.33301 0 -3.5 -0.167969 -6.5 -0.500977s-5.16699 -0.5 -6.5 -0.5c-10 10.667 -10.5 22.667 -1.5 36s23.833 27 44.5 41s45.667 28.333 75 43s59 28.334 89 41.001s58.5 24.167 85.5 34.5s49.167 18.5 66.5 24.5c0.666992 -1.33301 1 -4.5 1 -9.5v-9.5
c0 -16 -7.33301 -30.333 -22 -43s-33.667 -24.667 -57 -36s-48.833 -21.833 -76.5 -31.5l-80.5 -29c-26 -9.66699 -49 -19.5 -69 -29.5s-34 -20.333 -42 -31z" />
    <glyph glyph-name="cedilla" unicode="&#xb8;" horiz-adv-x="833" 
d="M133 -302c0 2 0.166016 6.83105 0.499023 14.498s0.5 12.5 0.5 14.5l28 26c8 7.33301 16 13.5 24 18.5s16.333 8.66699 25 11s18.667 3.5 30 3.5c8 0 16 -1.83301 24 -5.5s15.167 -8.5 21.5 -14.5s11.666 -13 15.999 -21s6.5 -16.333 6.5 -25
c0 -9.33301 -5.33301 -16.666 -16 -21.999c-1.33301 2 -4 5 -8 9l-13 13l-13 13c-4 4 -7 6.66699 -9 8c-0.666992 0.666992 -1.83398 1.16699 -3.50098 1.5s-2.83398 0.5 -3.50098 0.5c-8.66699 0 -16.167 -2 -22.5 -6s-11.666 -9.16699 -15.999 -15.5
s-7.66602 -13.333 -9.99902 -21s-3.5 -15.167 -3.5 -22.5c0 -12.667 2.66699 -22.5 8 -29.5s12.166 -12.333 20.499 -16s17.666 -6 27.999 -7s20.5 -1.5 30.5 -1.5c14.667 0 29.167 1 43.5 3s27.166 5.83301 38.499 11.5s20.333 13.834 27 24.501s10 25 10 43
c0 21.333 -5 39 -15 53s-22.333 26.333 -37 37s-30.667 20.334 -48 29.001s-33.333 18.167 -48 28.5s-27 22.333 -37 36s-15 30.834 -15 51.501c-1.33301 32.667 0.833984 57.834 6.50098 75.501s12.334 29.334 20.001 35.001s15.5 6.66699 23.5 3
s14.333 -10.334 19 -20.001s6.5 -21.334 5.5 -35.001s-6.83301 -27.5 -17.5 -41.5c0 -8 3.83301 -18.167 11.5 -30.5s16.834 -24 27.501 -35s21.834 -20.5 33.501 -28.5s21.834 -12 30.501 -12c24 -8 43.667 -21 59 -39s25.833 -38.167 31.5 -60.5s7 -44.833 4 -67.5
s-11 -42.834 -24 -60.501s-30.5 -30.834 -52.5 -39.501s-49 -10 -81 -4c-19.333 0 -38.5 1.83301 -57.5 5.5s-36.167 10 -51.5 19s-27.833 21 -37.5 36s-14.5 33.833 -14.5 56.5z" />
    <glyph glyph-name="onesuperior" unicode="&#xb9;" horiz-adv-x="301" 
d="M0 517.282c21.5176 1.12988 39.1533 3.17773 52.9014 6.1416c13.7471 2.96484 24.9043 6.84766 33.4717 11.6475s15.1426 10.6582 19.7256 17.5762c4.58301 6.91699 8.16895 15.0342 10.7588 24.3516c2.59082 9.31738 4.78223 19.835 6.5752 31.5527
s4.48242 24.917 8.06934 39.5986c1.59375 18.0703 3.88477 35.2939 6.87305 51.6699c2.98926 16.376 6.27734 32.8232 9.86426 49.3408c3.58594 16.5176 7.4707 33.5293 11.6553 51.0342c4.18359 17.5059 8.4668 36.7061 12.8506 57.5996
c-13.1494 0.84668 -23.8086 -0.211914 -31.9775 -3.17676s-15.8398 -6.42383 -23.0127 -10.376l-22.4141 -11.8594c-7.77051 -3.95215 -17.832 -6.77539 -30.1846 -8.46973c0 9.59961 4.78125 17.7168 14.3447 24.3525c9.56348 6.63477 21.3184 11.999 35.2646 16.0938
c13.9463 4.09375 28.6904 7.05859 44.2314 8.89355c15.54 1.83496 29.2871 2.75293 41.2412 2.75293c0 -22.5879 -1.29492 -43.4111 -3.88477 -62.4697c-2.59082 -19.0586 -5.67871 -37.1992 -9.26465 -54.4229c-3.58691 -17.2227 -7.67188 -34.0225 -12.2549 -50.3984
c-4.58203 -16.376 -8.66602 -33.1758 -12.2529 -50.3994s-6.6748 -35.2939 -9.26465 -54.2109s-3.88477 -39.6699 -3.88477 -62.2578h110.577v-12.2822c0 -3.3877 -3.98438 -5.50488 -11.9541 -6.35156s-17.334 -1.12891 -28.0928 -0.84668
s-21.418 0.634766 -31.9775 1.05762c-10.5596 0.423828 -18.4297 0.353516 -23.6104 -0.210938l-14.3447 -2.11816l-24.5068 -3.81152l-24.5059 -4.02344c-7.57129 -1.27051 -12.3535 -2.04688 -14.3457 -2.3291c-3.1875 -0.56543 -7.17188 -1.12988 -11.9541 -1.69434
s-9.46484 -1.2002 -14.0479 -1.90625c-4.58203 -0.706055 -8.56641 -1.27051 -11.9541 -1.69336c-3.38672 -0.423828 -5.2793 -0.635742 -5.67871 -0.635742c-1.19531 0 -3.88477 0.211914 -8.06836 0.635742c-4.18457 0.422852 -8.66797 1.05762 -13.4502 1.9043
c-4.78125 0.84668 -9.26367 2.04688 -13.4482 3.59961c-4.18457 1.55371 -6.87402 3.60059 -8.06934 6.1416z" />
    <glyph glyph-name="onequarter" unicode="&#xbc;" horiz-adv-x="887" 
d="M0 448.633c22.3438 1.3457 40.6523 3.78613 54.9277 7.31836s25.8613 8.15723 34.7578 13.876c8.89551 5.71777 15.7227 12.6973 20.4814 20.9385s8.48242 17.9121 11.1719 29.0127c2.69043 11.1006 4.9668 23.6309 6.8291 37.5908s4.65527 29.6855 8.37891 47.1768
c1.65527 21.5283 4.03418 42.0479 7.1377 61.5586c3.10254 19.5107 6.5166 39.1055 10.2412 58.7842c3.72363 19.6787 7.75781 39.9463 12.1025 60.8018c4.34473 20.8564 8.79297 43.7305 13.3447 68.623c-13.6553 1.00879 -24.7236 -0.25293 -33.2061 -3.78516
s-16.4473 -7.65332 -23.8955 -12.3623l-23.2754 -14.1289c-8.06836 -4.70898 -18.5166 -8.07227 -31.3438 -10.0908c0 11.4365 4.96582 21.1074 14.8965 29.0127s22.1367 14.2969 36.6191 19.1748s29.792 8.41016 45.9297 10.5967s30.4131 3.2793 42.8262 3.2793
c0 -26.9111 -1.34473 -51.7197 -4.03418 -74.4258s-5.89648 -44.3193 -9.62012 -64.8389c-3.72363 -20.5186 -7.96484 -40.5332 -12.7236 -60.0439s-9 -39.5254 -12.7236 -60.0449s-6.93066 -42.0479 -9.62012 -64.5859s-4.03418 -47.2627 -4.03418 -74.1738h114.823
v-14.6328c0 -4.03613 -4.1377 -6.55859 -12.4141 -7.56738c-8.27539 -1.00879 -17.999 -1.3457 -29.1709 -1.00977c-11.1719 0.336914 -22.2402 0.757812 -33.2061 1.2627c-10.9648 0.504883 -19.1367 0.420898 -24.5156 -0.251953l-14.8965 -2.52344l-25.4473 -4.54102
l-25.4473 -4.79395c-7.8623 -1.51367 -12.8271 -2.43848 -14.8955 -2.77441c-3.31055 -0.672852 -7.44824 -1.3457 -12.4141 -2.01855c-4.96484 -0.672852 -9.82617 -1.42969 -14.585 -2.27051s-8.89648 -1.51367 -12.4141 -2.01855
c-3.5166 -0.504883 -5.48242 -0.756836 -5.89648 -0.756836c-1.24121 0 -4.03418 0.251953 -8.37891 0.756836s-9 1.26172 -13.9658 2.27051c-4.96484 1.00879 -9.62012 2.43848 -13.9648 4.28906s-7.1377 4.28906 -8.37891 7.31641zM61.999 44.002
c0 1.33301 0.167969 3.66602 0.500977 6.99902s0.5 5.66602 0.5 6.99902l38 48.5l70 90.5l90.5 117.5l100.5 129.5l99 126.5l86 109l62 76.5c16 19.333 25 29 27 29c7.33301 0 12.666 -2.83301 15.999 -8.5s5 -13.167 5 -22.5c0 -14 -5.33301 -30.667 -16 -50
s-24.5 -39.666 -41.5 -60.999s-36 -43.333 -57 -66l-62 -65.5l-57 -59c-17.667 -18.333 -31.5 -33.833 -41.5 -46.5c-22 -27.333 -45.333 -59 -70 -95l-76 -109c-26 -36.667 -52.333 -71.667 -79 -105s-53.334 -60.666 -80.001 -81.999
c-7.33301 2.66699 -11.666 6.66699 -12.999 12s-2 11 -2 17zM457.815 193.412c-2.88379 0 -6.58984 0.642578 -11.1211 1.92773s-9.16602 3.0293 -13.9033 5.23242s-8.95996 4.77344 -12.667 7.71094c-3.70801 2.9375 -5.97363 6.05859 -6.79785 9.36328
c-1.64746 6.24219 -1.23535 14.8711 1.23633 25.8867s6.07617 23.3164 10.8135 36.9023s10.1953 27.8145 16.375 42.6855l18.2285 42.9609c5.97363 13.7695 11.2256 26.5293 15.7568 38.2793s7.62109 21.2969 9.26855 28.6406h12.9766
c0 -17.9922 -2.47168 -35.709 -7.41504 -53.1504s-10.4014 -34.791 -16.375 -52.0488s-11.4316 -34.4238 -16.375 -51.498s-7.41504 -34.0566 -7.41504 -50.9473h209.475v104.098l12.9766 7.71094l9.26953 -15.9727v-95.8359h125.438
c3.2959 0 5.66406 -1.37695 7.10547 -4.13086c1.44238 -2.75391 2.16309 -5.23242 2.16309 -7.43555c0 -5.14062 -3.08984 -9.17969 -9.26855 -12.1172c-9.47559 0.367188 -19.4658 0.734375 -29.9707 1.10156s-21.3184 0.367188 -32.4404 0
s-22.0391 -1.28516 -32.75 -2.75391c-10.71 -1.46875 -20.8027 -3.67188 -30.2773 -6.60938c1.64746 -14.3203 1.75 -29.375 0.308594 -45.1641c-1.44238 -15.7891 -3.39941 -31.6699 -5.87109 -47.6426l-7.41504 -47.0918
c-2.47168 -15.4219 -4.11914 -29.9258 -4.94238 -43.5117h-19.1562c0 31.2109 1.54492 61.8711 4.63477 91.9805s4.63477 60.5859 4.63477 91.4297h-196.499z" />
    <glyph glyph-name="onehalf" unicode="&#xbd;" horiz-adv-x="954" 
d="M0 536.62c27.8896 1.06836 50.7441 3.00293 68.5625 5.80859c17.8184 2.80469 32.2803 6.47754 43.3848 11.0186c11.1045 4.54199 19.626 10.085 25.5654 16.6289c5.93945 6.54492 10.5879 14.2246 13.9453 23.04c3.35645 8.81543 6.19727 18.7656 8.52148 29.8516
s5.81055 23.5742 10.459 37.4658c2.06543 17.0967 5.03516 33.3916 8.90918 48.8848s8.13477 31.0537 12.7832 46.6807c4.64746 15.627 9.68262 31.7217 15.1055 48.2842c5.42285 16.5615 10.9746 34.7266 16.6553 54.4941
c-17.0439 0.801758 -30.8594 -0.200195 -41.4473 -3.00488s-20.5303 -6.07715 -29.8262 -9.81738l-29.0527 -11.2188c-10.0713 -3.74023 -23.1123 -6.41211 -39.123 -8.01465c0 9.08301 6.19824 16.7627 18.5938 23.04c12.3955 6.27832 27.6318 11.3535 45.709 15.2266
c18.0771 3.87402 37.1865 6.67871 57.3291 8.41504s37.9609 2.60449 53.4561 2.60449c0 -21.3701 -1.67871 -41.0713 -5.03613 -59.1025c-3.35645 -18.0312 -7.35938 -35.1943 -12.0078 -51.4893c-4.64844 -16.2959 -9.94238 -32.1904 -15.8818 -47.6836
s-11.2334 -31.3877 -15.8818 -47.6826s-8.65137 -33.3916 -12.0078 -51.2891c-3.35742 -17.8975 -5.03613 -37.5312 -5.03613 -58.9014h143.323v-11.6201c0 -3.20605 -5.16504 -5.20996 -15.4941 -6.01172c-10.3301 -0.801758 -22.4678 -1.06836 -36.4121 -0.800781
c-13.9443 0.266602 -27.7598 0.600586 -41.4463 1.00195c-13.6865 0.400391 -23.8867 0.333008 -30.6006 -0.201172l-18.5938 -2.00293l-31.7627 -3.60645l-31.7637 -3.80664c-9.81348 -1.20215 -16.0117 -1.93652 -18.5947 -2.2041
c-4.13184 -0.53418 -9.29688 -1.06836 -15.4951 -1.60254s-12.2666 -1.13477 -18.2061 -1.80176c-5.93945 -0.667969 -11.1045 -1.20215 -15.4941 -1.60254c-4.38965 -0.401367 -6.84277 -0.601562 -7.35938 -0.601562c-1.54883 0 -5.03516 0.200195 -10.458 0.601562
c-5.42285 0.400391 -11.2334 1.00098 -17.4316 1.80273c-6.19727 0.801758 -12.0078 1.9375 -17.4307 3.40723c-5.42285 1.46875 -8.90918 3.40527 -10.459 5.80957zM103 33.998c0 1.33301 0.167969 3.66602 0.500977 6.99902s0.5 5.66602 0.5 6.99902l38 48.5l70 90.5
l90.5 117.5l100.5 129.5l99 126.5l86 109l62 76.5c16 19.333 25 29 27 29c7.33301 0 12.666 -2.83301 15.999 -8.5s5 -13.167 5 -22.5c0 -14 -5.33301 -30.667 -16 -50s-24.5 -39.666 -41.5 -60.999s-36 -43.333 -57 -66l-62 -65.5l-57 -59
c-17.667 -18.333 -31.5 -33.833 -41.5 -46.5c-22 -27.333 -45.333 -59 -70 -95l-76 -109c-26 -36.667 -52.333 -71.667 -79 -105s-53.334 -60.666 -80.001 -81.999c-7.33301 2.66699 -11.666 6.66699 -12.999 12s-2 11 -2 17zM640.232 80.1514
c-8.52051 0 -16.9385 -1.61328 -25.2559 -4.84082s-17.04 -6.80566 -26.1689 -10.7354c-9.12793 -3.92969 -18.5605 -7.50879 -28.2979 -10.7363s-20.083 -4.8418 -31.0371 -4.8418c-6.89746 0 -12.5781 0.0703125 -17.041 0.210938
c-4.46289 0.139648 -8.11426 0.771484 -10.9541 1.89453c-2.83984 1.12207 -4.7666 2.94629 -5.78125 5.47266s-1.52148 6.17578 -1.52148 10.9482c0 7.8584 2.53613 14.3135 7.60742 19.3652c5.07129 5.05273 11.5625 8.98242 19.4746 11.7891
c7.91113 2.80664 17.04 4.77148 27.3857 5.89453c10.3457 1.12207 20.6914 1.68359 31.0381 1.68359c10.3457 0 20.4883 -0.280273 30.4287 -0.841797s18.5615 -0.982422 25.8643 -1.2627c19.8809 11.5078 38.4424 25.4014 55.6855 41.6807s32.2549 33.6113 45.0352 51.9961
s22.9229 37.1904 30.4287 56.417s11.2588 37.541 11.2588 54.9424c0 10.9463 -2.02832 21.1211 -6.08594 30.5244c-4.05664 9.40332 -10.3447 17.543 -18.8652 24.4189c-8.52051 6.87695 -19.374 12.21 -32.5605 15.999c-13.1855 3.78906 -29.1104 5.68359 -47.7734 5.68359
c-10.1436 0 -20.084 -0.702148 -29.8213 -2.10547s-19.373 -3.08691 -28.9072 -5.05176s-19.0684 -4.07031 -28.6025 -6.31543s-19.1699 -4.06934 -28.9072 -5.47266c-0.405273 8.41992 4.66602 14.875 15.2148 19.3662s22.8223 7.71875 36.8193 9.68359
s27.791 3.08789 41.3818 3.36816c13.5918 0.280273 23.4307 0.420898 29.5166 0.420898c16.2285 0.842773 32.6602 -1.12207 49.2949 -5.89355c16.6348 -4.77246 31.1396 -11.3682 43.5137 -19.7881c12.374 -8.4209 21.7061 -18.3154 27.9951 -29.6836
c6.28809 -11.3672 7.40332 -23.2256 3.3457 -35.5762c0 -18.8057 -4.66602 -37.6113 -13.9971 -56.417s-20.9951 -37.2607 -34.9922 -55.3643c-13.9971 -18.1045 -29.3135 -35.5068 -45.9482 -52.207l-46.252 -46.5225c0 -3.92969 5.27441 -8.49121 15.8232 -13.6836
c10.5479 -5.19238 25.6611 -10.3145 45.3389 -15.3662s43.7168 -9.40234 72.1172 -13.0518c28.4004 -3.64844 60.4521 -5.89355 96.1553 -6.73633l-26.7773 -18.5244c-21.9092 -4.20996 -42.8037 -4.20996 -62.6836 0s-38.9492 9.89355 -57.207 17.0508l-53.251 20.8408
c-17.2432 6.73633 -34.5879 10.5254 -52.0342 11.3672zM539.209 91.9414c-4.46289 0 -8.62109 -1.26172 -12.4756 -3.78809s-7.20117 -5.54395 -10.041 -9.05273c-2.84082 -3.50879 -4.9707 -7.1582 -6.39062 -10.9473s-2.12988 -6.94629 -2.12988 -9.47266
c10.1436 1.40332 22.1123 3.50879 35.9062 6.31543c13.7949 2.80664 26.7783 5.89453 38.9492 9.2627c12.1719 3.36816 22.3145 6.5957 30.4287 9.68359c8.11426 3.08691 11.5635 5.61328 10.3467 7.57812c-1.21777 1.96484 -8.2168 3.08789 -20.9971 3.36816
s-33.9795 -0.702148 -63.5967 -2.94727z" />
    <glyph glyph-name="threequarters" unicode="&#xbe;" horiz-adv-x="913" 
d="M77.3213 475.606c11.3643 0 21.9209 -1.10742 31.6621 -3.31543c9.74121 -2.20898 20.4971 -3.31348 32.2676 -3.31348c24.7588 0 48.4014 2.07031 70.9277 6.21191s42.3135 10.6299 59.3604 19.4648c17.0479 8.83496 30.6445 19.9473 40.791 33.3369
c10.1475 13.3896 15.2207 29.4717 15.2207 48.2461c0 23.7432 -10.3496 41.9648 -31.0498 54.665s-48.0977 19.0498 -82.1924 19.0498c-8.52344 0 -16.8438 -0.69043 -24.9619 -2.07129c-8.11816 -1.37988 -16.0332 -2.8291 -23.7451 -4.34766l-23.1357 -4.34863
c-7.71191 -1.37988 -15.627 -2.07031 -23.7451 -2.07031c-3.24707 0 -5.68262 0.344727 -7.30664 1.03516s-3.4502 2.41602 -5.47949 5.17676c6.49414 5.79785 13.9014 11.1123 22.2227 15.9434l25.5703 14.2871l25.5703 14.2871
c8.32129 4.83105 16.1348 10.0078 23.4404 15.5303c28.4111 17.6689 46.168 33.2676 53.2705 46.7959c7.10352 13.5283 6.69824 25.124 -1.2168 34.7871s-21.6133 17.6699 -41.0957 24.0205c-19.4824 6.34961 -41.8066 11.3193 -66.9717 14.9082
c-11.3643 0 -23.6426 -1.03516 -36.834 -3.10547c-13.1904 -2.07129 -26.0771 -5.03906 -38.6602 -8.9043c-12.582 -3.86523 -24.3525 -8.4209 -35.3115 -13.666s-20.0918 -10.9043 -27.3975 -16.9775c-6.08789 2.20801 -9.13184 5.24512 -9.13184 9.11035
c0 5.52148 3.04395 10.6982 9.13184 15.5293c6.08887 4.83105 14.0039 9.11035 23.7451 12.8379s20.5986 7.04102 32.5723 9.94043c11.9736 2.89844 23.7441 5.31445 35.3115 7.24707s22.2217 3.38184 31.9629 4.34766c9.74121 0.966797 17.25 1.4502 22.5264 1.4502
c27.1943 -0.552734 49.9238 -3.93457 68.1885 -10.1465s32.2676 -14.1494 42.0088 -23.8125s15.627 -20.4307 17.6562 -32.3018c2.0293 -11.8721 0.506836 -23.7441 -4.56641 -35.6162c-5.07324 -11.8711 -13.292 -23.1211 -24.6562 -33.751
c-11.3643 -10.6289 -25.5703 -19.5322 -42.6182 -26.7109c8.52441 -3.31348 18.0625 -6.55762 28.6152 -9.73242s21.207 -6.69531 31.9629 -10.5605s21.207 -8.14453 31.3545 -12.8379s19.0771 -10.0771 26.7891 -16.1504
c7.71191 -6.07422 13.7998 -12.9766 18.2646 -20.7061c4.46484 -7.73047 6.29102 -16.4268 5.47949 -26.0898c0 -19.8779 -5.37793 -38.3066 -16.1338 -55.2861s-25.6719 -31.4736 -44.749 -43.4824c-19.0771 -12.0098 -41.502 -21.0518 -67.2754 -27.125
c-25.7734 -6.07422 -53.6777 -8.14453 -83.7129 -6.21191c-2.8418 0 -7.81445 0.483398 -14.917 1.44922s-14.3066 2.34668 -21.6123 4.1416c-7.30566 1.79395 -13.6982 4.20996 -19.1777 7.24707c-5.47949 3.03613 -8.21875 6.90137 -8.21875 11.5947zM100.004 38.9971
c0 1.33301 0.167969 3.66602 0.500977 6.99902s0.5 5.66602 0.5 6.99902l38 48.5l70 90.5l90.5 117.5l100.5 129.5l99 126.5l86 109l62 76.5c16 19.333 25 29 27 29c7.33301 0 12.666 -2.83301 15.999 -8.5s5 -13.167 5 -22.5c0 -14 -5.33301 -30.667 -16 -50
s-24.5 -39.666 -41.5 -60.999s-36 -43.333 -57 -66l-62 -65.5l-57 -59c-17.667 -18.333 -31.5 -33.833 -41.5 -46.5c-22 -27.333 -45.333 -59 -70 -95l-76 -109c-26 -36.667 -52.333 -71.667 -79 -105s-53.334 -60.666 -80.001 -81.999
c-7.33301 2.66699 -11.666 6.66699 -12.999 12s-2 11 -2 17zM541.274 217.574c-2.4375 0 -5.57129 0.603516 -9.40234 1.8125c-3.83105 1.20996 -7.74902 2.85156 -11.7539 4.9248s-7.57422 4.49219 -10.708 7.25684c-3.13477 2.76367 -5.0498 5.7002 -5.74609 8.80957
c-1.39355 5.87402 -1.0459 13.9932 1.04297 24.3584c2.08984 10.3643 5.1377 21.9385 9.14258 34.7227c4.00488 12.7832 8.61914 26.1709 13.8428 40.1641l15.4102 40.4229c5.0498 12.9561 9.49023 24.9619 13.3213 36.0176s6.44336 20.0391 7.83594 26.9492h10.9707
c0 -16.9297 -2.08984 -33.5996 -6.26855 -50.0107c-4.17969 -16.4111 -8.79395 -32.7363 -13.8438 -48.9746c-5.0498 -16.2393 -9.66406 -32.3916 -13.8428 -48.457s-6.26855 -32.0449 -6.26855 -47.9375h177.094v97.9492l10.9697 7.25488l7.83594 -15.0293v-90.1748
h106.048c2.78613 0 4.78809 -1.2959 6.00684 -3.88672c1.21973 -2.5918 1.8291 -4.92383 1.8291 -6.99707c0 -4.83691 -2.6123 -8.6377 -7.83594 -11.4023c-8.01074 0.345703 -16.4561 0.691406 -25.3369 1.03711c-8.88086 0.344727 -18.0225 0.344727 -27.4258 0
c-9.40332 -0.345703 -18.6328 -1.20996 -27.6885 -2.5918c-9.05469 -1.38184 -17.5869 -3.45508 -25.5977 -6.21875c1.39355 -13.4746 1.48047 -27.6396 0.261719 -42.4961s-2.87305 -29.7998 -4.96289 -44.8291l-6.26855 -44.3105
c-2.08984 -14.5107 -3.4834 -28.1582 -4.17969 -40.9414h-16.1943c0 29.3672 1.30566 58.2168 3.91797 86.5479s3.91797 57.0078 3.91797 86.0303h-166.123z" />
    <glyph glyph-name="questiondown" unicode="&#xbf;" horiz-adv-x="399" 
d="M117.933 738.9c5.62598 -12.6836 14.418 -21.1406 26.374 -25.3682s23.5605 -6.3418 34.8135 -6.3418c4.92285 0 10.9004 0.880859 17.9336 2.64258c7.03223 1.76172 13.8896 4.22754 20.5713 7.39844c6.68066 3.1709 12.3066 7.04688 16.8779 11.6279
c4.57129 4.58008 6.85645 10.041 6.85645 16.3818c0 20.4346 -4.21973 37.3457 -12.6592 50.7334s-22.8564 20.082 -43.252 20.082c-7.0332 0 -15.1211 -2.46582 -24.2637 -7.39844s-17.582 -11.0977 -25.3184 -18.4961
c-7.73633 -7.39941 -13.5381 -15.6787 -17.4062 -24.8389s-4.04395 -17.9678 -0.527344 -26.4229zM333.14 225.224c-6.3291 -19.7295 -14.9424 -38.9277 -25.8438 -57.6006s-23.5605 -34.7031 -37.9775 -48.0908s-30.2412 -22.7236 -47.4717 -28.0078
s-35.3398 -4.40332 -54.3291 2.64258s-38.3301 21.4912 -58.0225 43.335c-19.6924 21.8428 -39.0332 53.1992 -58.0225 94.0684c-14.0654 -21.1396 -20.2188 -41.9268 -18.46 -62.3613s8.96777 -39.2832 21.627 -56.5469
c12.6592 -17.2627 29.3623 -32.4121 50.1094 -45.4482s43.0762 -22.3721 66.9883 -28.0088c23.9111 -5.6377 48.3506 -7.22363 73.3174 -4.75781s47.4717 10.7451 67.5156 24.8379s36.5713 34.3506 49.582 60.7744c13.0107 26.4229 19.8682 60.4209 20.5713 101.994
c2.81348 37.3447 -0.527344 68.877 -10.0225 94.5967c-9.49414 25.7188 -21.8018 48.6191 -36.9219 68.7012c-15.1211 20.082 -31.6484 38.4023 -49.582 54.9609c-17.9346 16.5596 -34.2861 33.999 -49.0547 52.3193s-26.5488 38.5781 -35.3398 60.7744
c-8.79102 22.1953 -11.4287 48.7949 -7.91211 79.7988l-39.0322 3.1709c0 -35.2314 4.39551 -65.3545 13.1865 -90.3691s19.8682 -47.3867 33.2305 -67.1162s27.6035 -38.0498 42.7236 -54.9609s29.3613 -34.7031 42.7236 -53.376s24.4395 -39.46 33.2305 -62.3604
s13.1865 -50.5566 13.1865 -82.9697z" />
    <glyph glyph-name="Agrave" unicode="&#xc0;" horiz-adv-x="978" 
d="M21 349c0 36 2.66797 74.8379 8.00098 116.505s14.166 83.5 26.499 125.5s28 82.333 47 121s42.167 73 69.5 103s58.833 54 94.5 72s76.5 27 122.5 27c22 2 45 -1 69 -9s46 -19.833 66 -35.5s36.667 -34.5 50 -56.5s20.666 -45.667 21.999 -71
c0 -26 -1.33301 -52.833 -4 -80.5s-5.5 -55.334 -8.5 -83.001s-5.83301 -55.334 -8.5 -83.001s-4 -54.834 -4 -81.501c0 -22 1 -46.333 3 -73s5.66699 -53.334 11 -80.001s12.833 -52.334 22.5 -77.001s22.167 -46.5 37.5 -65.5s34 -34.333 56 -46s48 -17.5 78 -17.5
c20 0 38.667 6 56 18s32.5 27.167 45.5 45.5s23.167 38.166 30.5 59.499s11 41.333 11 60s-4.5 34.834 -13.5 48.501s-20.5 24.667 -34.5 33s-29.667 13.666 -47 15.999s-34.333 1.5 -51 -2.5c6.66699 12 17 22.333 31 31s27.667 13 41 13c18 0 33.5 -4.5 46.5 -13.5
s23.667 -20.333 32 -34s14.5 -28.5 18.5 -44.5s6 -31 6 -45c3.33301 -30 1 -57.833 -7 -83.5s-20 -48.334 -36 -68.001s-35.167 -35.667 -57.5 -48s-45.833 -20.333 -70.5 -24s-50 -2.33398 -76 3.99902s-50.333 18.833 -73 37.5
c-15.333 19.333 -28.166 40.166 -38.499 62.499s-19.333 45.333 -27 69s-14.334 47.667 -20.001 72l-16.5 71.5c-14.667 -19.333 -26.5 -41.666 -35.5 -66.999l-27 -77.5c-9 -26.333 -19 -51.833 -30 -76.5s-25.5 -46.167 -43.5 -64.5s-40.5 -32.166 -67.5 -41.499
s-61.167 -11.666 -102.5 -6.99902c-25.333 0 -48 6.33301 -68 19s-37.5 29 -52.5 49s-27.667 42.833 -38 68.5s-18.666 51.334 -24.999 77.001s-11 50.5 -14 74.5s-4.5 44.667 -4.5 62zM50.001 387.005c0 -18 0.998047 -38.8281 2.99805 -62.4951
s5.33301 -47.834 10 -72.501s11.334 -48.834 20.001 -72.501s19.5 -44.667 32.5 -63s28.833 -33.166 47.5 -44.499s40.334 -17 65.001 -17c37.333 -5.33301 70.666 3.66699 99.999 27s55.5 55.166 78.5 95.499s42.667 86.333 59 138s30 103.5 41 155.5
s19.5 101.167 25.5 147.5s10 84.166 12 113.499c2.66699 11.333 1 25 -5 41s-15.5 31.167 -28.5 45.5s-29.167 26.833 -48.5 37.5s-40.333 16 -63 16c-39.333 0 -75.166 -7.33301 -107.499 -22s-61.5 -34.334 -87.5 -59.001s-48.667 -53.334 -68 -86.001
s-35.333 -67 -48 -103s-22.167 -72.5 -28.5 -109.5s-9.5 -72.167 -9.5 -105.5zM637.999 1003.01c-8.66699 8 -24.0039 15.6719 -46.0039 23.0049s-47 14.666 -75 21.999l-88 22c-30.667 7.33301 -58.5 15.166 -83.5 23.499s-45.667 17.166 -62 26.499s-24.5 20 -24.5 32v7
c0 3.33301 0.333008 5.66602 1 6.99902l73 -18.5c30 -7.66699 61.333 -16.167 94 -25.5s64.834 -19.5 96.501 -30.5s58.834 -21.833 81.501 -32.5s39 -20.834 49 -30.501s9.33301 -18.5 -2 -26.5c-1.33301 0 -3.66602 0.166992 -6.99902 0.5s-5.66602 0.5 -6.99902 0.5z" />
    <glyph glyph-name="Aacute" unicode="&#xc1;" horiz-adv-x="978" 
d="M21 349c0 36 2.66797 74.8379 8.00098 116.505s14.166 83.5 26.499 125.5s28 82.333 47 121s42.167 73 69.5 103s58.833 54 94.5 72s76.5 27 122.5 27c22 2 45 -1 69 -9s46 -19.833 66 -35.5s36.667 -34.5 50 -56.5s20.666 -45.667 21.999 -71
c0 -26 -1.33301 -52.833 -4 -80.5s-5.5 -55.334 -8.5 -83.001s-5.83301 -55.334 -8.5 -83.001s-4 -54.834 -4 -81.501c0 -22 1 -46.333 3 -73s5.66699 -53.334 11 -80.001s12.833 -52.334 22.5 -77.001s22.167 -46.5 37.5 -65.5s34 -34.333 56 -46s48 -17.5 78 -17.5
c20 0 38.667 6 56 18s32.5 27.167 45.5 45.5s23.167 38.166 30.5 59.499s11 41.333 11 60s-4.5 34.834 -13.5 48.501s-20.5 24.667 -34.5 33s-29.667 13.666 -47 15.999s-34.333 1.5 -51 -2.5c6.66699 12 17 22.333 31 31s27.667 13 41 13c18 0 33.5 -4.5 46.5 -13.5
s23.667 -20.333 32 -34s14.5 -28.5 18.5 -44.5s6 -31 6 -45c3.33301 -30 1 -57.833 -7 -83.5s-20 -48.334 -36 -68.001s-35.167 -35.667 -57.5 -48s-45.833 -20.333 -70.5 -24s-50 -2.33398 -76 3.99902s-50.333 18.833 -73 37.5
c-15.333 19.333 -28.166 40.166 -38.499 62.499s-19.333 45.333 -27 69s-14.334 47.667 -20.001 72l-16.5 71.5c-14.667 -19.333 -26.5 -41.666 -35.5 -66.999l-27 -77.5c-9 -26.333 -19 -51.833 -30 -76.5s-25.5 -46.167 -43.5 -64.5s-40.5 -32.166 -67.5 -41.499
s-61.167 -11.666 -102.5 -6.99902c-25.333 0 -48 6.33301 -68 19s-37.5 29 -52.5 49s-27.667 42.833 -38 68.5s-18.666 51.334 -24.999 77.001s-11 50.5 -14 74.5s-4.5 44.667 -4.5 62zM50.001 387.005c0 -18 0.998047 -38.8281 2.99805 -62.4951
s5.33301 -47.834 10 -72.501s11.334 -48.834 20.001 -72.501s19.5 -44.667 32.5 -63s28.833 -33.166 47.5 -44.499s40.334 -17 65.001 -17c37.333 -5.33301 70.666 3.66699 99.999 27s55.5 55.166 78.5 95.499s42.667 86.333 59 138s30 103.5 41 155.5
s19.5 101.167 25.5 147.5s10 84.166 12 113.499c2.66699 11.333 1 25 -5 41s-15.5 31.167 -28.5 45.5s-29.167 26.833 -48.5 37.5s-40.333 16 -63 16c-39.333 0 -75.166 -7.33301 -107.499 -22s-61.5 -34.334 -87.5 -59.001s-48.667 -53.334 -68 -86.001
s-35.333 -67 -48 -103s-22.167 -72.5 -28.5 -109.5s-9.5 -72.167 -9.5 -105.5zM351.999 942.01c-1.33301 0 -3.5 -0.167969 -6.5 -0.500977s-5.16699 -0.5 -6.5 -0.5c-10 10.667 -10.5 22.667 -1.5 36s23.833 27 44.5 41s45.667 28.333 75 43s59 28.334 89 41.001
s58.5 24.167 85.5 34.5s49.167 18.5 66.5 24.5c0.666992 -1.33301 1 -4.5 1 -9.5v-9.5c0 -16 -7.33301 -30.333 -22 -43s-33.667 -24.667 -57 -36s-48.833 -21.833 -76.5 -31.5l-80.5 -29c-26 -9.66699 -49 -19.5 -69 -29.5s-34 -20.333 -42 -31z" />
    <glyph glyph-name="Acircumflex" unicode="&#xc2;" horiz-adv-x="978" 
d="M21 349c0 36 2.66797 74.8379 8.00098 116.505s14.166 83.5 26.499 125.5s28 82.333 47 121s42.167 73 69.5 103s58.833 54 94.5 72s76.5 27 122.5 27c22 2 45 -1 69 -9s46 -19.833 66 -35.5s36.667 -34.5 50 -56.5s20.666 -45.667 21.999 -71
c0 -26 -1.33301 -52.833 -4 -80.5s-5.5 -55.334 -8.5 -83.001s-5.83301 -55.334 -8.5 -83.001s-4 -54.834 -4 -81.501c0 -22 1 -46.333 3 -73s5.66699 -53.334 11 -80.001s12.833 -52.334 22.5 -77.001s22.167 -46.5 37.5 -65.5s34 -34.333 56 -46s48 -17.5 78 -17.5
c20 0 38.667 6 56 18s32.5 27.167 45.5 45.5s23.167 38.166 30.5 59.499s11 41.333 11 60s-4.5 34.834 -13.5 48.501s-20.5 24.667 -34.5 33s-29.667 13.666 -47 15.999s-34.333 1.5 -51 -2.5c6.66699 12 17 22.333 31 31s27.667 13 41 13c18 0 33.5 -4.5 46.5 -13.5
s23.667 -20.333 32 -34s14.5 -28.5 18.5 -44.5s6 -31 6 -45c3.33301 -30 1 -57.833 -7 -83.5s-20 -48.334 -36 -68.001s-35.167 -35.667 -57.5 -48s-45.833 -20.333 -70.5 -24s-50 -2.33398 -76 3.99902s-50.333 18.833 -73 37.5
c-15.333 19.333 -28.166 40.166 -38.499 62.499s-19.333 45.333 -27 69s-14.334 47.667 -20.001 72l-16.5 71.5c-14.667 -19.333 -26.5 -41.666 -35.5 -66.999l-27 -77.5c-9 -26.333 -19 -51.833 -30 -76.5s-25.5 -46.167 -43.5 -64.5s-40.5 -32.166 -67.5 -41.499
s-61.167 -11.666 -102.5 -6.99902c-25.333 0 -48 6.33301 -68 19s-37.5 29 -52.5 49s-27.667 42.833 -38 68.5s-18.666 51.334 -24.999 77.001s-11 50.5 -14 74.5s-4.5 44.667 -4.5 62zM50.001 387.005c0 -18 0.998047 -38.8281 2.99805 -62.4951
s5.33301 -47.834 10 -72.501s11.334 -48.834 20.001 -72.501s19.5 -44.667 32.5 -63s28.833 -33.166 47.5 -44.499s40.334 -17 65.001 -17c37.333 -5.33301 70.666 3.66699 99.999 27s55.5 55.166 78.5 95.499s42.667 86.333 59 138s30 103.5 41 155.5
s19.5 101.167 25.5 147.5s10 84.166 12 113.499c2.66699 11.333 1 25 -5 41s-15.5 31.167 -28.5 45.5s-29.167 26.833 -48.5 37.5s-40.333 16 -63 16c-39.333 0 -75.166 -7.33301 -107.499 -22s-61.5 -34.334 -87.5 -59.001s-48.667 -53.334 -68 -86.001
s-35.333 -67 -48 -103s-22.167 -72.5 -28.5 -109.5s-9.5 -72.167 -9.5 -105.5zM453.999 1263.01c14 0 28.3311 -7.33203 42.998 -21.999s28.667 -33.667 42 -57s25.833 -48.833 37.5 -76.5s21.834 -54.834 30.501 -81.501s15.5 -50.667 20.5 -72s7.5 -37 7.5 -47
c0 -7.33301 -1.16699 -13.333 -3.5 -18s-6.16602 -10.667 -11.499 -18c-11.333 8.66699 -21 22.5 -29 41.5s-15.5 40.333 -22.5 64l-21 73.5c-7 25.333 -14.667 48.5 -23 69.5s-18.166 38.167 -29.499 51.5s-25 20 -41 20c-12 0 -25.333 -8 -40 -24
s-30.667 -36.167 -48 -60.5l-56 -78.5c-20 -28 -40.833 -54.167 -62.5 -78.5s-44.167 -44.5 -67.5 -60.5s-47 -24 -71 -24c0 2.66699 4.83301 10.5 14.5 23.5s22.5 29.167 38.5 48.5l54.5 64.5l62 71.5l62.5 70.5l55.5 61l40 42.5c10.333 10.667 16.166 16 17.499 16z" />
    <glyph glyph-name="Atilde" unicode="&#xc3;" horiz-adv-x="978" 
d="M21 349c0 36 2.66797 74.8379 8.00098 116.505s14.166 83.5 26.499 125.5s28 82.333 47 121s42.167 73 69.5 103s58.833 54 94.5 72s76.5 27 122.5 27c22 2 45 -1 69 -9s46 -19.833 66 -35.5s36.667 -34.5 50 -56.5s20.666 -45.667 21.999 -71
c0 -26 -1.33301 -52.833 -4 -80.5s-5.5 -55.334 -8.5 -83.001s-5.83301 -55.334 -8.5 -83.001s-4 -54.834 -4 -81.501c0 -22 1 -46.333 3 -73s5.66699 -53.334 11 -80.001s12.833 -52.334 22.5 -77.001s22.167 -46.5 37.5 -65.5s34 -34.333 56 -46s48 -17.5 78 -17.5
c20 0 38.667 6 56 18s32.5 27.167 45.5 45.5s23.167 38.166 30.5 59.499s11 41.333 11 60s-4.5 34.834 -13.5 48.501s-20.5 24.667 -34.5 33s-29.667 13.666 -47 15.999s-34.333 1.5 -51 -2.5c6.66699 12 17 22.333 31 31s27.667 13 41 13c18 0 33.5 -4.5 46.5 -13.5
s23.667 -20.333 32 -34s14.5 -28.5 18.5 -44.5s6 -31 6 -45c3.33301 -30 1 -57.833 -7 -83.5s-20 -48.334 -36 -68.001s-35.167 -35.667 -57.5 -48s-45.833 -20.333 -70.5 -24s-50 -2.33398 -76 3.99902s-50.333 18.833 -73 37.5
c-15.333 19.333 -28.166 40.166 -38.499 62.499s-19.333 45.333 -27 69s-14.334 47.667 -20.001 72l-16.5 71.5c-14.667 -19.333 -26.5 -41.666 -35.5 -66.999l-27 -77.5c-9 -26.333 -19 -51.833 -30 -76.5s-25.5 -46.167 -43.5 -64.5s-40.5 -32.166 -67.5 -41.499
s-61.167 -11.666 -102.5 -6.99902c-25.333 0 -48 6.33301 -68 19s-37.5 29 -52.5 49s-27.667 42.833 -38 68.5s-18.666 51.334 -24.999 77.001s-11 50.5 -14 74.5s-4.5 44.667 -4.5 62zM50.001 387.005c0 -18 0.998047 -38.8281 2.99805 -62.4951
s5.33301 -47.834 10 -72.501s11.334 -48.834 20.001 -72.501s19.5 -44.667 32.5 -63s28.833 -33.166 47.5 -44.499s40.334 -17 65.001 -17c37.333 -5.33301 70.666 3.66699 99.999 27s55.5 55.166 78.5 95.499s42.667 86.333 59 138s30 103.5 41 155.5
s19.5 101.167 25.5 147.5s10 84.166 12 113.499c2.66699 11.333 1 25 -5 41s-15.5 31.167 -28.5 45.5s-29.167 26.833 -48.5 37.5s-40.333 16 -63 16c-39.333 0 -75.166 -7.33301 -107.499 -22s-61.5 -34.334 -87.5 -59.001s-48.667 -53.334 -68 -86.001
s-35.333 -67 -48 -103s-22.167 -72.5 -28.5 -109.5s-9.5 -72.167 -9.5 -105.5zM369.999 1159.01c-11.333 0 -22.502 -1.16406 -33.502 -3.49707s-21 -6.33301 -30 -12s-16.333 -13.334 -22 -23.001s-8.5 -21.5 -8.5 -35.5c0 -1.33301 2.33301 -3.66602 7 -6.99902
s7 -5.66602 7 -6.99902c1.33301 -1.33301 2.33301 -5.83301 3 -13.5s1 -12.167 1 -13.5c-16.667 0 -28.667 5.5 -36 16.5s-11 24.167 -11 39.5c0 14.667 3.83301 29 11.5 43s17.5 26.5 29.5 37.5s25.333 19.833 40 26.5s29 10 43 10c19.333 0 36.333 -4.33301 51 -13
s27.667 -19.5 39 -32.5s22 -27.167 32 -42.5s20.333 -29.5 31 -42.5s22 -23.833 34 -32.5s26 -13 42 -13c18.667 0 34 4.66699 46 14s21.5 21.166 28.5 35.499s12 30.166 15 47.499s5.16699 33.666 6.5 48.999h34c0 -17.333 -1.66699 -37 -5 -59
s-9.16602 -42.833 -17.499 -62.5s-19.666 -36.334 -33.999 -50.001s-32.5 -20.5 -54.5 -20.5c-20 0 -37.167 4 -51.5 12s-27.333 18.167 -39 30.5s-22.667 25.5 -33 39.5s-21.5 27.167 -33.5 39.5s-25.333 22.5 -40 30.5s-32 12 -52 12z" />
    <glyph glyph-name="Adieresis" unicode="&#xc4;" horiz-adv-x="978" 
d="M21 349c0 36 2.66797 74.8379 8.00098 116.505s14.166 83.5 26.499 125.5s28 82.333 47 121s42.167 73 69.5 103s58.833 54 94.5 72s76.5 27 122.5 27c22 2 45 -1 69 -9s46 -19.833 66 -35.5s36.667 -34.5 50 -56.5s20.666 -45.667 21.999 -71
c0 -26 -1.33301 -52.833 -4 -80.5s-5.5 -55.334 -8.5 -83.001s-5.83301 -55.334 -8.5 -83.001s-4 -54.834 -4 -81.501c0 -22 1 -46.333 3 -73s5.66699 -53.334 11 -80.001s12.833 -52.334 22.5 -77.001s22.167 -46.5 37.5 -65.5s34 -34.333 56 -46s48 -17.5 78 -17.5
c20 0 38.667 6 56 18s32.5 27.167 45.5 45.5s23.167 38.166 30.5 59.499s11 41.333 11 60s-4.5 34.834 -13.5 48.501s-20.5 24.667 -34.5 33s-29.667 13.666 -47 15.999s-34.333 1.5 -51 -2.5c6.66699 12 17 22.333 31 31s27.667 13 41 13c18 0 33.5 -4.5 46.5 -13.5
s23.667 -20.333 32 -34s14.5 -28.5 18.5 -44.5s6 -31 6 -45c3.33301 -30 1 -57.833 -7 -83.5s-20 -48.334 -36 -68.001s-35.167 -35.667 -57.5 -48s-45.833 -20.333 -70.5 -24s-50 -2.33398 -76 3.99902s-50.333 18.833 -73 37.5
c-15.333 19.333 -28.166 40.166 -38.499 62.499s-19.333 45.333 -27 69s-14.334 47.667 -20.001 72l-16.5 71.5c-14.667 -19.333 -26.5 -41.666 -35.5 -66.999l-27 -77.5c-9 -26.333 -19 -51.833 -30 -76.5s-25.5 -46.167 -43.5 -64.5s-40.5 -32.166 -67.5 -41.499
s-61.167 -11.666 -102.5 -6.99902c-25.333 0 -48 6.33301 -68 19s-37.5 29 -52.5 49s-27.667 42.833 -38 68.5s-18.666 51.334 -24.999 77.001s-11 50.5 -14 74.5s-4.5 44.667 -4.5 62zM50.001 387.005c0 -18 0.998047 -38.8281 2.99805 -62.4951
s5.33301 -47.834 10 -72.501s11.334 -48.834 20.001 -72.501s19.5 -44.667 32.5 -63s28.833 -33.166 47.5 -44.499s40.334 -17 65.001 -17c37.333 -5.33301 70.666 3.66699 99.999 27s55.5 55.166 78.5 95.499s42.667 86.333 59 138s30 103.5 41 155.5
s19.5 101.167 25.5 147.5s10 84.166 12 113.499c2.66699 11.333 1 25 -5 41s-15.5 31.167 -28.5 45.5s-29.167 26.833 -48.5 37.5s-40.333 16 -63 16c-39.333 0 -75.166 -7.33301 -107.499 -22s-61.5 -34.334 -87.5 -59.001s-48.667 -53.334 -68 -86.001
s-35.333 -67 -48 -103s-22.167 -72.5 -28.5 -109.5s-9.5 -72.167 -9.5 -105.5zM222.999 1035.01c0 14.667 4.99902 25.667 14.999 33s21.667 11 35 11c2 0 5.83301 -0.166992 11.5 -0.5s11.5 -1 17.5 -2s11.333 -2.5 16 -4.5s7 -5 7 -9c0 -18 -1.16699 -32.5 -3.5 -43.5
s-5 -19.5 -8 -25.5s-6.16699 -10.333 -9.5 -13s-6 -4.33398 -8 -5.00098c-11.333 -9.33301 -21.5 -13.333 -30.5 -12s-16.667 5.83301 -23 13.5s-11.166 16.834 -14.499 27.501s-5 20.667 -5 30zM416.998 1041.01c0 14.667 4.99902 25.667 14.999 33s21.667 11 35 11
c2 0 5.83301 -0.166992 11.5 -0.5s11.5 -1 17.5 -2s11.333 -2.5 16 -4.5s7 -5 7 -9c0 -18 -1.16699 -32.5 -3.5 -43.5s-5 -19.5 -8 -25.5s-6.16699 -10.333 -9.5 -13s-6 -4.33398 -8 -5.00098c-11.333 -9.33301 -21.5 -13.333 -30.5 -12s-16.667 5.83301 -23 13.5
s-11.166 16.834 -14.499 27.501s-5 20.667 -5 30z" />
    <glyph glyph-name="Aring" unicode="&#xc5;" horiz-adv-x="978" 
d="M21 349c0 36 2.66797 74.8379 8.00098 116.505s14.166 83.5 26.499 125.5s28 82.333 47 121s42.167 73 69.5 103s58.833 54 94.5 72s76.5 27 122.5 27c22 2 45 -1 69 -9s46 -19.833 66 -35.5s36.667 -34.5 50 -56.5s20.666 -45.667 21.999 -71
c0 -26 -1.33301 -52.833 -4 -80.5s-5.5 -55.334 -8.5 -83.001s-5.83301 -55.334 -8.5 -83.001s-4 -54.834 -4 -81.501c0 -22 1 -46.333 3 -73s5.66699 -53.334 11 -80.001s12.833 -52.334 22.5 -77.001s22.167 -46.5 37.5 -65.5s34 -34.333 56 -46s48 -17.5 78 -17.5
c20 0 38.667 6 56 18s32.5 27.167 45.5 45.5s23.167 38.166 30.5 59.499s11 41.333 11 60s-4.5 34.834 -13.5 48.501s-20.5 24.667 -34.5 33s-29.667 13.666 -47 15.999s-34.333 1.5 -51 -2.5c6.66699 12 17 22.333 31 31s27.667 13 41 13c18 0 33.5 -4.5 46.5 -13.5
s23.667 -20.333 32 -34s14.5 -28.5 18.5 -44.5s6 -31 6 -45c3.33301 -30 1 -57.833 -7 -83.5s-20 -48.334 -36 -68.001s-35.167 -35.667 -57.5 -48s-45.833 -20.333 -70.5 -24s-50 -2.33398 -76 3.99902s-50.333 18.833 -73 37.5
c-15.333 19.333 -28.166 40.166 -38.499 62.499s-19.333 45.333 -27 69s-14.334 47.667 -20.001 72l-16.5 71.5c-14.667 -19.333 -26.5 -41.666 -35.5 -66.999l-27 -77.5c-9 -26.333 -19 -51.833 -30 -76.5s-25.5 -46.167 -43.5 -64.5s-40.5 -32.166 -67.5 -41.499
s-61.167 -11.666 -102.5 -6.99902c-25.333 0 -48 6.33301 -68 19s-37.5 29 -52.5 49s-27.667 42.833 -38 68.5s-18.666 51.334 -24.999 77.001s-11 50.5 -14 74.5s-4.5 44.667 -4.5 62zM50.001 387.005c0 -18 0.998047 -38.8281 2.99805 -62.4951
s5.33301 -47.834 10 -72.501s11.334 -48.834 20.001 -72.501s19.5 -44.667 32.5 -63s28.833 -33.166 47.5 -44.499s40.334 -17 65.001 -17c37.333 -5.33301 70.666 3.66699 99.999 27s55.5 55.166 78.5 95.499s42.667 86.333 59 138s30 103.5 41 155.5
s19.5 101.167 25.5 147.5s10 84.166 12 113.499c2.66699 11.333 1 25 -5 41s-15.5 31.167 -28.5 45.5s-29.167 26.833 -48.5 37.5s-40.333 16 -63 16c-39.333 0 -75.166 -7.33301 -107.499 -22s-61.5 -34.334 -87.5 -59.001s-48.667 -53.334 -68 -86.001
s-35.333 -67 -48 -103s-22.167 -72.5 -28.5 -109.5s-9.5 -72.167 -9.5 -105.5zM310.999 1005.01c0 9.33301 4.00195 19.167 12.002 29.5s17.667 19.666 29 27.999s23.166 15.333 35.499 21s22.833 8.5 31.5 8.5c10 0 19.833 -1.5 29.5 -4.5s18.5 -7.33301 26.5 -13
s14.5 -12.5 19.5 -20.5s7.5 -17.333 7.5 -28c0 -8.66699 -1 -19.167 -3 -31.5s-5 -24.333 -9 -36s-8.83301 -21.667 -14.5 -30s-11.834 -12.5 -18.501 -12.5c-22.667 -5.33301 -42.167 -6.16602 -58.5 -2.49902s-30.333 10 -42 19s-21.167 20 -28.5 33s-13 26.167 -17 39.5z
M370.001 974.011c0 -5.33301 2.00195 -9 6.00195 -11s8.5 -3.5 13.5 -4.5s9.83301 -1.33301 14.5 -1s7.66699 0.5 9 0.5c19.333 0 31.666 2.66699 36.999 8s8 17.666 8 36.999c0 16.667 -1.83301 28.334 -5.5 35.001s-14.167 10 -31.5 10c-20.667 0 -34.334 -7 -41.001 -21
s-10 -31.667 -10 -53z" />
    <glyph glyph-name="Ccedilla" unicode="&#xc7;" horiz-adv-x="701" 
d="M22 460c0 54.667 10.1729 107.006 30.5059 157.006s48.166 94.167 83.499 132.5s77.333 69 126 92s101 34.5 157 34.5c39.333 0 74.833 -7.33301 106.5 -22s58.5 -34.5 80.5 -59.5s39 -54 51 -87s18 -67.833 18 -104.5c0 -20.667 -5 -38.334 -15 -53.001
s-22.833 -26.834 -38.5 -36.501s-32.834 -16.667 -51.501 -21s-37 -6.5 -55 -6.5c0 12 3.16699 21.5 9.5 28.5s14.5 13.167 24.5 18.5s20.5 10.166 31.5 14.499s21.5 9.5 31.5 15.5s18.167 13.5 24.5 22.5s9.5 20.833 9.5 35.5c0 30 -6 57.333 -18 82
s-27.833 45.667 -47.5 63s-42.167 30.666 -67.5 39.999s-51.666 14 -78.999 14c-54 0 -103.667 -8.5 -149 -25.5s-84.333 -41.333 -117 -73s-58.167 -69.834 -76.5 -114.501s-27.5 -94.667 -27.5 -150c0 -29.333 3 -60 9 -92s14.833 -63.5 26.5 -94.5
s26.167 -60.5 43.5 -88.5s37.666 -52.5 60.999 -73.5s49.666 -37.667 78.999 -50s61.333 -18.5 96 -18.5c6 0 16.167 2.16699 30.5 6.5s30.666 10 48.999 17s37.5 14.833 57.5 23.5s38.5 17.334 55.5 26.001s31.167 17.167 42.5 25.5s18 15.166 20 20.499
c2 -2 4.66699 -4.83301 8 -8.5s6.5 -7.66699 9.5 -12s5.5 -8.5 7.5 -12.5s2.66699 -7 2 -9c-2.66699 -7.33301 -10.834 -15.333 -24.501 -24s-30.167 -17.334 -49.5 -26.001s-40.333 -17 -63 -25s-44.334 -15.167 -65.001 -21.5s-39.167 -11.333 -55.5 -15
s-27.833 -5.5 -34.5 -5.5c-36 0 -69.5 7 -100.5 21s-59.5 33 -85.5 57s-48.833 51.5 -68.5 82.5s-36.5 63.5 -50.5 97.5s-24.5 68.333 -31.5 103s-10.5 67.667 -10.5 99zM166.006 -301.994c0 2 0.166016 6.83105 0.499023 14.498s0.5 12.5 0.5 14.5l28 26
c8 7.33301 16 13.5 24 18.5s16.333 8.66699 25 11s18.667 3.5 30 3.5c8 0 16 -1.83301 24 -5.5s15.167 -8.5 21.5 -14.5s11.666 -13 15.999 -21s6.5 -16.333 6.5 -25c0 -9.33301 -5.33301 -16.666 -16 -21.999c-1.33301 2 -4 5 -8 9l-13 13l-13 13c-4 4 -7 6.66699 -9 8
c-0.666992 0.666992 -1.83398 1.16699 -3.50098 1.5s-2.83398 0.5 -3.50098 0.5c-8.66699 0 -16.167 -2 -22.5 -6s-11.666 -9.16699 -15.999 -15.5s-7.66602 -13.333 -9.99902 -21s-3.5 -15.167 -3.5 -22.5c0 -12.667 2.66699 -22.5 8 -29.5s12.166 -12.333 20.499 -16
s17.666 -6 27.999 -7s20.5 -1.5 30.5 -1.5c14.667 0 29.167 1 43.5 3s27.166 5.83301 38.499 11.5s20.333 13.834 27 24.501s10 25 10 43c0 21.333 -5 39 -15 53s-22.333 26.333 -37 37s-30.667 20.334 -48 29.001s-33.333 18.167 -48 28.5s-27 22.333 -37 36
s-15 30.834 -15 51.501c-1.33301 32.667 0.833984 57.834 6.50098 75.501s12.334 29.334 20.001 35.001s15.5 6.66699 23.5 3s14.333 -10.334 19 -20.001s6.5 -21.334 5.5 -35.001s-6.83301 -27.5 -17.5 -41.5c0 -8 3.83301 -18.167 11.5 -30.5s16.834 -24 27.501 -35
s21.834 -20.5 33.501 -28.5s21.834 -12 30.501 -12c24 -8 43.667 -21 59 -39s25.833 -38.167 31.5 -60.5s7 -44.833 4 -67.5s-11 -42.834 -24 -60.501s-30.5 -30.834 -52.5 -39.501s-49 -10 -81 -4c-19.333 0 -38.5 1.83301 -57.5 5.5s-36.167 10 -51.5 19
s-27.833 21 -37.5 36s-14.5 33.833 -14.5 56.5z" />
    <glyph glyph-name="Egrave" unicode="&#xc8;" horiz-adv-x="572" 
d="M333 0l-109.002 23.5c-38 8.33301 -72.333 20.833 -103 37.5s-55.167 38.667 -73.5 66s-25.166 63.666 -20.499 108.999c-0.666992 28.667 3.5 55.667 12.5 81s21.5 48.833 37.5 70.5s34.833 41.334 56.5 59.001s44.5 33.167 68.5 46.5
c-23.333 14.667 -45.666 30.834 -66.999 48.501s-40 37 -56 58s-28.667 43.667 -38 68s-14 50.5 -14 78.5c0 29.333 7.16699 58.333 21.5 87s33.166 54.334 56.499 77.001s49.833 41 79.5 55s59.834 21 90.501 21c20 0 40 -2.5 60 -7.5s36.667 -12.167 50 -21.5
s21.666 -20.666 24.999 -33.999s-2 -28.333 -16 -45c-10 0 -18.667 3.33301 -26 10s-15 14.167 -23 22.5s-17.167 15.833 -27.5 22.5s-22.833 10 -37.5 10c-21.333 0 -45 -5.33301 -71 -16s-50.333 -24.667 -73 -42s-41.667 -37.333 -57 -60s-23 -46 -23 -70
c-0.666992 -32.667 4.66602 -61.5 15.999 -86.5s26.833 -46.833 46.5 -65.5s42.334 -34.334 68.001 -47.001s52.334 -22.5 80.001 -29.5s54.834 -11.5 81.501 -13.5s51.334 -1.66699 74.001 1c0 -6 0.5 -11.167 1.5 -15.5s1.5 -8.5 1.5 -12.5s-1.33301 -7.5 -4 -10.5
s-7.33398 -5.83301 -14.001 -8.5c-40.667 3.33301 -81 1.33301 -121 -6s-76 -20.833 -108 -40.5s-57.833 -45.334 -77.5 -77.001s-29.5 -70.167 -29.5 -115.5c0 -35.333 9 -64.166 27 -86.499s40.667 -39.833 68 -52.5s57.166 -21.334 89.499 -26.001s62.833 -7 91.5 -7
c17.333 0 34 1.66699 50 5s31.5 7 46.5 11s30.167 7.66699 45.5 11s31 5 47 5c9.33301 0 16.833 -0.833008 22.5 -2.5s12.5 -6.16699 20.5 -13.5c13.333 -8 14 -16 2 -24s-31 -15.5 -57 -22.5s-56.333 -12.833 -91 -17.5s-68 -7.33398 -100 -8.00098zM436.998 1003
c-8.66699 8 -24.0039 15.6719 -46.0039 23.0049s-47 14.666 -75 21.999l-88 22c-30.667 7.33301 -58.5 15.166 -83.5 23.499s-45.667 17.166 -62 26.499s-24.5 20 -24.5 32v7c0 3.33301 0.333008 5.66602 1 6.99902l73 -18.5c30 -7.66699 61.333 -16.167 94 -25.5
s64.834 -19.5 96.501 -30.5s58.834 -21.833 81.501 -32.5s39 -20.834 49 -30.501s9.33301 -18.5 -2 -26.5c-1.33301 0 -3.66602 0.166992 -6.99902 0.5s-5.66602 0.5 -6.99902 0.5z" />
    <glyph glyph-name="Eacute" unicode="&#xc9;" horiz-adv-x="572" 
d="M333 0l-109.002 23.5c-38 8.33301 -72.333 20.833 -103 37.5s-55.167 38.667 -73.5 66s-25.166 63.666 -20.499 108.999c-0.666992 28.667 3.5 55.667 12.5 81s21.5 48.833 37.5 70.5s34.833 41.334 56.5 59.001s44.5 33.167 68.5 46.5
c-23.333 14.667 -45.666 30.834 -66.999 48.501s-40 37 -56 58s-28.667 43.667 -38 68s-14 50.5 -14 78.5c0 29.333 7.16699 58.333 21.5 87s33.166 54.334 56.499 77.001s49.833 41 79.5 55s59.834 21 90.501 21c20 0 40 -2.5 60 -7.5s36.667 -12.167 50 -21.5
s21.666 -20.666 24.999 -33.999s-2 -28.333 -16 -45c-10 0 -18.667 3.33301 -26 10s-15 14.167 -23 22.5s-17.167 15.833 -27.5 22.5s-22.833 10 -37.5 10c-21.333 0 -45 -5.33301 -71 -16s-50.333 -24.667 -73 -42s-41.667 -37.333 -57 -60s-23 -46 -23 -70
c-0.666992 -32.667 4.66602 -61.5 15.999 -86.5s26.833 -46.833 46.5 -65.5s42.334 -34.334 68.001 -47.001s52.334 -22.5 80.001 -29.5s54.834 -11.5 81.501 -13.5s51.334 -1.66699 74.001 1c0 -6 0.5 -11.167 1.5 -15.5s1.5 -8.5 1.5 -12.5s-1.33301 -7.5 -4 -10.5
s-7.33398 -5.83301 -14.001 -8.5c-40.667 3.33301 -81 1.33301 -121 -6s-76 -20.833 -108 -40.5s-57.833 -45.334 -77.5 -77.001s-29.5 -70.167 -29.5 -115.5c0 -35.333 9 -64.166 27 -86.499s40.667 -39.833 68 -52.5s57.166 -21.334 89.499 -26.001s62.833 -7 91.5 -7
c17.333 0 34 1.66699 50 5s31.5 7 46.5 11s30.167 7.66699 45.5 11s31 5 47 5c9.33301 0 16.833 -0.833008 22.5 -2.5s12.5 -6.16699 20.5 -13.5c13.333 -8 14 -16 2 -24s-31 -15.5 -57 -22.5s-56.333 -12.833 -91 -17.5s-68 -7.33398 -100 -8.00098zM113.998 968
c-1.33301 0 -3.5 -0.167969 -6.5 -0.500977s-5.16699 -0.5 -6.5 -0.5c-10 10.667 -10.5 22.667 -1.5 36s23.833 27 44.5 41s45.667 28.333 75 43s59 28.334 89 41.001s58.5 24.167 85.5 34.5s49.167 18.5 66.5 24.5c0.666992 -1.33301 1 -4.5 1 -9.5v-9.5
c0 -16 -7.33301 -30.333 -22 -43s-33.667 -24.667 -57 -36s-48.833 -21.833 -76.5 -31.5l-80.5 -29c-26 -9.66699 -49 -19.5 -69 -29.5s-34 -20.333 -42 -31z" />
    <glyph glyph-name="Ecircumflex" unicode="&#xca;" horiz-adv-x="572" 
d="M333 0l-109.002 23.5c-38 8.33301 -72.333 20.833 -103 37.5s-55.167 38.667 -73.5 66s-25.166 63.666 -20.499 108.999c-0.666992 28.667 3.5 55.667 12.5 81s21.5 48.833 37.5 70.5s34.833 41.334 56.5 59.001s44.5 33.167 68.5 46.5
c-23.333 14.667 -45.666 30.834 -66.999 48.501s-40 37 -56 58s-28.667 43.667 -38 68s-14 50.5 -14 78.5c0 29.333 7.16699 58.333 21.5 87s33.166 54.334 56.499 77.001s49.833 41 79.5 55s59.834 21 90.501 21c20 0 40 -2.5 60 -7.5s36.667 -12.167 50 -21.5
s21.666 -20.666 24.999 -33.999s-2 -28.333 -16 -45c-10 0 -18.667 3.33301 -26 10s-15 14.167 -23 22.5s-17.167 15.833 -27.5 22.5s-22.833 10 -37.5 10c-21.333 0 -45 -5.33301 -71 -16s-50.333 -24.667 -73 -42s-41.667 -37.333 -57 -60s-23 -46 -23 -70
c-0.666992 -32.667 4.66602 -61.5 15.999 -86.5s26.833 -46.833 46.5 -65.5s42.334 -34.334 68.001 -47.001s52.334 -22.5 80.001 -29.5s54.834 -11.5 81.501 -13.5s51.334 -1.66699 74.001 1c0 -6 0.5 -11.167 1.5 -15.5s1.5 -8.5 1.5 -12.5s-1.33301 -7.5 -4 -10.5
s-7.33398 -5.83301 -14.001 -8.5c-40.667 3.33301 -81 1.33301 -121 -6s-76 -20.833 -108 -40.5s-57.833 -45.334 -77.5 -77.001s-29.5 -70.167 -29.5 -115.5c0 -35.333 9 -64.166 27 -86.499s40.667 -39.833 68 -52.5s57.166 -21.334 89.499 -26.001s62.833 -7 91.5 -7
c17.333 0 34 1.66699 50 5s31.5 7 46.5 11s30.167 7.66699 45.5 11s31 5 47 5c9.33301 0 16.833 -0.833008 22.5 -2.5s12.5 -6.16699 20.5 -13.5c13.333 -8 14 -16 2 -24s-31 -15.5 -57 -22.5s-56.333 -12.833 -91 -17.5s-68 -7.33398 -100 -8.00098zM317.998 1324
c14 0 28.3311 -7.33203 42.998 -21.999s28.667 -33.667 42 -57s25.833 -48.833 37.5 -76.5s21.834 -54.834 30.501 -81.501s15.5 -50.667 20.5 -72s7.5 -37 7.5 -47c0 -7.33301 -1.16699 -13.333 -3.5 -18s-6.16602 -10.667 -11.499 -18c-11.333 8.66699 -21 22.5 -29 41.5
s-15.5 40.333 -22.5 64l-21 73.5c-7 25.333 -14.667 48.5 -23 69.5s-18.166 38.167 -29.499 51.5s-25 20 -41 20c-12 0 -25.333 -8 -40 -24s-30.667 -36.167 -48 -60.5l-56 -78.5c-20 -28 -40.833 -54.167 -62.5 -78.5s-44.167 -44.5 -67.5 -60.5s-47 -24 -71 -24
c0 2.66699 4.83301 10.5 14.5 23.5s22.5 29.167 38.5 48.5l54.5 64.5l62 71.5l62.5 70.5l55.5 61l40 42.5c10.333 10.667 16.166 16 17.499 16z" />
    <glyph glyph-name="Edieresis" unicode="&#xcb;" horiz-adv-x="572" 
d="M333 0l-109.002 23.5c-38 8.33301 -72.333 20.833 -103 37.5s-55.167 38.667 -73.5 66s-25.166 63.666 -20.499 108.999c-0.666992 28.667 3.5 55.667 12.5 81s21.5 48.833 37.5 70.5s34.833 41.334 56.5 59.001s44.5 33.167 68.5 46.5
c-23.333 14.667 -45.666 30.834 -66.999 48.501s-40 37 -56 58s-28.667 43.667 -38 68s-14 50.5 -14 78.5c0 29.333 7.16699 58.333 21.5 87s33.166 54.334 56.499 77.001s49.833 41 79.5 55s59.834 21 90.501 21c20 0 40 -2.5 60 -7.5s36.667 -12.167 50 -21.5
s21.666 -20.666 24.999 -33.999s-2 -28.333 -16 -45c-10 0 -18.667 3.33301 -26 10s-15 14.167 -23 22.5s-17.167 15.833 -27.5 22.5s-22.833 10 -37.5 10c-21.333 0 -45 -5.33301 -71 -16s-50.333 -24.667 -73 -42s-41.667 -37.333 -57 -60s-23 -46 -23 -70
c-0.666992 -32.667 4.66602 -61.5 15.999 -86.5s26.833 -46.833 46.5 -65.5s42.334 -34.334 68.001 -47.001s52.334 -22.5 80.001 -29.5s54.834 -11.5 81.501 -13.5s51.334 -1.66699 74.001 1c0 -6 0.5 -11.167 1.5 -15.5s1.5 -8.5 1.5 -12.5s-1.33301 -7.5 -4 -10.5
s-7.33398 -5.83301 -14.001 -8.5c-40.667 3.33301 -81 1.33301 -121 -6s-76 -20.833 -108 -40.5s-57.833 -45.334 -77.5 -77.001s-29.5 -70.167 -29.5 -115.5c0 -35.333 9 -64.166 27 -86.499s40.667 -39.833 68 -52.5s57.166 -21.334 89.499 -26.001s62.833 -7 91.5 -7
c17.333 0 34 1.66699 50 5s31.5 7 46.5 11s30.167 7.66699 45.5 11s31 5 47 5c9.33301 0 16.833 -0.833008 22.5 -2.5s12.5 -6.16699 20.5 -13.5c13.333 -8 14 -16 2 -24s-31 -15.5 -57 -22.5s-56.333 -12.833 -91 -17.5s-68 -7.33398 -100 -8.00098zM138.998 1163
c0 14.667 4.99902 25.667 14.999 33s21.667 11 35 11c2 0 5.83301 -0.166992 11.5 -0.5s11.5 -1 17.5 -2s11.333 -2.5 16 -4.5s7 -5 7 -9c0 -18 -1.16699 -32.5 -3.5 -43.5s-5 -19.5 -8 -25.5s-6.16699 -10.333 -9.5 -13s-6 -4.33398 -8 -5.00098
c-11.333 -9.33301 -21.5 -13.333 -30.5 -12s-16.667 5.83301 -23 13.5s-11.166 16.834 -14.499 27.501s-5 20.667 -5 30zM332.997 1169c0 14.667 4.99902 25.667 14.999 33s21.667 11 35 11c2 0 5.83301 -0.166992 11.5 -0.5s11.5 -1 17.5 -2s11.333 -2.5 16 -4.5s7 -5 7 -9
c0 -18 -1.16699 -32.5 -3.5 -43.5s-5 -19.5 -8 -25.5s-6.16699 -10.333 -9.5 -13s-6 -4.33398 -8 -5.00098c-11.333 -9.33301 -21.5 -13.333 -30.5 -12s-16.667 5.83301 -23 13.5s-11.166 16.834 -14.499 27.501s-5 20.667 -5 30z" />
    <glyph glyph-name="Igrave" unicode="&#xcc;" horiz-adv-x="812" 
d="M225 117c27.333 0 53.332 -2.66895 77.999 -8.00195s50 -8 76 -8h5c0.666992 1.33301 1.83398 4.16602 3.50098 8.49902l5 13.5l4.5 13c1.33301 4 2 7 2 9l20.5 192c5.66699 55.333 10.334 107.5 14.001 156.5s6.33398 98 8.00098 147s2.5 103.5 2.5 163.5v27.5
c0 13 -0.166992 26.833 -0.5 41.5s-0.666016 28.5 -0.999023 41.5s-0.5 22.167 -0.5 27.5c-41.333 16.667 -80.666 28.334 -117.999 35.001s-78 10 -122 10c-18 0 -34.833 -1.83301 -50.5 -5.5s-31 -7.5 -46 -11.5l-45 -11.5c-15 -3.66699 -30.833 -5.5 -47.5 -5.5
c0 19.333 7.83301 35 23.5 47s34 21.333 55 28s42.333 11.167 64 13.5s38.834 3.5 51.501 3.5c34.667 0 68.834 -3.83301 102.501 -11.5s67 -16.334 100 -26.001s66.333 -18.334 100 -26.001s68.167 -11.5 103.5 -11.5c14 0 27.667 1.66699 41 5s26.166 6.83301 38.499 10.5
l36 10.5c11.667 3.33301 23.167 5 34.5 5c8 0 14.5 -1.66699 19.5 -5s7.5 -11.666 7.5 -24.999c0 -16 -8.33301 -28.833 -25 -38.5s-35.834 -17 -57.501 -22s-42.834 -8.16699 -63.501 -9.5s-34.667 -2 -42 -2c-10.667 0 -20.834 1.33301 -30.501 4
s-19.167 5.83398 -28.5 9.50098s-18.666 6.83398 -27.999 9.50098s-19 4 -29 4v-13c0 -3.33301 0.833008 -11.333 2.5 -24s3.33398 -26.334 5.00098 -41.001l4.5 -41c1.33301 -12.667 2 -20.667 2 -24c0 -48.667 -2.33301 -97.667 -7 -147s-9.83398 -99 -15.501 -149
s-10.834 -99.833 -15.501 -149.5s-7 -99.5 -7 -149.5c0 -4 0.166992 -11.5 0.5 -22.5s0.5 -22.667 0.5 -35s0.166992 -24 0.5 -35s0.5 -18.833 0.5 -23.5c15.333 -10.667 32.666 -18.167 51.999 -22.5s38 -6.5 56 -6.5s35.5 2.33301 52.5 7s33.833 9.83398 50.5 15.501
s33.334 10.834 50.001 15.501s33.667 7 51 7c6 0 11.167 -2.16699 15.5 -6.5s6.5 -9.83301 6.5 -16.5c0 -14 -9.5 -25.333 -28.5 -34s-41 -15.334 -66 -20.001s-49.5 -7.83398 -73.5 -9.50098s-41.333 -2.5 -52 -2.5c-31.333 0 -61.5 3.83301 -90.5 11.5
s-58 16.334 -87 26.001s-58.167 18.334 -87.5 26.001s-59.333 11.5 -90 11.5c-19.333 0 -36.833 -4 -52.5 -12s-30.667 -17 -45 -27s-28.833 -19 -43.5 -27s-30 -12 -46 -12c0 22 7.16699 40.667 21.5 56s31.666 27.833 51.999 37.5s41.666 16.667 63.999 21
s41.833 6.5 58.5 6.5zM554.999 1003c-8.66699 8 -24.0039 15.6719 -46.0039 23.0049s-47 14.666 -75 21.999l-88 22c-30.667 7.33301 -58.5 15.166 -83.5 23.499s-45.667 17.166 -62 26.499s-24.5 20 -24.5 32v7c0 3.33301 0.333008 5.66602 1 6.99902l73 -18.5
c30 -7.66699 61.333 -16.167 94 -25.5s64.834 -19.5 96.501 -30.5s58.834 -21.833 81.501 -32.5s39 -20.834 49 -30.501s9.33301 -18.5 -2 -26.5c-1.33301 0 -3.66602 0.166992 -6.99902 0.5s-5.66602 0.5 -6.99902 0.5z" />
    <glyph glyph-name="Iacute" unicode="&#xcd;" horiz-adv-x="812" 
d="M225 117c27.333 0 53.332 -2.66895 77.999 -8.00195s50 -8 76 -8h5c0.666992 1.33301 1.83398 4.16602 3.50098 8.49902l5 13.5l4.5 13c1.33301 4 2 7 2 9l20.5 192c5.66699 55.333 10.334 107.5 14.001 156.5s6.33398 98 8.00098 147s2.5 103.5 2.5 163.5v27.5
c0 13 -0.166992 26.833 -0.5 41.5s-0.666016 28.5 -0.999023 41.5s-0.5 22.167 -0.5 27.5c-41.333 16.667 -80.666 28.334 -117.999 35.001s-78 10 -122 10c-18 0 -34.833 -1.83301 -50.5 -5.5s-31 -7.5 -46 -11.5l-45 -11.5c-15 -3.66699 -30.833 -5.5 -47.5 -5.5
c0 19.333 7.83301 35 23.5 47s34 21.333 55 28s42.333 11.167 64 13.5s38.834 3.5 51.501 3.5c34.667 0 68.834 -3.83301 102.501 -11.5s67 -16.334 100 -26.001s66.333 -18.334 100 -26.001s68.167 -11.5 103.5 -11.5c14 0 27.667 1.66699 41 5s26.166 6.83301 38.499 10.5
l36 10.5c11.667 3.33301 23.167 5 34.5 5c8 0 14.5 -1.66699 19.5 -5s7.5 -11.666 7.5 -24.999c0 -16 -8.33301 -28.833 -25 -38.5s-35.834 -17 -57.501 -22s-42.834 -8.16699 -63.501 -9.5s-34.667 -2 -42 -2c-10.667 0 -20.834 1.33301 -30.501 4
s-19.167 5.83398 -28.5 9.50098s-18.666 6.83398 -27.999 9.50098s-19 4 -29 4v-13c0 -3.33301 0.833008 -11.333 2.5 -24s3.33398 -26.334 5.00098 -41.001l4.5 -41c1.33301 -12.667 2 -20.667 2 -24c0 -48.667 -2.33301 -97.667 -7 -147s-9.83398 -99 -15.501 -149
s-10.834 -99.833 -15.501 -149.5s-7 -99.5 -7 -149.5c0 -4 0.166992 -11.5 0.5 -22.5s0.5 -22.667 0.5 -35s0.166992 -24 0.5 -35s0.5 -18.833 0.5 -23.5c15.333 -10.667 32.666 -18.167 51.999 -22.5s38 -6.5 56 -6.5s35.5 2.33301 52.5 7s33.833 9.83398 50.5 15.501
s33.334 10.834 50.001 15.501s33.667 7 51 7c6 0 11.167 -2.16699 15.5 -6.5s6.5 -9.83301 6.5 -16.5c0 -14 -9.5 -25.333 -28.5 -34s-41 -15.334 -66 -20.001s-49.5 -7.83398 -73.5 -9.50098s-41.333 -2.5 -52 -2.5c-31.333 0 -61.5 3.83301 -90.5 11.5
s-58 16.334 -87 26.001s-58.167 18.334 -87.5 26.001s-59.333 11.5 -90 11.5c-19.333 0 -36.833 -4 -52.5 -12s-30.667 -17 -45 -27s-28.833 -19 -43.5 -27s-30 -12 -46 -12c0 22 7.16699 40.667 21.5 56s31.666 27.833 51.999 37.5s41.666 16.667 63.999 21
s41.833 6.5 58.5 6.5zM370.999 1054c-1.33301 0 -3.5 -0.167969 -6.5 -0.500977s-5.16699 -0.5 -6.5 -0.5c-10 10.667 -10.5 22.667 -1.5 36s23.833 27 44.5 41s45.667 28.333 75 43s59 28.334 89 41.001s58.5 24.167 85.5 34.5s49.167 18.5 66.5 24.5
c0.666992 -1.33301 1 -4.5 1 -9.5v-9.5c0 -16 -7.33301 -30.333 -22 -43s-33.667 -24.667 -57 -36s-48.833 -21.833 -76.5 -31.5l-80.5 -29c-26 -9.66699 -49 -19.5 -69 -29.5s-34 -20.333 -42 -31z" />
    <glyph glyph-name="Icircumflex" unicode="&#xce;" horiz-adv-x="812" 
d="M225 117c27.333 0 53.332 -2.66895 77.999 -8.00195s50 -8 76 -8h5c0.666992 1.33301 1.83398 4.16602 3.50098 8.49902l5 13.5l4.5 13c1.33301 4 2 7 2 9l20.5 192c5.66699 55.333 10.334 107.5 14.001 156.5s6.33398 98 8.00098 147s2.5 103.5 2.5 163.5v27.5
c0 13 -0.166992 26.833 -0.5 41.5s-0.666016 28.5 -0.999023 41.5s-0.5 22.167 -0.5 27.5c-41.333 16.667 -80.666 28.334 -117.999 35.001s-78 10 -122 10c-18 0 -34.833 -1.83301 -50.5 -5.5s-31 -7.5 -46 -11.5l-45 -11.5c-15 -3.66699 -30.833 -5.5 -47.5 -5.5
c0 19.333 7.83301 35 23.5 47s34 21.333 55 28s42.333 11.167 64 13.5s38.834 3.5 51.501 3.5c34.667 0 68.834 -3.83301 102.501 -11.5s67 -16.334 100 -26.001s66.333 -18.334 100 -26.001s68.167 -11.5 103.5 -11.5c14 0 27.667 1.66699 41 5s26.166 6.83301 38.499 10.5
l36 10.5c11.667 3.33301 23.167 5 34.5 5c8 0 14.5 -1.66699 19.5 -5s7.5 -11.666 7.5 -24.999c0 -16 -8.33301 -28.833 -25 -38.5s-35.834 -17 -57.501 -22s-42.834 -8.16699 -63.501 -9.5s-34.667 -2 -42 -2c-10.667 0 -20.834 1.33301 -30.501 4
s-19.167 5.83398 -28.5 9.50098s-18.666 6.83398 -27.999 9.50098s-19 4 -29 4v-13c0 -3.33301 0.833008 -11.333 2.5 -24s3.33398 -26.334 5.00098 -41.001l4.5 -41c1.33301 -12.667 2 -20.667 2 -24c0 -48.667 -2.33301 -97.667 -7 -147s-9.83398 -99 -15.501 -149
s-10.834 -99.833 -15.501 -149.5s-7 -99.5 -7 -149.5c0 -4 0.166992 -11.5 0.5 -22.5s0.5 -22.667 0.5 -35s0.166992 -24 0.5 -35s0.5 -18.833 0.5 -23.5c15.333 -10.667 32.666 -18.167 51.999 -22.5s38 -6.5 56 -6.5s35.5 2.33301 52.5 7s33.833 9.83398 50.5 15.501
s33.334 10.834 50.001 15.501s33.667 7 51 7c6 0 11.167 -2.16699 15.5 -6.5s6.5 -9.83301 6.5 -16.5c0 -14 -9.5 -25.333 -28.5 -34s-41 -15.334 -66 -20.001s-49.5 -7.83398 -73.5 -9.50098s-41.333 -2.5 -52 -2.5c-31.333 0 -61.5 3.83301 -90.5 11.5
s-58 16.334 -87 26.001s-58.167 18.334 -87.5 26.001s-59.333 11.5 -90 11.5c-19.333 0 -36.833 -4 -52.5 -12s-30.667 -17 -45 -27s-28.833 -19 -43.5 -27s-30 -12 -46 -12c0 22 7.16699 40.667 21.5 56s31.666 27.833 51.999 37.5s41.666 16.667 63.999 21
s41.833 6.5 58.5 6.5zM487.999 1461c14 0 28.3311 -7.33203 42.998 -21.999s28.667 -33.667 42 -57s25.833 -48.833 37.5 -76.5s21.834 -54.834 30.501 -81.501s15.5 -50.667 20.5 -72s7.5 -37 7.5 -47c0 -7.33301 -1.16699 -13.333 -3.5 -18s-6.16602 -10.667 -11.499 -18
c-11.333 8.66699 -21 22.5 -29 41.5s-15.5 40.333 -22.5 64l-21 73.5c-7 25.333 -14.667 48.5 -23 69.5s-18.166 38.167 -29.499 51.5s-25 20 -41 20c-12 0 -25.333 -8 -40 -24s-30.667 -36.167 -48 -60.5l-56 -78.5c-20 -28 -40.833 -54.167 -62.5 -78.5
s-44.167 -44.5 -67.5 -60.5s-47 -24 -71 -24c0 2.66699 4.83301 10.5 14.5 23.5s22.5 29.167 38.5 48.5l54.5 64.5l62 71.5l62.5 70.5l55.5 61l40 42.5c10.333 10.667 16.166 16 17.499 16z" />
    <glyph glyph-name="Idieresis" unicode="&#xcf;" horiz-adv-x="812" 
d="M225 117c27.333 0 53.332 -2.66895 77.999 -8.00195s50 -8 76 -8h5c0.666992 1.33301 1.83398 4.16602 3.50098 8.49902l5 13.5l4.5 13c1.33301 4 2 7 2 9l20.5 192c5.66699 55.333 10.334 107.5 14.001 156.5s6.33398 98 8.00098 147s2.5 103.5 2.5 163.5v27.5
c0 13 -0.166992 26.833 -0.5 41.5s-0.666016 28.5 -0.999023 41.5s-0.5 22.167 -0.5 27.5c-41.333 16.667 -80.666 28.334 -117.999 35.001s-78 10 -122 10c-18 0 -34.833 -1.83301 -50.5 -5.5s-31 -7.5 -46 -11.5l-45 -11.5c-15 -3.66699 -30.833 -5.5 -47.5 -5.5
c0 19.333 7.83301 35 23.5 47s34 21.333 55 28s42.333 11.167 64 13.5s38.834 3.5 51.501 3.5c34.667 0 68.834 -3.83301 102.501 -11.5s67 -16.334 100 -26.001s66.333 -18.334 100 -26.001s68.167 -11.5 103.5 -11.5c14 0 27.667 1.66699 41 5s26.166 6.83301 38.499 10.5
l36 10.5c11.667 3.33301 23.167 5 34.5 5c8 0 14.5 -1.66699 19.5 -5s7.5 -11.666 7.5 -24.999c0 -16 -8.33301 -28.833 -25 -38.5s-35.834 -17 -57.501 -22s-42.834 -8.16699 -63.501 -9.5s-34.667 -2 -42 -2c-10.667 0 -20.834 1.33301 -30.501 4
s-19.167 5.83398 -28.5 9.50098s-18.666 6.83398 -27.999 9.50098s-19 4 -29 4v-13c0 -3.33301 0.833008 -11.333 2.5 -24s3.33398 -26.334 5.00098 -41.001l4.5 -41c1.33301 -12.667 2 -20.667 2 -24c0 -48.667 -2.33301 -97.667 -7 -147s-9.83398 -99 -15.501 -149
s-10.834 -99.833 -15.501 -149.5s-7 -99.5 -7 -149.5c0 -4 0.166992 -11.5 0.5 -22.5s0.5 -22.667 0.5 -35s0.166992 -24 0.5 -35s0.5 -18.833 0.5 -23.5c15.333 -10.667 32.666 -18.167 51.999 -22.5s38 -6.5 56 -6.5s35.5 2.33301 52.5 7s33.833 9.83398 50.5 15.501
s33.334 10.834 50.001 15.501s33.667 7 51 7c6 0 11.167 -2.16699 15.5 -6.5s6.5 -9.83301 6.5 -16.5c0 -14 -9.5 -25.333 -28.5 -34s-41 -15.334 -66 -20.001s-49.5 -7.83398 -73.5 -9.50098s-41.333 -2.5 -52 -2.5c-31.333 0 -61.5 3.83301 -90.5 11.5
s-58 16.334 -87 26.001s-58.167 18.334 -87.5 26.001s-59.333 11.5 -90 11.5c-19.333 0 -36.833 -4 -52.5 -12s-30.667 -17 -45 -27s-28.833 -19 -43.5 -27s-30 -12 -46 -12c0 22 7.16699 40.667 21.5 56s31.666 27.833 51.999 37.5s41.666 16.667 63.999 21
s41.833 6.5 58.5 6.5zM257.999 1163c0 14.667 4.99902 25.667 14.999 33s21.667 11 35 11c2 0 5.83301 -0.166992 11.5 -0.5s11.5 -1 17.5 -2s11.333 -2.5 16 -4.5s7 -5 7 -9c0 -18 -1.16699 -32.5 -3.5 -43.5s-5 -19.5 -8 -25.5s-6.16699 -10.333 -9.5 -13
s-6 -4.33398 -8 -5.00098c-11.333 -9.33301 -21.5 -13.333 -30.5 -12s-16.667 5.83301 -23 13.5s-11.166 16.834 -14.499 27.501s-5 20.667 -5 30zM451.998 1169c0 14.667 4.99902 25.667 14.999 33s21.667 11 35 11c2 0 5.83301 -0.166992 11.5 -0.5s11.5 -1 17.5 -2
s11.333 -2.5 16 -4.5s7 -5 7 -9c0 -18 -1.16699 -32.5 -3.5 -43.5s-5 -19.5 -8 -25.5s-6.16699 -10.333 -9.5 -13s-6 -4.33398 -8 -5.00098c-11.333 -9.33301 -21.5 -13.333 -30.5 -12s-16.667 5.83301 -23 13.5s-11.166 16.834 -14.499 27.501s-5 20.667 -5 30z" />
    </font>
</defs>
</svg>
